  0
SECTION
  2
HEADER
  9
$ACADVER
  1
AC1009
  9
$FILLMODE
 70
1
  9
$EXTMIN
 10
-9.2642
 20
-36.2642
 30
0.0000
  9
$EXTMAX
 10
115.2642
 20
60.2642
 30
0.0000
  0
ENDSEC
  0
SECTION
  2
TABLES
  0
TABLE
  2
LTYPE
 70
1
  0
LTYPE
  2
CONTINUOUS
 70
64
  3
Solid line
 72
65
 73
0
 40
0
  0
ENDTAB
  0
TABLE
  2
LAYER
 70
255
  0
LAYER
  2
49
 70
64
 62
80
  6
CONTINUOUS
  0
ENDTAB
  0
ENDSEC
  0
SECTION
  2
BLOCKS
  0
BLOCK
  8
0
  2
RECT
 70
64
 10
0.0000
 20
0.0000
 30
0.0000
  3
RECT
  0
SOLID
  8
0
 10
-0.5000
 20
-0.5000
 30
0.0000
 11
0.5000
 21
-0.5000
 31
0.0000
 12
-0.5000
 22
0.5000
 32
0.0000
 13
0.5000
 23
0.5000
 33
0.0000
  0
ENDBLK
  8
0
  0
BLOCK
  8
0
  2
PIE
 70
64
 10
0.0000
 20
0.0000
 30
0.0000
  3
PIE
  0
POLYLINE
  8
0
 66
1
 10
0.0000
 20
0.0000
 30
0.0000
 40
0.5000
 41
0.5000
 70
0
  0
VERTEX
  8
0
 10
0.0000
 20
-0.2500
 30
0.0000
 42
1.0000
  0
VERTEX
  8
0
 10
0.0000
 20
0.2500
 30
0.0000
 42
1.0000
  0
VERTEX
  8
0
 10
0.0000
 20
-0.2500
 30
0.0000
  0
SEQEND
  8
0
  0
ENDBLK
  8
0
  0
BLOCK
  8
0
  2
OCTAGONP
 70
64
 10
0.0000
 20
0.0000
 30
0.0000
  3
OCTAGONP
  0
POLYLINE
  8
0
 66
1
 10
0.0000
 20
0.0000
 30
0.0000
 40
0.5000
 41
0.5000
 70
0
  0
VERTEX
  8
0
 10
-0.2500
 20
-0.1036
 30
0.0000
  0
VERTEX
  8
0
 10
-0.2500
 20
0.1036
 30
0.0000
  0
VERTEX
  8
0
 10
-0.1036
 20
0.2500
 30
0.0000
  0
VERTEX
  8
0
 10
0.1036
 20
0.2500
 30
0.0000
  0
VERTEX
  8
0
 10
0.2500
 20
0.1036
 30
0.0000
  0
VERTEX
  8
0
 10
0.2500
 20
-0.1036
 30
0.0000
  0
VERTEX
  8
0
 10
0.1036
 20
-0.2500
 30
0.0000
  0
VERTEX
  8
0
 10
-0.1036
 20
-0.2500
 30
0.0000
  0
VERTEX
  8
0
 10
-0.2500
 20
-0.1036
 30
0.0000
  0
VERTEX
  8
0
 10
-0.2500
 20
0.1036
 30
0.0000
  0
SEQEND
  8
0
  0
ENDBLK
  8
0
  0
BLOCK
  8
0
  2
SQUAREP
 70
64
 10
0.0000
 20
0.0000
 30
0.0000
  3
SQUAREP
  0
SOLID
  8
0
 10
-0.5000
 20
-0.5000
 30
0.0000
 11
0.5000
 21
-0.5000
 31
0.0000
 12
-0.5000
 22
0.5000
 32
0.0000
 13
0.5000
 23
0.5000
 33
0.0000
  0
ENDBLK
  8
0
  0
BLOCK
  8
0
  2
ROUNDP
 70
64
 10
0.0000
 20
0.0000
 30
0.0000
  3
ROUNDP
  0
POLYLINE
  8
0
 66
1
 10
0.0000
 20
0.0000
 30
0.0000
 40
0.5000
 41
0.5000
 70
0
  0
VERTEX
  8
0
 10
0.0000
 20
-0.2500
 30
0.0000
 42
1.0000
  0
VERTEX
  8
0
 10
0.0000
 20
0.2500
 30
0.0000
 42
1.0000
  0
VERTEX
  8
0
 10
0.0000
 20
-0.2500
 30
0.0000
  0
SEQEND
  8
0
  0
ENDBLK
  8
0
  0
BLOCK
  8
0
  2
ANNULUSP
 70
64
 10
0.0000
 20
0.0000
 30
0.0000
  3
ANNULUSP
  0
POLYLINE
  8
0
 66
1
 10
0.0000
 20
0.0000
 30
0.0000
 40
0.5000
 41
0.5000
 70
0
  0
VERTEX
  8
0
 10
0.0000
 20
-0.2500
 30
0.0000
 42
1.0000
  0
VERTEX
  8
0
 10
0.0000
 20
0.2500
 30
0.0000
 42
1.0000
  0
VERTEX
  8
0
 10
0.0000
 20
-0.2500
 30
0.0000
  0
SEQEND
  8
0
  0
ENDBLK
  8
0
  0
BLOCK
  8
0
  2
THERMALP
 70
64
 10
0.0000
 20
0.0000
 30
0.0000
  3
THERMALP
  0
POLYLINE
  8
0
 66
1
 10
0.0000
 20
0.0000
 30
0.0000
 40
0.1000
 41
0.1000
 70
0
  0
VERTEX
  8
0
 10
-0.2379
 20
0.4500
 30
0.0000
  0
VERTEX
  8
0
 10
0.2379
 20
0.4500
 30
0.0000
  0
SEQEND
  8
0
  0
POLYLINE
  8
0
 66
1
 10
0.0000
 20
0.0000
 30
0.0000
 40
0.0500
 41
0.0500
 70
0
  0
VERTEX
  8
0
 10
0.2379
 20
0.4250
 30
0.0000
 42
1.0000
  0
VERTEX
  8
0
 10
0.2379
 20
0.4750
 30
0.0000
  0
SEQEND
  8
0
  0
POLYLINE
  8
0
 66
1
 10
0.0000
 20
0.0000
 30
0.0000
 40
0.0500
 41
0.0500
 70
0
  0
VERTEX
  8
0
 10
-0.2379
 20
0.4750
 30
0.0000
 42
1.0000
  0
VERTEX
  8
0
 10
-0.2379
 20
0.4250
 30
0.0000
  0
SEQEND
  8
0
  0
POLYLINE
  8
0
 66
1
 10
0.0000
 20
0.0000
 30
0.0000
 40
0.1000
 41
0.1000
 70
0
  0
VERTEX
  8
0
 10
0.4500
 20
0.2379
 30
0.0000
  0
VERTEX
  8
0
 10
0.4500
 20
-0.2379
 30
0.0000
  0
SEQEND
  8
0
  0
POLYLINE
  8
0
 66
1
 10
0.0000
 20
0.0000
 30
0.0000
 40
0.0500
 41
0.0500
 70
0
  0
VERTEX
  8
0
 10
0.4250
 20
-0.2379
 30
0.0000
 42
1.0000
  0
VERTEX
  8
0
 10
0.4750
 20
-0.2379
 30
0.0000
  0
SEQEND
  8
0
  0
POLYLINE
  8
0
 66
1
 10
0.0000
 20
0.0000
 30
0.0000
 40
0.0500
 41
0.0500
 70
0
  0
VERTEX
  8
0
 10
0.4750
 20
0.2379
 30
0.0000
 42
1.0000
  0
VERTEX
  8
0
 10
0.4250
 20
0.2379
 30
0.0000
  0
SEQEND
  8
0
  0
POLYLINE
  8
0
 66
1
 10
0.0000
 20
0.0000
 30
0.0000
 40
0.1000
 41
0.1000
 70
0
  0
VERTEX
  8
0
 10
0.2379
 20
-0.4500
 30
0.0000
  0
VERTEX
  8
0
 10
-0.2379
 20
-0.4500
 30
0.0000
  0
SEQEND
  8
0
  0
POLYLINE
  8
0
 66
1
 10
0.0000
 20
0.0000
 30
0.0000
 40
0.0500
 41
0.0500
 70
0
  0
VERTEX
  8
0
 10
-0.2379
 20
-0.4250
 30
0.0000
 42
1.0000
  0
VERTEX
  8
0
 10
-0.2379
 20
-0.4750
 30
0.0000
  0
SEQEND
  8
0
  0
POLYLINE
  8
0
 66
1
 10
0.0000
 20
0.0000
 30
0.0000
 40
0.0500
 41
0.0500
 70
0
  0
VERTEX
  8
0
 10
0.2379
 20
-0.4750
 30
0.0000
 42
1.0000
  0
VERTEX
  8
0
 10
0.2379
 20
-0.4250
 30
0.0000
  0
SEQEND
  8
0
  0
POLYLINE
  8
0
 66
1
 10
0.0000
 20
0.0000
 30
0.0000
 40
0.1000
 41
0.1000
 70
0
  0
VERTEX
  8
0
 10
-0.4500
 20
-0.2379
 30
0.0000
  0
VERTEX
  8
0
 10
-0.4500
 20
0.2379
 30
0.0000
  0
SEQEND
  8
0
  0
POLYLINE
  8
0
 66
1
 10
0.0000
 20
0.0000
 30
0.0000
 40
0.0500
 41
0.0500
 70
0
  0
VERTEX
  8
0
 10
-0.4250
 20
0.2379
 30
0.0000
 42
1.0000
  0
VERTEX
  8
0
 10
-0.4750
 20
0.2379
 30
0.0000
  0
SEQEND
  8
0
  0
POLYLINE
  8
0
 66
1
 10
0.0000
 20
0.0000
 30
0.0000
 40
0.0500
 41
0.0500
 70
0
  0
VERTEX
  8
0
 10
-0.4750
 20
-0.2379
 30
0.0000
 42
1.0000
  0
VERTEX
  8
0
 10
-0.4250
 20
-0.2379
 30
0.0000
  0
SEQEND
  8
0
  0
ENDBLK
  8
0
  0
BLOCK
  8
0
  2
OCTAGONV
 70
64
 10
0.0000
 20
0.0000
 30
0.0000
  3
OCTAGONV
  0
POLYLINE
  8
0
 66
1
 10
0.0000
 20
0.0000
 30
0.0000
 40
0.5000
 41
0.5000
 70
0
  0
VERTEX
  8
0
 10
-0.2500
 20
-0.1036
 30
0.0000
  0
VERTEX
  8
0
 10
-0.2500
 20
0.1036
 30
0.0000
  0
VERTEX
  8
0
 10
-0.1036
 20
0.2500
 30
0.0000
  0
VERTEX
  8
0
 10
0.1036
 20
0.2500
 30
0.0000
  0
VERTEX
  8
0
 10
0.2500
 20
0.1036
 30
0.0000
  0
VERTEX
  8
0
 10
0.2500
 20
-0.1036
 30
0.0000
  0
VERTEX
  8
0
 10
0.1036
 20
-0.2500
 30
0.0000
  0
VERTEX
  8
0
 10
-0.1036
 20
-0.2500
 30
0.0000
  0
VERTEX
  8
0
 10
-0.2500
 20
-0.1036
 30
0.0000
  0
VERTEX
  8
0
 10
-0.2500
 20
0.1036
 30
0.0000
  0
SEQEND
  8
0
  0
ENDBLK
  8
0
  0
BLOCK
  8
0
  2
SQUAREV
 70
64
 10
0.0000
 20
0.0000
 30
0.0000
  3
SQUAREV
  0
SOLID
  8
0
 10
-0.5000
 20
-0.5000
 30
0.0000
 11
0.5000
 21
-0.5000
 31
0.0000
 12
-0.5000
 22
0.5000
 32
0.0000
 13
0.5000
 23
0.5000
 33
0.0000
  0
ENDBLK
  8
0
  0
BLOCK
  8
0
  2
ROUNDV
 70
64
 10
0.0000
 20
0.0000
 30
0.0000
  3
ROUNDV
  0
POLYLINE
  8
0
 66
1
 10
0.0000
 20
0.0000
 30
0.0000
 40
0.5000
 41
0.5000
 70
0
  0
VERTEX
  8
0
 10
0.0000
 20
-0.2500
 30
0.0000
 42
1.0000
  0
VERTEX
  8
0
 10
0.0000
 20
0.2500
 30
0.0000
 42
1.0000
  0
VERTEX
  8
0
 10
0.0000
 20
-0.2500
 30
0.0000
  0
SEQEND
  8
0
  0
ENDBLK
  8
0
  0
BLOCK
  8
0
  2
ANNULUSV
 70
64
 10
0.0000
 20
0.0000
 30
0.0000
  3
ANNULUSV
  0
POLYLINE
  8
0
 66
1
 10
0.0000
 20
0.0000
 30
0.0000
 40
0.5000
 41
0.5000
 70
0
  0
VERTEX
  8
0
 10
0.0000
 20
-0.2500
 30
0.0000
 42
1.0000
  0
VERTEX
  8
0
 10
0.0000
 20
0.2500
 30
0.0000
 42
1.0000
  0
VERTEX
  8
0
 10
0.0000
 20
-0.2500
 30
0.0000
  0
SEQEND
  8
0
  0
ENDBLK
  8
0
  0
BLOCK
  8
0
  2
THERMALV
 70
64
 10
0.0000
 20
0.0000
 30
0.0000
  3
THERMALV
  0
POLYLINE
  8
0
 66
1
 10
0.0000
 20
0.0000
 30
0.0000
 40
0.1000
 41
0.1000
 70
0
  0
VERTEX
  8
0
 10
-0.2379
 20
0.4500
 30
0.0000
  0
VERTEX
  8
0
 10
0.2379
 20
0.4500
 30
0.0000
  0
SEQEND
  8
0
  0
POLYLINE
  8
0
 66
1
 10
0.0000
 20
0.0000
 30
0.0000
 40
0.0500
 41
0.0500
 70
0
  0
VERTEX
  8
0
 10
0.2379
 20
0.4250
 30
0.0000
 42
1.0000
  0
VERTEX
  8
0
 10
0.2379
 20
0.4750
 30
0.0000
  0
SEQEND
  8
0
  0
POLYLINE
  8
0
 66
1
 10
0.0000
 20
0.0000
 30
0.0000
 40
0.0500
 41
0.0500
 70
0
  0
VERTEX
  8
0
 10
-0.2379
 20
0.4750
 30
0.0000
 42
1.0000
  0
VERTEX
  8
0
 10
-0.2379
 20
0.4250
 30
0.0000
  0
SEQEND
  8
0
  0
POLYLINE
  8
0
 66
1
 10
0.0000
 20
0.0000
 30
0.0000
 40
0.1000
 41
0.1000
 70
0
  0
VERTEX
  8
0
 10
0.4500
 20
0.2379
 30
0.0000
  0
VERTEX
  8
0
 10
0.4500
 20
-0.2379
 30
0.0000
  0
SEQEND
  8
0
  0
POLYLINE
  8
0
 66
1
 10
0.0000
 20
0.0000
 30
0.0000
 40
0.0500
 41
0.0500
 70
0
  0
VERTEX
  8
0
 10
0.4250
 20
-0.2379
 30
0.0000
 42
1.0000
  0
VERTEX
  8
0
 10
0.4750
 20
-0.2379
 30
0.0000
  0
SEQEND
  8
0
  0
POLYLINE
  8
0
 66
1
 10
0.0000
 20
0.0000
 30
0.0000
 40
0.0500
 41
0.0500
 70
0
  0
VERTEX
  8
0
 10
0.4750
 20
0.2379
 30
0.0000
 42
1.0000
  0
VERTEX
  8
0
 10
0.4250
 20
0.2379
 30
0.0000
  0
SEQEND
  8
0
  0
POLYLINE
  8
0
 66
1
 10
0.0000
 20
0.0000
 30
0.0000
 40
0.1000
 41
0.1000
 70
0
  0
VERTEX
  8
0
 10
0.2379
 20
-0.4500
 30
0.0000
  0
VERTEX
  8
0
 10
-0.2379
 20
-0.4500
 30
0.0000
  0
SEQEND
  8
0
  0
POLYLINE
  8
0
 66
1
 10
0.0000
 20
0.0000
 30
0.0000
 40
0.0500
 41
0.0500
 70
0
  0
VERTEX
  8
0
 10
-0.2379
 20
-0.4250
 30
0.0000
 42
1.0000
  0
VERTEX
  8
0
 10
-0.2379
 20
-0.4750
 30
0.0000
  0
SEQEND
  8
0
  0
POLYLINE
  8
0
 66
1
 10
0.0000
 20
0.0000
 30
0.0000
 40
0.0500
 41
0.0500
 70
0
  0
VERTEX
  8
0
 10
0.2379
 20
-0.4750
 30
0.0000
 42
1.0000
  0
VERTEX
  8
0
 10
0.2379
 20
-0.4250
 30
0.0000
  0
SEQEND
  8
0
  0
POLYLINE
  8
0
 66
1
 10
0.0000
 20
0.0000
 30
0.0000
 40
0.1000
 41
0.1000
 70
0
  0
VERTEX
  8
0
 10
-0.4500
 20
-0.2379
 30
0.0000
  0
VERTEX
  8
0
 10
-0.4500
 20
0.2379
 30
0.0000
  0
SEQEND
  8
0
  0
POLYLINE
  8
0
 66
1
 10
0.0000
 20
0.0000
 30
0.0000
 40
0.0500
 41
0.0500
 70
0
  0
VERTEX
  8
0
 10
-0.4250
 20
0.2379
 30
0.0000
 42
1.0000
  0
VERTEX
  8
0
 10
-0.4750
 20
0.2379
 30
0.0000
  0
SEQEND
  8
0
  0
POLYLINE
  8
0
 66
1
 10
0.0000
 20
0.0000
 30
0.0000
 40
0.0500
 41
0.0500
 70
0
  0
VERTEX
  8
0
 10
-0.4750
 20
-0.2379
 30
0.0000
 42
1.0000
  0
VERTEX
  8
0
 10
-0.4250
 20
-0.2379
 30
0.0000
  0
SEQEND
  8
0
  0
ENDBLK
  8
0
  0
ENDSEC
  0
SECTION
  2
ENTITIES
  0
POLYLINE
  8
49
 66
1
 10
0.0000
 20
0.0000
 30
0.0000
 40
0.0762
 41
0.0762
 70
0
  0
VERTEX
  8
49
 10
0.0000
 20
0.0000
 30
0.0000
  0
VERTEX
  8
49
 10
0.0000
 20
25.0000
 30
0.0000
  0
SEQEND
  8
0
  0
POLYLINE
  8
49
 66
1
 10
0.0000
 20
0.0000
 30
0.0000
 40
0.0381
 41
0.0381
 70
0
  0
VERTEX
  8
49
 10
0.0191
 20
25.0000
 30
0.0000
 42
1.0000
  0
VERTEX
  8
49
 10
-0.0191
 20
25.0000
 30
0.0000
  0
SEQEND
  8
0
  0
POLYLINE
  8
49
 66
1
 10
0.0000
 20
0.0000
 30
0.0000
 40
0.0381
 41
0.0381
 70
0
  0
VERTEX
  8
49
 10
-0.0191
 20
0.0000
 30
0.0000
 42
1.0000
  0
VERTEX
  8
49
 10
0.0191
 20
0.0000
 30
0.0000
  0
SEQEND
  8
0
  0
POLYLINE
  8
49
 66
1
 10
0.0000
 20
0.0000
 30
0.0000
 40
0.0762
 41
0.0762
 70
0
  0
VERTEX
  8
49
 10
0.0000
 20
25.0000
 30
0.0000
  0
VERTEX
  8
49
 10
84.0000
 20
25.0000
 30
0.0000
  0
SEQEND
  8
0
  0
POLYLINE
  8
49
 66
1
 10
0.0000
 20
0.0000
 30
0.0000
 40
0.0381
 41
0.0381
 70
0
  0
VERTEX
  8
49
 10
84.0000
 20
24.9809
 30
0.0000
 42
1.0000
  0
VERTEX
  8
49
 10
84.0000
 20
25.0191
 30
0.0000
  0
SEQEND
  8
0
  0
POLYLINE
  8
49
 66
1
 10
0.0000
 20
0.0000
 30
0.0000
 40
0.0381
 41
0.0381
 70
0
  0
VERTEX
  8
49
 10
0.0000
 20
25.0191
 30
0.0000
 42
1.0000
  0
VERTEX
  8
49
 10
0.0000
 20
24.9809
 30
0.0000
  0
SEQEND
  8
0
  0
POLYLINE
  8
49
 66
1
 10
0.0000
 20
0.0000
 30
0.0000
 40
0.0762
 41
0.0762
 70
0
  0
VERTEX
  8
49
 10
84.0000
 20
25.0000
 30
0.0000
  0
VERTEX
  8
49
 10
84.0000
 20
8.7000
 30
0.0000
  0
SEQEND
  8
0
  0
POLYLINE
  8
49
 66
1
 10
0.0000
 20
0.0000
 30
0.0000
 40
0.0381
 41
0.0381
 70
0
  0
VERTEX
  8
49
 10
83.9810
 20
8.7000
 30
0.0000
 42
1.0000
  0
VERTEX
  8
49
 10
84.0190
 20
8.7000
 30
0.0000
  0
SEQEND
  8
0
  0
POLYLINE
  8
49
 66
1
 10
0.0000
 20
0.0000
 30
0.0000
 40
0.0381
 41
0.0381
 70
0
  0
VERTEX
  8
49
 10
84.0190
 20
25.0000
 30
0.0000
 42
1.0000
  0
VERTEX
  8
49
 10
83.9810
 20
25.0000
 30
0.0000
  0
SEQEND
  8
0
  0
POLYLINE
  8
49
 66
1
 10
0.0000
 20
0.0000
 30
0.0000
 40
0.0762
 41
0.0762
 70
0
  0
VERTEX
  8
49
 10
84.0000
 20
8.7000
 30
0.0000
  0
VERTEX
  8
49
 10
84.0000
 20
0.0000
 30
0.0000
  0
SEQEND
  8
0
  0
POLYLINE
  8
49
 66
1
 10
0.0000
 20
0.0000
 30
0.0000
 40
0.0381
 41
0.0381
 70
0
  0
VERTEX
  8
49
 10
83.9810
 20
0.0000
 30
0.0000
 42
1.0000
  0
VERTEX
  8
49
 10
84.0190
 20
0.0000
 30
0.0000
  0
SEQEND
  8
0
  0
POLYLINE
  8
49
 66
1
 10
0.0000
 20
0.0000
 30
0.0000
 40
0.0381
 41
0.0381
 70
0
  0
VERTEX
  8
49
 10
84.0190
 20
8.7000
 30
0.0000
 42
1.0000
  0
VERTEX
  8
49
 10
83.9810
 20
8.7000
 30
0.0000
  0
SEQEND
  8
0
  0
POLYLINE
  8
49
 66
1
 10
0.0000
 20
0.0000
 30
0.0000
 40
0.0762
 41
0.0762
 70
0
  0
VERTEX
  8
49
 10
84.0000
 20
0.0000
 30
0.0000
  0
VERTEX
  8
49
 10
74.0000
 20
0.0000
 30
0.0000
  0
SEQEND
  8
0
  0
POLYLINE
  8
49
 66
1
 10
0.0000
 20
0.0000
 30
0.0000
 40
0.0381
 41
0.0381
 70
0
  0
VERTEX
  8
49
 10
74.0000
 20
0.0191
 30
0.0000
 42
1.0000
  0
VERTEX
  8
49
 10
74.0000
 20
-0.0191
 30
0.0000
  0
SEQEND
  8
0
  0
POLYLINE
  8
49
 66
1
 10
0.0000
 20
0.0000
 30
0.0000
 40
0.0381
 41
0.0381
 70
0
  0
VERTEX
  8
49
 10
84.0000
 20
-0.0191
 30
0.0000
 42
1.0000
  0
VERTEX
  8
49
 10
84.0000
 20
0.0191
 30
0.0000
  0
SEQEND
  8
0
  0
POLYLINE
  8
49
 66
1
 10
0.0000
 20
0.0000
 30
0.0000
 40
0.0762
 41
0.0762
 70
0
  0
VERTEX
  8
49
 10
74.0000
 20
0.0000
 30
0.0000
  0
VERTEX
  8
49
 10
0.0000
 20
0.0000
 30
0.0000
  0
SEQEND
  8
0
  0
POLYLINE
  8
49
 66
1
 10
0.0000
 20
0.0000
 30
0.0000
 40
0.0381
 41
0.0381
 70
0
  0
VERTEX
  8
49
 10
0.0000
 20
0.0191
 30
0.0000
 42
1.0000
  0
VERTEX
  8
49
 10
0.0000
 20
-0.0191
 30
0.0000
  0
SEQEND
  8
0
  0
POLYLINE
  8
49
 66
1
 10
0.0000
 20
0.0000
 30
0.0000
 40
0.0381
 41
0.0381
 70
0
  0
VERTEX
  8
49
 10
74.0000
 20
-0.0191
 30
0.0000
 42
1.0000
  0
VERTEX
  8
49
 10
74.0000
 20
0.0191
 30
0.0000
  0
SEQEND
  8
0
  0
POLYLINE
  8
49
 66
1
 10
0.0000
 20
0.0000
 30
0.0000
 40
0.0762
 41
0.0762
 70
0
  0
VERTEX
  8
49
 10
55.7000
 20
11.5000
 30
0.0000
  0
VERTEX
  8
49
 10
65.7000
 20
11.5000
 30
0.0000
  0
SEQEND
  8
0
  0
POLYLINE
  8
49
 66
1
 10
0.0000
 20
0.0000
 30
0.0000
 40
0.0381
 41
0.0381
 70
0
  0
VERTEX
  8
49
 10
65.7000
 20
11.4809
 30
0.0000
 42
1.0000
  0
VERTEX
  8
49
 10
65.7000
 20
11.5191
 30
0.0000
  0
SEQEND
  8
0
  0
POLYLINE
  8
49
 66
1
 10
0.0000
 20
0.0000
 30
0.0000
 40
0.0381
 41
0.0381
 70
0
  0
VERTEX
  8
49
 10
55.7000
 20
11.5191
 30
0.0000
 42
1.0000
  0
VERTEX
  8
49
 10
55.7000
 20
11.4809
 30
0.0000
  0
SEQEND
  8
0
  0
POLYLINE
  8
49
 66
1
 10
0.0000
 20
0.0000
 30
0.0000
 40
0.0762
 41
0.0762
 70
0
  0
VERTEX
  8
49
 10
65.7000
 20
11.5000
 30
0.0000
  0
VERTEX
  8
49
 10
65.7000
 20
0.5000
 30
0.0000
  0
SEQEND
  8
0
  0
POLYLINE
  8
49
 66
1
 10
0.0000
 20
0.0000
 30
0.0000
 40
0.0381
 41
0.0381
 70
0
  0
VERTEX
  8
49
 10
65.6810
 20
0.5000
 30
0.0000
 42
1.0000
  0
VERTEX
  8
49
 10
65.7190
 20
0.5000
 30
0.0000
  0
SEQEND
  8
0
  0
POLYLINE
  8
49
 66
1
 10
0.0000
 20
0.0000
 30
0.0000
 40
0.0381
 41
0.0381
 70
0
  0
VERTEX
  8
49
 10
65.7190
 20
11.5000
 30
0.0000
 42
1.0000
  0
VERTEX
  8
49
 10
65.6810
 20
11.5000
 30
0.0000
  0
SEQEND
  8
0
  0
POLYLINE
  8
49
 66
1
 10
0.0000
 20
0.0000
 30
0.0000
 40
0.0762
 41
0.0762
 70
0
  0
VERTEX
  8
49
 10
65.7000
 20
0.5000
 30
0.0000
  0
VERTEX
  8
49
 10
55.7000
 20
0.5000
 30
0.0000
  0
SEQEND
  8
0
  0
POLYLINE
  8
49
 66
1
 10
0.0000
 20
0.0000
 30
0.0000
 40
0.0381
 41
0.0381
 70
0
  0
VERTEX
  8
49
 10
55.7000
 20
0.5191
 30
0.0000
 42
1.0000
  0
VERTEX
  8
49
 10
55.7000
 20
0.4809
 30
0.0000
  0
SEQEND
  8
0
  0
POLYLINE
  8
49
 66
1
 10
0.0000
 20
0.0000
 30
0.0000
 40
0.0381
 41
0.0381
 70
0
  0
VERTEX
  8
49
 10
65.7000
 20
0.4809
 30
0.0000
 42
1.0000
  0
VERTEX
  8
49
 10
65.7000
 20
0.5191
 30
0.0000
  0
SEQEND
  8
0
  0
POLYLINE
  8
49
 66
1
 10
0.0000
 20
0.0000
 30
0.0000
 40
0.0762
 41
0.0762
 70
0
  0
VERTEX
  8
49
 10
55.7000
 20
0.5000
 30
0.0000
  0
VERTEX
  8
49
 10
55.7000
 20
11.5000
 30
0.0000
  0
SEQEND
  8
0
  0
POLYLINE
  8
49
 66
1
 10
0.0000
 20
0.0000
 30
0.0000
 40
0.0381
 41
0.0381
 70
0
  0
VERTEX
  8
49
 10
55.7191
 20
11.5000
 30
0.0000
 42
1.0000
  0
VERTEX
  8
49
 10
55.6810
 20
11.5000
 30
0.0000
  0
SEQEND
  8
0
  0
POLYLINE
  8
49
 66
1
 10
0.0000
 20
0.0000
 30
0.0000
 40
0.0381
 41
0.0381
 70
0
  0
VERTEX
  8
49
 10
55.6810
 20
0.5000
 30
0.0000
 42
1.0000
  0
VERTEX
  8
49
 10
55.7191
 20
0.5000
 30
0.0000
  0
SEQEND
  8
0
  0
POLYLINE
  8
49
 66
1
 10
0.0000
 20
0.0000
 30
0.0000
 40
0.0762
 41
0.0762
 70
0
  0
VERTEX
  8
49
 10
84.0000
 20
8.7000
 30
0.0000
  0
VERTEX
  8
49
 10
74.0000
 20
8.7000
 30
0.0000
  0
SEQEND
  8
0
  0
POLYLINE
  8
49
 66
1
 10
0.0000
 20
0.0000
 30
0.0000
 40
0.0381
 41
0.0381
 70
0
  0
VERTEX
  8
49
 10
74.0000
 20
8.7191
 30
0.0000
 42
1.0000
  0
VERTEX
  8
49
 10
74.0000
 20
8.6810
 30
0.0000
  0
SEQEND
  8
0
  0
POLYLINE
  8
49
 66
1
 10
0.0000
 20
0.0000
 30
0.0000
 40
0.0381
 41
0.0381
 70
0
  0
VERTEX
  8
49
 10
84.0000
 20
8.6810
 30
0.0000
 42
1.0000
  0
VERTEX
  8
49
 10
84.0000
 20
8.7191
 30
0.0000
  0
SEQEND
  8
0
  0
POLYLINE
  8
49
 66
1
 10
0.0000
 20
0.0000
 30
0.0000
 40
0.0762
 41
0.0762
 70
0
  0
VERTEX
  8
49
 10
74.0000
 20
8.7000
 30
0.0000
  0
VERTEX
  8
49
 10
74.0000
 20
0.0000
 30
0.0000
  0
SEQEND
  8
0
  0
POLYLINE
  8
49
 66
1
 10
0.0000
 20
0.0000
 30
0.0000
 40
0.0381
 41
0.0381
 70
0
  0
VERTEX
  8
49
 10
73.9810
 20
0.0000
 30
0.0000
 42
1.0000
  0
VERTEX
  8
49
 10
74.0190
 20
0.0000
 30
0.0000
  0
SEQEND
  8
0
  0
POLYLINE
  8
49
 66
1
 10
0.0000
 20
0.0000
 30
0.0000
 40
0.0381
 41
0.0381
 70
0
  0
VERTEX
  8
49
 10
74.0190
 20
8.7000
 30
0.0000
 42
1.0000
  0
VERTEX
  8
49
 10
73.9810
 20
8.7000
 30
0.0000
  0
SEQEND
  8
0
  0
POLYLINE
  8
49
 66
1
 10
0.0000
 20
0.0000
 30
0.0000
 40
0.0762
 41
0.0762
 70
0
  0
VERTEX
  8
49
 10
35.9000
 20
21.0000
 30
0.0000
  0
VERTEX
  8
49
 10
39.7000
 20
21.0000
 30
0.0000
  0
SEQEND
  8
0
  0
POLYLINE
  8
49
 66
1
 10
0.0000
 20
0.0000
 30
0.0000
 40
0.0381
 41
0.0381
 70
0
  0
VERTEX
  8
49
 10
39.7000
 20
20.9809
 30
0.0000
 42
1.0000
  0
VERTEX
  8
49
 10
39.7000
 20
21.0191
 30
0.0000
  0
SEQEND
  8
0
  0
POLYLINE
  8
49
 66
1
 10
0.0000
 20
0.0000
 30
0.0000
 40
0.0381
 41
0.0381
 70
0
  0
VERTEX
  8
49
 10
35.9000
 20
21.0191
 30
0.0000
 42
1.0000
  0
VERTEX
  8
49
 10
35.9000
 20
20.9809
 30
0.0000
  0
SEQEND
  8
0
  0
POLYLINE
  8
49
 66
1
 10
0.0000
 20
0.0000
 30
0.0000
 40
0.0762
 41
0.0762
 70
0
  0
VERTEX
  8
49
 10
39.7000
 20
21.0000
 30
0.0000
  0
VERTEX
  8
49
 10
39.7000
 20
17.2000
 30
0.0000
  0
SEQEND
  8
0
  0
POLYLINE
  8
49
 66
1
 10
0.0000
 20
0.0000
 30
0.0000
 40
0.0381
 41
0.0381
 70
0
  0
VERTEX
  8
49
 10
39.6810
 20
17.2000
 30
0.0000
 42
1.0000
  0
VERTEX
  8
49
 10
39.7191
 20
17.2000
 30
0.0000
  0
SEQEND
  8
0
  0
POLYLINE
  8
49
 66
1
 10
0.0000
 20
0.0000
 30
0.0000
 40
0.0381
 41
0.0381
 70
0
  0
VERTEX
  8
49
 10
39.7191
 20
21.0000
 30
0.0000
 42
1.0000
  0
VERTEX
  8
49
 10
39.6810
 20
21.0000
 30
0.0000
  0
SEQEND
  8
0
  0
POLYLINE
  8
49
 66
1
 10
0.0000
 20
0.0000
 30
0.0000
 40
0.0762
 41
0.0762
 70
0
  0
VERTEX
  8
49
 10
39.7000
 20
17.2000
 30
0.0000
  0
VERTEX
  8
49
 10
35.9000
 20
17.2000
 30
0.0000
  0
SEQEND
  8
0
  0
POLYLINE
  8
49
 66
1
 10
0.0000
 20
0.0000
 30
0.0000
 40
0.0381
 41
0.0381
 70
0
  0
VERTEX
  8
49
 10
35.9000
 20
17.2190
 30
0.0000
 42
1.0000
  0
VERTEX
  8
49
 10
35.9000
 20
17.1809
 30
0.0000
  0
SEQEND
  8
0
  0
POLYLINE
  8
49
 66
1
 10
0.0000
 20
0.0000
 30
0.0000
 40
0.0381
 41
0.0381
 70
0
  0
VERTEX
  8
49
 10
39.7000
 20
17.1809
 30
0.0000
 42
1.0000
  0
VERTEX
  8
49
 10
39.7000
 20
17.2190
 30
0.0000
  0
SEQEND
  8
0
  0
POLYLINE
  8
49
 66
1
 10
0.0000
 20
0.0000
 30
0.0000
 40
0.0762
 41
0.0762
 70
0
  0
VERTEX
  8
49
 10
35.9000
 20
17.2000
 30
0.0000
  0
VERTEX
  8
49
 10
35.9000
 20
21.0000
 30
0.0000
  0
SEQEND
  8
0
  0
POLYLINE
  8
49
 66
1
 10
0.0000
 20
0.0000
 30
0.0000
 40
0.0381
 41
0.0381
 70
0
  0
VERTEX
  8
49
 10
35.9190
 20
21.0000
 30
0.0000
 42
1.0000
  0
VERTEX
  8
49
 10
35.8809
 20
21.0000
 30
0.0000
  0
SEQEND
  8
0
  0
POLYLINE
  8
49
 66
1
 10
0.0000
 20
0.0000
 30
0.0000
 40
0.0381
 41
0.0381
 70
0
  0
VERTEX
  8
49
 10
35.8809
 20
17.2000
 30
0.0000
 42
1.0000
  0
VERTEX
  8
49
 10
35.9190
 20
17.2000
 30
0.0000
  0
SEQEND
  8
0
  0
POLYLINE
  8
49
 66
1
 10
0.0000
 20
0.0000
 30
0.0000
 40
0.0762
 41
0.0762
 70
0
  0
VERTEX
  8
49
 10
35.7000
 20
9.0000
 30
0.0000
  0
VERTEX
  8
49
 10
39.5000
 20
9.0000
 30
0.0000
  0
SEQEND
  8
0
  0
POLYLINE
  8
49
 66
1
 10
0.0000
 20
0.0000
 30
0.0000
 40
0.0381
 41
0.0381
 70
0
  0
VERTEX
  8
49
 10
39.5000
 20
8.9809
 30
0.0000
 42
1.0000
  0
VERTEX
  8
49
 10
39.5000
 20
9.0191
 30
0.0000
  0
SEQEND
  8
0
  0
POLYLINE
  8
49
 66
1
 10
0.0000
 20
0.0000
 30
0.0000
 40
0.0381
 41
0.0381
 70
0
  0
VERTEX
  8
49
 10
35.7000
 20
9.0191
 30
0.0000
 42
1.0000
  0
VERTEX
  8
49
 10
35.7000
 20
8.9809
 30
0.0000
  0
SEQEND
  8
0
  0
POLYLINE
  8
49
 66
1
 10
0.0000
 20
0.0000
 30
0.0000
 40
0.0762
 41
0.0762
 70
0
  0
VERTEX
  8
49
 10
39.5000
 20
9.0000
 30
0.0000
  0
VERTEX
  8
49
 10
39.5000
 20
5.2000
 30
0.0000
  0
SEQEND
  8
0
  0
POLYLINE
  8
49
 66
1
 10
0.0000
 20
0.0000
 30
0.0000
 40
0.0381
 41
0.0381
 70
0
  0
VERTEX
  8
49
 10
39.4809
 20
5.2000
 30
0.0000
 42
1.0000
  0
VERTEX
  8
49
 10
39.5191
 20
5.2000
 30
0.0000
  0
SEQEND
  8
0
  0
POLYLINE
  8
49
 66
1
 10
0.0000
 20
0.0000
 30
0.0000
 40
0.0381
 41
0.0381
 70
0
  0
VERTEX
  8
49
 10
39.5191
 20
9.0000
 30
0.0000
 42
1.0000
  0
VERTEX
  8
49
 10
39.4809
 20
9.0000
 30
0.0000
  0
SEQEND
  8
0
  0
POLYLINE
  8
49
 66
1
 10
0.0000
 20
0.0000
 30
0.0000
 40
0.0762
 41
0.0762
 70
0
  0
VERTEX
  8
49
 10
39.5000
 20
5.2000
 30
0.0000
  0
VERTEX
  8
49
 10
35.7000
 20
5.2000
 30
0.0000
  0
SEQEND
  8
0
  0
POLYLINE
  8
49
 66
1
 10
0.0000
 20
0.0000
 30
0.0000
 40
0.0381
 41
0.0381
 70
0
  0
VERTEX
  8
49
 10
35.7000
 20
5.2191
 30
0.0000
 42
1.0000
  0
VERTEX
  8
49
 10
35.7000
 20
5.1810
 30
0.0000
  0
SEQEND
  8
0
  0
POLYLINE
  8
49
 66
1
 10
0.0000
 20
0.0000
 30
0.0000
 40
0.0381
 41
0.0381
 70
0
  0
VERTEX
  8
49
 10
39.5000
 20
5.1810
 30
0.0000
 42
1.0000
  0
VERTEX
  8
49
 10
39.5000
 20
5.2191
 30
0.0000
  0
SEQEND
  8
0
  0
POLYLINE
  8
49
 66
1
 10
0.0000
 20
0.0000
 30
0.0000
 40
0.0762
 41
0.0762
 70
0
  0
VERTEX
  8
49
 10
35.7000
 20
5.2000
 30
0.0000
  0
VERTEX
  8
49
 10
35.7000
 20
9.0000
 30
0.0000
  0
SEQEND
  8
0
  0
POLYLINE
  8
49
 66
1
 10
0.0000
 20
0.0000
 30
0.0000
 40
0.0381
 41
0.0381
 70
0
  0
VERTEX
  8
49
 10
35.7191
 20
9.0000
 30
0.0000
 42
1.0000
  0
VERTEX
  8
49
 10
35.6810
 20
9.0000
 30
0.0000
  0
SEQEND
  8
0
  0
POLYLINE
  8
49
 66
1
 10
0.0000
 20
0.0000
 30
0.0000
 40
0.0381
 41
0.0381
 70
0
  0
VERTEX
  8
49
 10
35.6810
 20
5.2000
 30
0.0000
 42
1.0000
  0
VERTEX
  8
49
 10
35.7191
 20
5.2000
 30
0.0000
  0
SEQEND
  8
0
  0
POLYLINE
  8
49
 66
1
 10
0.0000
 20
0.0000
 30
0.0000
 40
0.0762
 41
0.0762
 70
0
  0
VERTEX
  8
49
 10
63.2000
 20
23.0000
 30
0.0000
  0
VERTEX
  8
49
 10
63.2000
 20
20.5000
 30
0.0000
  0
SEQEND
  8
0
  0
POLYLINE
  8
49
 66
1
 10
0.0000
 20
0.0000
 30
0.0000
 40
0.0381
 41
0.0381
 70
0
  0
VERTEX
  8
49
 10
63.1810
 20
20.5000
 30
0.0000
 42
1.0000
  0
VERTEX
  8
49
 10
63.2191
 20
20.5000
 30
0.0000
  0
SEQEND
  8
0
  0
POLYLINE
  8
49
 66
1
 10
0.0000
 20
0.0000
 30
0.0000
 40
0.0381
 41
0.0381
 70
0
  0
VERTEX
  8
49
 10
63.2191
 20
23.0000
 30
0.0000
 42
1.0000
  0
VERTEX
  8
49
 10
63.1810
 20
23.0000
 30
0.0000
  0
SEQEND
  8
0
  0
POLYLINE
  8
49
 66
1
 10
0.0000
 20
0.0000
 30
0.0000
 40
0.0762
 41
0.0762
 70
0
  0
VERTEX
  8
49
 10
63.2000
 20
20.5000
 30
0.0000
  0
VERTEX
  8
49
 10
67.6000
 20
20.5000
 30
0.0000
  0
SEQEND
  8
0
  0
POLYLINE
  8
49
 66
1
 10
0.0000
 20
0.0000
 30
0.0000
 40
0.0381
 41
0.0381
 70
0
  0
VERTEX
  8
49
 10
67.6000
 20
20.4809
 30
0.0000
 42
1.0000
  0
VERTEX
  8
49
 10
67.6000
 20
20.5191
 30
0.0000
  0
SEQEND
  8
0
  0
POLYLINE
  8
49
 66
1
 10
0.0000
 20
0.0000
 30
0.0000
 40
0.0381
 41
0.0381
 70
0
  0
VERTEX
  8
49
 10
63.2000
 20
20.5191
 30
0.0000
 42
1.0000
  0
VERTEX
  8
49
 10
63.2000
 20
20.4809
 30
0.0000
  0
SEQEND
  8
0
  0
POLYLINE
  8
49
 66
1
 10
0.0000
 20
0.0000
 30
0.0000
 40
0.0762
 41
0.0762
 70
0
  0
VERTEX
  8
49
 10
67.6000
 20
20.5000
 30
0.0000
  0
VERTEX
  8
49
 10
67.6000
 20
23.0000
 30
0.0000
  0
SEQEND
  8
0
  0
POLYLINE
  8
49
 66
1
 10
0.0000
 20
0.0000
 30
0.0000
 40
0.0381
 41
0.0381
 70
0
  0
VERTEX
  8
49
 10
67.6191
 20
23.0000
 30
0.0000
 42
1.0000
  0
VERTEX
  8
49
 10
67.5810
 20
23.0000
 30
0.0000
  0
SEQEND
  8
0
  0
POLYLINE
  8
49
 66
1
 10
0.0000
 20
0.0000
 30
0.0000
 40
0.0381
 41
0.0381
 70
0
  0
VERTEX
  8
49
 10
67.5810
 20
20.5000
 30
0.0000
 42
1.0000
  0
VERTEX
  8
49
 10
67.6191
 20
20.5000
 30
0.0000
  0
SEQEND
  8
0
  0
POLYLINE
  8
49
 66
1
 10
0.0000
 20
0.0000
 30
0.0000
 40
0.0762
 41
0.0762
 70
0
  0
VERTEX
  8
49
 10
67.6000
 20
23.0000
 30
0.0000
  0
VERTEX
  8
49
 10
63.2000
 20
23.0000
 30
0.0000
  0
SEQEND
  8
0
  0
POLYLINE
  8
49
 66
1
 10
0.0000
 20
0.0000
 30
0.0000
 40
0.0381
 41
0.0381
 70
0
  0
VERTEX
  8
49
 10
63.2000
 20
23.0191
 30
0.0000
 42
1.0000
  0
VERTEX
  8
49
 10
63.2000
 20
22.9809
 30
0.0000
  0
SEQEND
  8
0
  0
POLYLINE
  8
49
 66
1
 10
0.0000
 20
0.0000
 30
0.0000
 40
0.0381
 41
0.0381
 70
0
  0
VERTEX
  8
49
 10
67.6000
 20
22.9809
 30
0.0000
 42
1.0000
  0
VERTEX
  8
49
 10
67.6000
 20
23.0191
 30
0.0000
  0
SEQEND
  8
0
  0
POLYLINE
  8
49
 66
1
 10
0.0000
 20
0.0000
 30
0.0000
 40
0.0762
 41
0.0762
 70
0
  0
VERTEX
  8
49
 10
72.5000
 20
13.7000
 30
0.0000
  0
VERTEX
  8
49
 10
74.5000
 20
13.7000
 30
0.0000
  0
SEQEND
  8
0
  0
POLYLINE
  8
49
 66
1
 10
0.0000
 20
0.0000
 30
0.0000
 40
0.0381
 41
0.0381
 70
0
  0
VERTEX
  8
49
 10
74.5000
 20
13.6810
 30
0.0000
 42
1.0000
  0
VERTEX
  8
49
 10
74.5000
 20
13.7191
 30
0.0000
  0
SEQEND
  8
0
  0
POLYLINE
  8
49
 66
1
 10
0.0000
 20
0.0000
 30
0.0000
 40
0.0381
 41
0.0381
 70
0
  0
VERTEX
  8
49
 10
72.5000
 20
13.7191
 30
0.0000
 42
1.0000
  0
VERTEX
  8
49
 10
72.5000
 20
13.6810
 30
0.0000
  0
SEQEND
  8
0
  0
POLYLINE
  8
49
 66
1
 10
0.0000
 20
0.0000
 30
0.0000
 40
0.0762
 41
0.0762
 70
0
  0
VERTEX
  8
49
 10
74.5000
 20
13.7000
 30
0.0000
  0
VERTEX
  8
49
 10
74.5000
 20
11.7000
 30
0.0000
  0
SEQEND
  8
0
  0
POLYLINE
  8
49
 66
1
 10
0.0000
 20
0.0000
 30
0.0000
 40
0.0381
 41
0.0381
 70
0
  0
VERTEX
  8
49
 10
74.4810
 20
11.7000
 30
0.0000
 42
1.0000
  0
VERTEX
  8
49
 10
74.5190
 20
11.7000
 30
0.0000
  0
SEQEND
  8
0
  0
POLYLINE
  8
49
 66
1
 10
0.0000
 20
0.0000
 30
0.0000
 40
0.0381
 41
0.0381
 70
0
  0
VERTEX
  8
49
 10
74.5190
 20
13.7000
 30
0.0000
 42
1.0000
  0
VERTEX
  8
49
 10
74.4810
 20
13.7000
 30
0.0000
  0
SEQEND
  8
0
  0
POLYLINE
  8
49
 66
1
 10
0.0000
 20
0.0000
 30
0.0000
 40
0.0762
 41
0.0762
 70
0
  0
VERTEX
  8
49
 10
74.5000
 20
11.7000
 30
0.0000
  0
VERTEX
  8
49
 10
72.5000
 20
11.7000
 30
0.0000
  0
SEQEND
  8
0
  0
POLYLINE
  8
49
 66
1
 10
0.0000
 20
0.0000
 30
0.0000
 40
0.0381
 41
0.0381
 70
0
  0
VERTEX
  8
49
 10
72.5000
 20
11.7191
 30
0.0000
 42
1.0000
  0
VERTEX
  8
49
 10
72.5000
 20
11.6810
 30
0.0000
  0
SEQEND
  8
0
  0
POLYLINE
  8
49
 66
1
 10
0.0000
 20
0.0000
 30
0.0000
 40
0.0381
 41
0.0381
 70
0
  0
VERTEX
  8
49
 10
74.5000
 20
11.6810
 30
0.0000
 42
1.0000
  0
VERTEX
  8
49
 10
74.5000
 20
11.7191
 30
0.0000
  0
SEQEND
  8
0
  0
POLYLINE
  8
49
 66
1
 10
0.0000
 20
0.0000
 30
0.0000
 40
0.0762
 41
0.0762
 70
0
  0
VERTEX
  8
49
 10
72.5000
 20
11.7000
 30
0.0000
  0
VERTEX
  8
49
 10
72.5000
 20
13.7000
 30
0.0000
  0
SEQEND
  8
0
  0
POLYLINE
  8
49
 66
1
 10
0.0000
 20
0.0000
 30
0.0000
 40
0.0381
 41
0.0381
 70
0
  0
VERTEX
  8
49
 10
72.5190
 20
13.7000
 30
0.0000
 42
1.0000
  0
VERTEX
  8
49
 10
72.4810
 20
13.7000
 30
0.0000
  0
SEQEND
  8
0
  0
POLYLINE
  8
49
 66
1
 10
0.0000
 20
0.0000
 30
0.0000
 40
0.0381
 41
0.0381
 70
0
  0
VERTEX
  8
49
 10
72.4810
 20
11.7000
 30
0.0000
 42
1.0000
  0
VERTEX
  8
49
 10
72.5190
 20
11.7000
 30
0.0000
  0
SEQEND
  8
0
  0
POLYLINE
  8
49
 66
1
 10
0.0000
 20
0.0000
 30
0.0000
 40
0.0762
 41
0.0762
 70
0
  0
VERTEX
  8
49
 10
63.7000
 20
18.6000
 30
0.0000
  0
VERTEX
  8
49
 10
65.7000
 20
18.6000
 30
0.0000
  0
SEQEND
  8
0
  0
POLYLINE
  8
49
 66
1
 10
0.0000
 20
0.0000
 30
0.0000
 40
0.0381
 41
0.0381
 70
0
  0
VERTEX
  8
49
 10
65.7000
 20
18.5810
 30
0.0000
 42
1.0000
  0
VERTEX
  8
49
 10
65.7000
 20
18.6191
 30
0.0000
  0
SEQEND
  8
0
  0
POLYLINE
  8
49
 66
1
 10
0.0000
 20
0.0000
 30
0.0000
 40
0.0381
 41
0.0381
 70
0
  0
VERTEX
  8
49
 10
63.7000
 20
18.6191
 30
0.0000
 42
1.0000
  0
VERTEX
  8
49
 10
63.7000
 20
18.5810
 30
0.0000
  0
SEQEND
  8
0
  0
POLYLINE
  8
49
 66
1
 10
0.0000
 20
0.0000
 30
0.0000
 40
0.0762
 41
0.0762
 70
0
  0
VERTEX
  8
49
 10
65.7000
 20
18.6000
 30
0.0000
  0
VERTEX
  8
49
 10
65.7000
 20
16.6000
 30
0.0000
  0
SEQEND
  8
0
  0
POLYLINE
  8
49
 66
1
 10
0.0000
 20
0.0000
 30
0.0000
 40
0.0381
 41
0.0381
 70
0
  0
VERTEX
  8
49
 10
65.6810
 20
16.6000
 30
0.0000
 42
1.0000
  0
VERTEX
  8
49
 10
65.7190
 20
16.6000
 30
0.0000
  0
SEQEND
  8
0
  0
POLYLINE
  8
49
 66
1
 10
0.0000
 20
0.0000
 30
0.0000
 40
0.0381
 41
0.0381
 70
0
  0
VERTEX
  8
49
 10
65.7190
 20
18.6000
 30
0.0000
 42
1.0000
  0
VERTEX
  8
49
 10
65.6810
 20
18.6000
 30
0.0000
  0
SEQEND
  8
0
  0
POLYLINE
  8
49
 66
1
 10
0.0000
 20
0.0000
 30
0.0000
 40
0.0762
 41
0.0762
 70
0
  0
VERTEX
  8
49
 10
65.7000
 20
16.6000
 30
0.0000
  0
VERTEX
  8
49
 10
63.7000
 20
16.6000
 30
0.0000
  0
SEQEND
  8
0
  0
POLYLINE
  8
49
 66
1
 10
0.0000
 20
0.0000
 30
0.0000
 40
0.0381
 41
0.0381
 70
0
  0
VERTEX
  8
49
 10
63.7000
 20
16.6191
 30
0.0000
 42
1.0000
  0
VERTEX
  8
49
 10
63.7000
 20
16.5810
 30
0.0000
  0
SEQEND
  8
0
  0
POLYLINE
  8
49
 66
1
 10
0.0000
 20
0.0000
 30
0.0000
 40
0.0381
 41
0.0381
 70
0
  0
VERTEX
  8
49
 10
65.7000
 20
16.5810
 30
0.0000
 42
1.0000
  0
VERTEX
  8
49
 10
65.7000
 20
16.6191
 30
0.0000
  0
SEQEND
  8
0
  0
POLYLINE
  8
49
 66
1
 10
0.0000
 20
0.0000
 30
0.0000
 40
0.0762
 41
0.0762
 70
0
  0
VERTEX
  8
49
 10
63.7000
 20
16.6000
 30
0.0000
  0
VERTEX
  8
49
 10
63.7000
 20
18.6000
 30
0.0000
  0
SEQEND
  8
0
  0
POLYLINE
  8
49
 66
1
 10
0.0000
 20
0.0000
 30
0.0000
 40
0.0381
 41
0.0381
 70
0
  0
VERTEX
  8
49
 10
63.7191
 20
18.6000
 30
0.0000
 42
1.0000
  0
VERTEX
  8
49
 10
63.6810
 20
18.6000
 30
0.0000
  0
SEQEND
  8
0
  0
POLYLINE
  8
49
 66
1
 10
0.0000
 20
0.0000
 30
0.0000
 40
0.0381
 41
0.0381
 70
0
  0
VERTEX
  8
49
 10
63.6810
 20
16.6000
 30
0.0000
 42
1.0000
  0
VERTEX
  8
49
 10
63.7191
 20
16.6000
 30
0.0000
  0
SEQEND
  8
0
  0
POLYLINE
  8
49
 66
1
 10
0.0000
 20
0.0000
 30
0.0000
 40
0.0762
 41
0.0762
 70
0
  0
VERTEX
  8
49
 10
28.3000
 20
10.1000
 30
0.0000
  0
VERTEX
  8
49
 10
31.7000
 20
13.6000
 30
0.0000
  0
SEQEND
  8
0
  0
POLYLINE
  8
49
 66
1
 10
0.0000
 20
0.0000
 30
0.0000
 40
0.0381
 41
0.0381
 70
0
  0
VERTEX
  8
49
 10
31.7137
 20
13.5867
 30
0.0000
 42
1.0000
  0
VERTEX
  8
49
 10
31.6863
 20
13.6133
 30
0.0000
  0
SEQEND
  8
0
  0
POLYLINE
  8
49
 66
1
 10
0.0000
 20
0.0000
 30
0.0000
 40
0.0381
 41
0.0381
 70
0
  0
VERTEX
  8
49
 10
28.2863
 20
10.1133
 30
0.0000
 42
1.0000
  0
VERTEX
  8
49
 10
28.3137
 20
10.0867
 30
0.0000
  0
SEQEND
  8
0
  0
POLYLINE
  8
49
 66
1
 10
0.0000
 20
0.0000
 30
0.0000
 40
0.0762
 41
0.0762
 70
0
  0
VERTEX
  8
49
 10
31.7000
 20
13.6000
 30
0.0000
  0
VERTEX
  8
49
 10
28.3000
 20
17.0000
 30
0.0000
  0
SEQEND
  8
0
  0
POLYLINE
  8
49
 66
1
 10
0.0000
 20
0.0000
 30
0.0000
 40
0.0381
 41
0.0381
 70
0
  0
VERTEX
  8
49
 10
28.3135
 20
17.0135
 30
0.0000
 42
1.0000
  0
VERTEX
  8
49
 10
28.2865
 20
16.9865
 30
0.0000
  0
SEQEND
  8
0
  0
POLYLINE
  8
49
 66
1
 10
0.0000
 20
0.0000
 30
0.0000
 40
0.0381
 41
0.0381
 70
0
  0
VERTEX
  8
49
 10
31.6865
 20
13.5865
 30
0.0000
 42
1.0000
  0
VERTEX
  8
49
 10
31.7135
 20
13.6135
 30
0.0000
  0
SEQEND
  8
0
  0
POLYLINE
  8
49
 66
1
 10
0.0000
 20
0.0000
 30
0.0000
 40
0.0762
 41
0.0762
 70
0
  0
VERTEX
  8
49
 10
28.3000
 20
17.0000
 30
0.0000
  0
VERTEX
  8
49
 10
24.9000
 20
13.6000
 30
0.0000
  0
SEQEND
  8
0
  0
POLYLINE
  8
49
 66
1
 10
0.0000
 20
0.0000
 30
0.0000
 40
0.0381
 41
0.0381
 70
0
  0
VERTEX
  8
49
 10
24.8865
 20
13.6135
 30
0.0000
 42
1.0000
  0
VERTEX
  8
49
 10
24.9135
 20
13.5865
 30
0.0000
  0
SEQEND
  8
0
  0
POLYLINE
  8
49
 66
1
 10
0.0000
 20
0.0000
 30
0.0000
 40
0.0381
 41
0.0381
 70
0
  0
VERTEX
  8
49
 10
28.3135
 20
16.9865
 30
0.0000
 42
1.0000
  0
VERTEX
  8
49
 10
28.2865
 20
17.0135
 30
0.0000
  0
SEQEND
  8
0
  0
POLYLINE
  8
49
 66
1
 10
0.0000
 20
0.0000
 30
0.0000
 40
0.0762
 41
0.0762
 70
0
  0
VERTEX
  8
49
 10
24.9000
 20
13.6000
 30
0.0000
  0
VERTEX
  8
49
 10
28.3000
 20
10.1000
 30
0.0000
  0
SEQEND
  8
0
  0
POLYLINE
  8
49
 66
1
 10
0.0000
 20
0.0000
 30
0.0000
 40
0.0381
 41
0.0381
 70
0
  0
VERTEX
  8
49
 10
28.2863
 20
10.0867
 30
0.0000
 42
1.0000
  0
VERTEX
  8
49
 10
28.3137
 20
10.1133
 30
0.0000
  0
SEQEND
  8
0
  0
POLYLINE
  8
49
 66
1
 10
0.0000
 20
0.0000
 30
0.0000
 40
0.0381
 41
0.0381
 70
0
  0
VERTEX
  8
49
 10
24.9137
 20
13.6133
 30
0.0000
 42
1.0000
  0
VERTEX
  8
49
 10
24.8863
 20
13.5867
 30
0.0000
  0
SEQEND
  8
0
  0
POLYLINE
  8
49
 66
1
 10
0.0000
 20
0.0000
 30
0.0000
 40
0.0762
 41
0.0762
 70
0
  0
VERTEX
  8
49
 10
48.9000
 20
15.3000
 30
0.0000
  0
VERTEX
  8
49
 10
50.1000
 20
15.3000
 30
0.0000
  0
SEQEND
  8
0
  0
POLYLINE
  8
49
 66
1
 10
0.0000
 20
0.0000
 30
0.0000
 40
0.0381
 41
0.0381
 70
0
  0
VERTEX
  8
49
 10
50.1000
 20
15.2810
 30
0.0000
 42
1.0000
  0
VERTEX
  8
49
 10
50.1000
 20
15.3191
 30
0.0000
  0
SEQEND
  8
0
  0
POLYLINE
  8
49
 66
1
 10
0.0000
 20
0.0000
 30
0.0000
 40
0.0381
 41
0.0381
 70
0
  0
VERTEX
  8
49
 10
48.9000
 20
15.3191
 30
0.0000
 42
1.0000
  0
VERTEX
  8
49
 10
48.9000
 20
15.2810
 30
0.0000
  0
SEQEND
  8
0
  0
POLYLINE
  8
49
 66
1
 10
0.0000
 20
0.0000
 30
0.0000
 40
0.0762
 41
0.0762
 70
0
  0
VERTEX
  8
49
 10
50.1000
 20
15.3000
 30
0.0000
  0
VERTEX
  8
49
 10
50.1000
 20
13.4000
 30
0.0000
  0
SEQEND
  8
0
  0
POLYLINE
  8
49
 66
1
 10
0.0000
 20
0.0000
 30
0.0000
 40
0.0381
 41
0.0381
 70
0
  0
VERTEX
  8
49
 10
50.0810
 20
13.4000
 30
0.0000
 42
1.0000
  0
VERTEX
  8
49
 10
50.1191
 20
13.4000
 30
0.0000
  0
SEQEND
  8
0
  0
POLYLINE
  8
49
 66
1
 10
0.0000
 20
0.0000
 30
0.0000
 40
0.0381
 41
0.0381
 70
0
  0
VERTEX
  8
49
 10
50.1191
 20
15.3000
 30
0.0000
 42
1.0000
  0
VERTEX
  8
49
 10
50.0810
 20
15.3000
 30
0.0000
  0
SEQEND
  8
0
  0
POLYLINE
  8
49
 66
1
 10
0.0000
 20
0.0000
 30
0.0000
 40
0.0762
 41
0.0762
 70
0
  0
VERTEX
  8
49
 10
50.1000
 20
13.4000
 30
0.0000
  0
VERTEX
  8
49
 10
48.9000
 20
13.4000
 30
0.0000
  0
SEQEND
  8
0
  0
POLYLINE
  8
49
 66
1
 10
0.0000
 20
0.0000
 30
0.0000
 40
0.0381
 41
0.0381
 70
0
  0
VERTEX
  8
49
 10
48.9000
 20
13.4191
 30
0.0000
 42
1.0000
  0
VERTEX
  8
49
 10
48.9000
 20
13.3810
 30
0.0000
  0
SEQEND
  8
0
  0
POLYLINE
  8
49
 66
1
 10
0.0000
 20
0.0000
 30
0.0000
 40
0.0381
 41
0.0381
 70
0
  0
VERTEX
  8
49
 10
50.1000
 20
13.3810
 30
0.0000
 42
1.0000
  0
VERTEX
  8
49
 10
50.1000
 20
13.4191
 30
0.0000
  0
SEQEND
  8
0
  0
POLYLINE
  8
49
 66
1
 10
0.0000
 20
0.0000
 30
0.0000
 40
0.0762
 41
0.0762
 70
0
  0
VERTEX
  8
49
 10
48.9000
 20
13.4000
 30
0.0000
  0
VERTEX
  8
49
 10
48.9000
 20
15.3000
 30
0.0000
  0
SEQEND
  8
0
  0
POLYLINE
  8
49
 66
1
 10
0.0000
 20
0.0000
 30
0.0000
 40
0.0381
 41
0.0381
 70
0
  0
VERTEX
  8
49
 10
48.9191
 20
15.3000
 30
0.0000
 42
1.0000
  0
VERTEX
  8
49
 10
48.8810
 20
15.3000
 30
0.0000
  0
SEQEND
  8
0
  0
POLYLINE
  8
49
 66
1
 10
0.0000
 20
0.0000
 30
0.0000
 40
0.0381
 41
0.0381
 70
0
  0
VERTEX
  8
49
 10
48.8810
 20
13.4000
 30
0.0000
 42
1.0000
  0
VERTEX
  8
49
 10
48.9191
 20
13.4000
 30
0.0000
  0
SEQEND
  8
0
  0
POLYLINE
  8
49
 66
1
 10
0.0000
 20
0.0000
 30
0.0000
 40
0.0762
 41
0.0762
 70
0
  0
VERTEX
  8
49
 10
23.7000
 20
3.5000
 30
0.0000
  0
VERTEX
  8
49
 10
26.5000
 20
3.5000
 30
0.0000
  0
SEQEND
  8
0
  0
POLYLINE
  8
49
 66
1
 10
0.0000
 20
0.0000
 30
0.0000
 40
0.0381
 41
0.0381
 70
0
  0
VERTEX
  8
49
 10
26.5000
 20
3.4809
 30
0.0000
 42
1.0000
  0
VERTEX
  8
49
 10
26.5000
 20
3.5191
 30
0.0000
  0
SEQEND
  8
0
  0
POLYLINE
  8
49
 66
1
 10
0.0000
 20
0.0000
 30
0.0000
 40
0.0381
 41
0.0381
 70
0
  0
VERTEX
  8
49
 10
23.7000
 20
3.5191
 30
0.0000
 42
1.0000
  0
VERTEX
  8
49
 10
23.7000
 20
3.4809
 30
0.0000
  0
SEQEND
  8
0
  0
POLYLINE
  8
49
 66
1
 10
0.0000
 20
0.0000
 30
0.0000
 40
0.0762
 41
0.0762
 70
0
  0
VERTEX
  8
49
 10
26.5000
 20
3.5000
 30
0.0000
  0
VERTEX
  8
49
 10
26.5000
 20
1.9000
 30
0.0000
  0
SEQEND
  8
0
  0
POLYLINE
  8
49
 66
1
 10
0.0000
 20
0.0000
 30
0.0000
 40
0.0381
 41
0.0381
 70
0
  0
VERTEX
  8
49
 10
26.4809
 20
1.9000
 30
0.0000
 42
1.0000
  0
VERTEX
  8
49
 10
26.5191
 20
1.9000
 30
0.0000
  0
SEQEND
  8
0
  0
POLYLINE
  8
49
 66
1
 10
0.0000
 20
0.0000
 30
0.0000
 40
0.0381
 41
0.0381
 70
0
  0
VERTEX
  8
49
 10
26.5191
 20
3.5000
 30
0.0000
 42
1.0000
  0
VERTEX
  8
49
 10
26.4809
 20
3.5000
 30
0.0000
  0
SEQEND
  8
0
  0
POLYLINE
  8
49
 66
1
 10
0.0000
 20
0.0000
 30
0.0000
 40
0.0762
 41
0.0762
 70
0
  0
VERTEX
  8
49
 10
26.5000
 20
1.9000
 30
0.0000
  0
VERTEX
  8
49
 10
23.7000
 20
1.9000
 30
0.0000
  0
SEQEND
  8
0
  0
POLYLINE
  8
49
 66
1
 10
0.0000
 20
0.0000
 30
0.0000
 40
0.0381
 41
0.0381
 70
0
  0
VERTEX
  8
49
 10
23.7000
 20
1.9191
 30
0.0000
 42
1.0000
  0
VERTEX
  8
49
 10
23.7000
 20
1.8810
 30
0.0000
  0
SEQEND
  8
0
  0
POLYLINE
  8
49
 66
1
 10
0.0000
 20
0.0000
 30
0.0000
 40
0.0381
 41
0.0381
 70
0
  0
VERTEX
  8
49
 10
26.5000
 20
1.8810
 30
0.0000
 42
1.0000
  0
VERTEX
  8
49
 10
26.5000
 20
1.9191
 30
0.0000
  0
SEQEND
  8
0
  0
POLYLINE
  8
49
 66
1
 10
0.0000
 20
0.0000
 30
0.0000
 40
0.0762
 41
0.0762
 70
0
  0
VERTEX
  8
49
 10
23.7000
 20
1.9000
 30
0.0000
  0
VERTEX
  8
49
 10
23.7000
 20
3.5000
 30
0.0000
  0
SEQEND
  8
0
  0
POLYLINE
  8
49
 66
1
 10
0.0000
 20
0.0000
 30
0.0000
 40
0.0381
 41
0.0381
 70
0
  0
VERTEX
  8
49
 10
23.7191
 20
3.5000
 30
0.0000
 42
1.0000
  0
VERTEX
  8
49
 10
23.6810
 20
3.5000
 30
0.0000
  0
SEQEND
  8
0
  0
POLYLINE
  8
49
 66
1
 10
0.0000
 20
0.0000
 30
0.0000
 40
0.0381
 41
0.0381
 70
0
  0
VERTEX
  8
49
 10
23.6810
 20
1.9000
 30
0.0000
 42
1.0000
  0
VERTEX
  8
49
 10
23.7191
 20
1.9000
 30
0.0000
  0
SEQEND
  8
0
  0
POLYLINE
  8
49
 66
1
 10
0.0000
 20
0.0000
 30
0.0000
 40
0.0762
 41
0.0762
 70
0
  0
VERTEX
  8
49
 10
35.0000
 20
3.8000
 30
0.0000
  0
VERTEX
  8
49
 10
38.2000
 20
3.8000
 30
0.0000
  0
SEQEND
  8
0
  0
POLYLINE
  8
49
 66
1
 10
0.0000
 20
0.0000
 30
0.0000
 40
0.0381
 41
0.0381
 70
0
  0
VERTEX
  8
49
 10
38.2000
 20
3.7810
 30
0.0000
 42
1.0000
  0
VERTEX
  8
49
 10
38.2000
 20
3.8191
 30
0.0000
  0
SEQEND
  8
0
  0
POLYLINE
  8
49
 66
1
 10
0.0000
 20
0.0000
 30
0.0000
 40
0.0381
 41
0.0381
 70
0
  0
VERTEX
  8
49
 10
35.0000
 20
3.8191
 30
0.0000
 42
1.0000
  0
VERTEX
  8
49
 10
35.0000
 20
3.7810
 30
0.0000
  0
SEQEND
  8
0
  0
POLYLINE
  8
49
 66
1
 10
0.0000
 20
0.0000
 30
0.0000
 40
0.0762
 41
0.0762
 70
0
  0
VERTEX
  8
49
 10
38.2000
 20
3.8000
 30
0.0000
  0
VERTEX
  8
49
 10
38.2000
 20
1.4000
 30
0.0000
  0
SEQEND
  8
0
  0
POLYLINE
  8
49
 66
1
 10
0.0000
 20
0.0000
 30
0.0000
 40
0.0381
 41
0.0381
 70
0
  0
VERTEX
  8
49
 10
38.1810
 20
1.4000
 30
0.0000
 42
1.0000
  0
VERTEX
  8
49
 10
38.2191
 20
1.4000
 30
0.0000
  0
SEQEND
  8
0
  0
POLYLINE
  8
49
 66
1
 10
0.0000
 20
0.0000
 30
0.0000
 40
0.0381
 41
0.0381
 70
0
  0
VERTEX
  8
49
 10
38.2191
 20
3.8000
 30
0.0000
 42
1.0000
  0
VERTEX
  8
49
 10
38.1810
 20
3.8000
 30
0.0000
  0
SEQEND
  8
0
  0
POLYLINE
  8
49
 66
1
 10
0.0000
 20
0.0000
 30
0.0000
 40
0.0762
 41
0.0762
 70
0
  0
VERTEX
  8
49
 10
38.2000
 20
1.4000
 30
0.0000
  0
VERTEX
  8
49
 10
35.0000
 20
1.4000
 30
0.0000
  0
SEQEND
  8
0
  0
POLYLINE
  8
49
 66
1
 10
0.0000
 20
0.0000
 30
0.0000
 40
0.0381
 41
0.0381
 70
0
  0
VERTEX
  8
49
 10
35.0000
 20
1.4191
 30
0.0000
 42
1.0000
  0
VERTEX
  8
49
 10
35.0000
 20
1.3810
 30
0.0000
  0
SEQEND
  8
0
  0
POLYLINE
  8
49
 66
1
 10
0.0000
 20
0.0000
 30
0.0000
 40
0.0381
 41
0.0381
 70
0
  0
VERTEX
  8
49
 10
38.2000
 20
1.3810
 30
0.0000
 42
1.0000
  0
VERTEX
  8
49
 10
38.2000
 20
1.4191
 30
0.0000
  0
SEQEND
  8
0
  0
POLYLINE
  8
49
 66
1
 10
0.0000
 20
0.0000
 30
0.0000
 40
0.0762
 41
0.0762
 70
0
  0
VERTEX
  8
49
 10
35.0000
 20
1.4000
 30
0.0000
  0
VERTEX
  8
49
 10
35.0000
 20
3.8000
 30
0.0000
  0
SEQEND
  8
0
  0
POLYLINE
  8
49
 66
1
 10
0.0000
 20
0.0000
 30
0.0000
 40
0.0381
 41
0.0381
 70
0
  0
VERTEX
  8
49
 10
35.0191
 20
3.8000
 30
0.0000
 42
1.0000
  0
VERTEX
  8
49
 10
34.9809
 20
3.8000
 30
0.0000
  0
SEQEND
  8
0
  0
POLYLINE
  8
49
 66
1
 10
0.0000
 20
0.0000
 30
0.0000
 40
0.0381
 41
0.0381
 70
0
  0
VERTEX
  8
49
 10
34.9809
 20
1.4000
 30
0.0000
 42
1.0000
  0
VERTEX
  8
49
 10
35.0191
 20
1.4000
 30
0.0000
  0
SEQEND
  8
0
  0
POLYLINE
  8
49
 66
1
 10
0.0000
 20
0.0000
 30
0.0000
 40
0.0762
 41
0.0762
 70
0
  0
VERTEX
  8
49
 10
35.1000
 20
15.6000
 30
0.0000
  0
VERTEX
  8
49
 10
38.3000
 20
15.6000
 30
0.0000
  0
SEQEND
  8
0
  0
POLYLINE
  8
49
 66
1
 10
0.0000
 20
0.0000
 30
0.0000
 40
0.0381
 41
0.0381
 70
0
  0
VERTEX
  8
49
 10
38.3000
 20
15.5810
 30
0.0000
 42
1.0000
  0
VERTEX
  8
49
 10
38.3000
 20
15.6191
 30
0.0000
  0
SEQEND
  8
0
  0
POLYLINE
  8
49
 66
1
 10
0.0000
 20
0.0000
 30
0.0000
 40
0.0381
 41
0.0381
 70
0
  0
VERTEX
  8
49
 10
35.1000
 20
15.6191
 30
0.0000
 42
1.0000
  0
VERTEX
  8
49
 10
35.1000
 20
15.5810
 30
0.0000
  0
SEQEND
  8
0
  0
POLYLINE
  8
49
 66
1
 10
0.0000
 20
0.0000
 30
0.0000
 40
0.0762
 41
0.0762
 70
0
  0
VERTEX
  8
49
 10
38.3000
 20
15.6000
 30
0.0000
  0
VERTEX
  8
49
 10
38.3000
 20
13.2000
 30
0.0000
  0
SEQEND
  8
0
  0
POLYLINE
  8
49
 66
1
 10
0.0000
 20
0.0000
 30
0.0000
 40
0.0381
 41
0.0381
 70
0
  0
VERTEX
  8
49
 10
38.2810
 20
13.2000
 30
0.0000
 42
1.0000
  0
VERTEX
  8
49
 10
38.3191
 20
13.2000
 30
0.0000
  0
SEQEND
  8
0
  0
POLYLINE
  8
49
 66
1
 10
0.0000
 20
0.0000
 30
0.0000
 40
0.0381
 41
0.0381
 70
0
  0
VERTEX
  8
49
 10
38.3191
 20
15.6000
 30
0.0000
 42
1.0000
  0
VERTEX
  8
49
 10
38.2810
 20
15.6000
 30
0.0000
  0
SEQEND
  8
0
  0
POLYLINE
  8
49
 66
1
 10
0.0000
 20
0.0000
 30
0.0000
 40
0.0762
 41
0.0762
 70
0
  0
VERTEX
  8
49
 10
38.3000
 20
13.2000
 30
0.0000
  0
VERTEX
  8
49
 10
35.1000
 20
13.2000
 30
0.0000
  0
SEQEND
  8
0
  0
POLYLINE
  8
49
 66
1
 10
0.0000
 20
0.0000
 30
0.0000
 40
0.0381
 41
0.0381
 70
0
  0
VERTEX
  8
49
 10
35.1000
 20
13.2191
 30
0.0000
 42
1.0000
  0
VERTEX
  8
49
 10
35.1000
 20
13.1810
 30
0.0000
  0
SEQEND
  8
0
  0
POLYLINE
  8
49
 66
1
 10
0.0000
 20
0.0000
 30
0.0000
 40
0.0381
 41
0.0381
 70
0
  0
VERTEX
  8
49
 10
38.3000
 20
13.1810
 30
0.0000
 42
1.0000
  0
VERTEX
  8
49
 10
38.3000
 20
13.2191
 30
0.0000
  0
SEQEND
  8
0
  0
POLYLINE
  8
49
 66
1
 10
0.0000
 20
0.0000
 30
0.0000
 40
0.0762
 41
0.0762
 70
0
  0
VERTEX
  8
49
 10
35.1000
 20
13.2000
 30
0.0000
  0
VERTEX
  8
49
 10
35.1000
 20
15.6000
 30
0.0000
  0
SEQEND
  8
0
  0
POLYLINE
  8
49
 66
1
 10
0.0000
 20
0.0000
 30
0.0000
 40
0.0381
 41
0.0381
 70
0
  0
VERTEX
  8
49
 10
35.1191
 20
15.6000
 30
0.0000
 42
1.0000
  0
VERTEX
  8
49
 10
35.0810
 20
15.6000
 30
0.0000
  0
SEQEND
  8
0
  0
POLYLINE
  8
49
 66
1
 10
0.0000
 20
0.0000
 30
0.0000
 40
0.0381
 41
0.0381
 70
0
  0
VERTEX
  8
49
 10
35.0810
 20
13.2000
 30
0.0000
 42
1.0000
  0
VERTEX
  8
49
 10
35.1191
 20
13.2000
 30
0.0000
  0
SEQEND
  8
0
  0
POLYLINE
  8
49
 66
1
 10
0.0000
 20
0.0000
 30
0.0000
 40
0.0762
 41
0.0762
 70
0
  0
VERTEX
  8
49
 10
16.9000
 20
18.3000
 30
0.0000
  0
VERTEX
  8
49
 10
19.8000
 20
18.3000
 30
0.0000
  0
SEQEND
  8
0
  0
POLYLINE
  8
49
 66
1
 10
0.0000
 20
0.0000
 30
0.0000
 40
0.0381
 41
0.0381
 70
0
  0
VERTEX
  8
49
 10
19.8000
 20
18.2810
 30
0.0000
 42
1.0000
  0
VERTEX
  8
49
 10
19.8000
 20
18.3191
 30
0.0000
  0
SEQEND
  8
0
  0
POLYLINE
  8
49
 66
1
 10
0.0000
 20
0.0000
 30
0.0000
 40
0.0381
 41
0.0381
 70
0
  0
VERTEX
  8
49
 10
16.9000
 20
18.3191
 30
0.0000
 42
1.0000
  0
VERTEX
  8
49
 10
16.9000
 20
18.2810
 30
0.0000
  0
SEQEND
  8
0
  0
POLYLINE
  8
49
 66
1
 10
0.0000
 20
0.0000
 30
0.0000
 40
0.0762
 41
0.0762
 70
0
  0
VERTEX
  8
49
 10
19.8000
 20
18.3000
 30
0.0000
  0
VERTEX
  8
49
 10
19.8000
 20
16.7000
 30
0.0000
  0
SEQEND
  8
0
  0
POLYLINE
  8
49
 66
1
 10
0.0000
 20
0.0000
 30
0.0000
 40
0.0381
 41
0.0381
 70
0
  0
VERTEX
  8
49
 10
19.7810
 20
16.7000
 30
0.0000
 42
1.0000
  0
VERTEX
  8
49
 10
19.8191
 20
16.7000
 30
0.0000
  0
SEQEND
  8
0
  0
POLYLINE
  8
49
 66
1
 10
0.0000
 20
0.0000
 30
0.0000
 40
0.0381
 41
0.0381
 70
0
  0
VERTEX
  8
49
 10
19.8191
 20
18.3000
 30
0.0000
 42
1.0000
  0
VERTEX
  8
49
 10
19.7810
 20
18.3000
 30
0.0000
  0
SEQEND
  8
0
  0
POLYLINE
  8
49
 66
1
 10
0.0000
 20
0.0000
 30
0.0000
 40
0.0762
 41
0.0762
 70
0
  0
VERTEX
  8
49
 10
19.8000
 20
16.7000
 30
0.0000
  0
VERTEX
  8
49
 10
16.9000
 20
16.7000
 30
0.0000
  0
SEQEND
  8
0
  0
POLYLINE
  8
49
 66
1
 10
0.0000
 20
0.0000
 30
0.0000
 40
0.0381
 41
0.0381
 70
0
  0
VERTEX
  8
49
 10
16.9000
 20
16.7190
 30
0.0000
 42
1.0000
  0
VERTEX
  8
49
 10
16.9000
 20
16.6809
 30
0.0000
  0
SEQEND
  8
0
  0
POLYLINE
  8
49
 66
1
 10
0.0000
 20
0.0000
 30
0.0000
 40
0.0381
 41
0.0381
 70
0
  0
VERTEX
  8
49
 10
19.8000
 20
16.6809
 30
0.0000
 42
1.0000
  0
VERTEX
  8
49
 10
19.8000
 20
16.7190
 30
0.0000
  0
SEQEND
  8
0
  0
POLYLINE
  8
49
 66
1
 10
0.0000
 20
0.0000
 30
0.0000
 40
0.0762
 41
0.0762
 70
0
  0
VERTEX
  8
49
 10
16.9000
 20
16.7000
 30
0.0000
  0
VERTEX
  8
49
 10
16.9000
 20
18.3000
 30
0.0000
  0
SEQEND
  8
0
  0
POLYLINE
  8
49
 66
1
 10
0.0000
 20
0.0000
 30
0.0000
 40
0.0381
 41
0.0381
 70
0
  0
VERTEX
  8
49
 10
16.9191
 20
18.3000
 30
0.0000
 42
1.0000
  0
VERTEX
  8
49
 10
16.8810
 20
18.3000
 30
0.0000
  0
SEQEND
  8
0
  0
POLYLINE
  8
49
 66
1
 10
0.0000
 20
0.0000
 30
0.0000
 40
0.0381
 41
0.0381
 70
0
  0
VERTEX
  8
49
 10
16.8810
 20
16.7000
 30
0.0000
 42
1.0000
  0
VERTEX
  8
49
 10
16.9191
 20
16.7000
 30
0.0000
  0
SEQEND
  8
0
  0
POLYLINE
  8
49
 66
1
 10
0.0000
 20
0.0000
 30
0.0000
 40
0.0762
 41
0.0762
 70
0
  0
VERTEX
  8
49
 10
14.2000
 20
13.7000
 30
0.0000
  0
VERTEX
  8
49
 10
15.4000
 20
13.7000
 30
0.0000
  0
SEQEND
  8
0
  0
POLYLINE
  8
49
 66
1
 10
0.0000
 20
0.0000
 30
0.0000
 40
0.0381
 41
0.0381
 70
0
  0
VERTEX
  8
49
 10
15.4000
 20
13.6810
 30
0.0000
 42
1.0000
  0
VERTEX
  8
49
 10
15.4000
 20
13.7191
 30
0.0000
  0
SEQEND
  8
0
  0
POLYLINE
  8
49
 66
1
 10
0.0000
 20
0.0000
 30
0.0000
 40
0.0381
 41
0.0381
 70
0
  0
VERTEX
  8
49
 10
14.2000
 20
13.7191
 30
0.0000
 42
1.0000
  0
VERTEX
  8
49
 10
14.2000
 20
13.6810
 30
0.0000
  0
SEQEND
  8
0
  0
POLYLINE
  8
49
 66
1
 10
0.0000
 20
0.0000
 30
0.0000
 40
0.0762
 41
0.0762
 70
0
  0
VERTEX
  8
49
 10
15.4000
 20
13.7000
 30
0.0000
  0
VERTEX
  8
49
 10
15.4000
 20
9.7000
 30
0.0000
  0
SEQEND
  8
0
  0
POLYLINE
  8
49
 66
1
 10
0.0000
 20
0.0000
 30
0.0000
 40
0.0381
 41
0.0381
 70
0
  0
VERTEX
  8
49
 10
15.3810
 20
9.7000
 30
0.0000
 42
1.0000
  0
VERTEX
  8
49
 10
15.4191
 20
9.7000
 30
0.0000
  0
SEQEND
  8
0
  0
POLYLINE
  8
49
 66
1
 10
0.0000
 20
0.0000
 30
0.0000
 40
0.0381
 41
0.0381
 70
0
  0
VERTEX
  8
49
 10
15.4191
 20
13.7000
 30
0.0000
 42
1.0000
  0
VERTEX
  8
49
 10
15.3810
 20
13.7000
 30
0.0000
  0
SEQEND
  8
0
  0
POLYLINE
  8
49
 66
1
 10
0.0000
 20
0.0000
 30
0.0000
 40
0.0762
 41
0.0762
 70
0
  0
VERTEX
  8
49
 10
15.4000
 20
9.7000
 30
0.0000
  0
VERTEX
  8
49
 10
14.2000
 20
9.7000
 30
0.0000
  0
SEQEND
  8
0
  0
POLYLINE
  8
49
 66
1
 10
0.0000
 20
0.0000
 30
0.0000
 40
0.0381
 41
0.0381
 70
0
  0
VERTEX
  8
49
 10
14.2000
 20
9.7191
 30
0.0000
 42
1.0000
  0
VERTEX
  8
49
 10
14.2000
 20
9.6810
 30
0.0000
  0
SEQEND
  8
0
  0
POLYLINE
  8
49
 66
1
 10
0.0000
 20
0.0000
 30
0.0000
 40
0.0381
 41
0.0381
 70
0
  0
VERTEX
  8
49
 10
15.4000
 20
9.6810
 30
0.0000
 42
1.0000
  0
VERTEX
  8
49
 10
15.4000
 20
9.7191
 30
0.0000
  0
SEQEND
  8
0
  0
POLYLINE
  8
49
 66
1
 10
0.0000
 20
0.0000
 30
0.0000
 40
0.0762
 41
0.0762
 70
0
  0
VERTEX
  8
49
 10
14.2000
 20
9.7000
 30
0.0000
  0
VERTEX
  8
49
 10
14.2000
 20
13.7000
 30
0.0000
  0
SEQEND
  8
0
  0
POLYLINE
  8
49
 66
1
 10
0.0000
 20
0.0000
 30
0.0000
 40
0.0381
 41
0.0381
 70
0
  0
VERTEX
  8
49
 10
14.2191
 20
13.7000
 30
0.0000
 42
1.0000
  0
VERTEX
  8
49
 10
14.1810
 20
13.7000
 30
0.0000
  0
SEQEND
  8
0
  0
POLYLINE
  8
49
 66
1
 10
0.0000
 20
0.0000
 30
0.0000
 40
0.0381
 41
0.0381
 70
0
  0
VERTEX
  8
49
 10
14.1810
 20
9.7000
 30
0.0000
 42
1.0000
  0
VERTEX
  8
49
 10
14.2191
 20
9.7000
 30
0.0000
  0
SEQEND
  8
0
  0
POLYLINE
  8
49
 66
1
 10
0.0000
 20
0.0000
 30
0.0000
 40
0.0762
 41
0.0762
 70
0
  0
VERTEX
  8
49
 10
21.7000
 20
13.7000
 30
0.0000
  0
VERTEX
  8
49
 10
22.9000
 20
13.7000
 30
0.0000
  0
SEQEND
  8
0
  0
POLYLINE
  8
49
 66
1
 10
0.0000
 20
0.0000
 30
0.0000
 40
0.0381
 41
0.0381
 70
0
  0
VERTEX
  8
49
 10
22.9000
 20
13.6810
 30
0.0000
 42
1.0000
  0
VERTEX
  8
49
 10
22.9000
 20
13.7191
 30
0.0000
  0
SEQEND
  8
0
  0
POLYLINE
  8
49
 66
1
 10
0.0000
 20
0.0000
 30
0.0000
 40
0.0381
 41
0.0381
 70
0
  0
VERTEX
  8
49
 10
21.7000
 20
13.7191
 30
0.0000
 42
1.0000
  0
VERTEX
  8
49
 10
21.7000
 20
13.6810
 30
0.0000
  0
SEQEND
  8
0
  0
POLYLINE
  8
49
 66
1
 10
0.0000
 20
0.0000
 30
0.0000
 40
0.0762
 41
0.0762
 70
0
  0
VERTEX
  8
49
 10
22.9000
 20
13.7000
 30
0.0000
  0
VERTEX
  8
49
 10
22.9000
 20
11.7000
 30
0.0000
  0
SEQEND
  8
0
  0
POLYLINE
  8
49
 66
1
 10
0.0000
 20
0.0000
 30
0.0000
 40
0.0381
 41
0.0381
 70
0
  0
VERTEX
  8
49
 10
22.8810
 20
11.7000
 30
0.0000
 42
1.0000
  0
VERTEX
  8
49
 10
22.9191
 20
11.7000
 30
0.0000
  0
SEQEND
  8
0
  0
POLYLINE
  8
49
 66
1
 10
0.0000
 20
0.0000
 30
0.0000
 40
0.0381
 41
0.0381
 70
0
  0
VERTEX
  8
49
 10
22.9191
 20
13.7000
 30
0.0000
 42
1.0000
  0
VERTEX
  8
49
 10
22.8810
 20
13.7000
 30
0.0000
  0
SEQEND
  8
0
  0
POLYLINE
  8
49
 66
1
 10
0.0000
 20
0.0000
 30
0.0000
 40
0.0762
 41
0.0762
 70
0
  0
VERTEX
  8
49
 10
22.9000
 20
11.7000
 30
0.0000
  0
VERTEX
  8
49
 10
21.7000
 20
11.7000
 30
0.0000
  0
SEQEND
  8
0
  0
POLYLINE
  8
49
 66
1
 10
0.0000
 20
0.0000
 30
0.0000
 40
0.0381
 41
0.0381
 70
0
  0
VERTEX
  8
49
 10
21.7000
 20
11.7191
 30
0.0000
 42
1.0000
  0
VERTEX
  8
49
 10
21.7000
 20
11.6810
 30
0.0000
  0
SEQEND
  8
0
  0
POLYLINE
  8
49
 66
1
 10
0.0000
 20
0.0000
 30
0.0000
 40
0.0381
 41
0.0381
 70
0
  0
VERTEX
  8
49
 10
22.9000
 20
11.6810
 30
0.0000
 42
1.0000
  0
VERTEX
  8
49
 10
22.9000
 20
11.7191
 30
0.0000
  0
SEQEND
  8
0
  0
POLYLINE
  8
49
 66
1
 10
0.0000
 20
0.0000
 30
0.0000
 40
0.0762
 41
0.0762
 70
0
  0
VERTEX
  8
49
 10
21.7000
 20
11.7000
 30
0.0000
  0
VERTEX
  8
49
 10
21.7000
 20
13.7000
 30
0.0000
  0
SEQEND
  8
0
  0
POLYLINE
  8
49
 66
1
 10
0.0000
 20
0.0000
 30
0.0000
 40
0.0381
 41
0.0381
 70
0
  0
VERTEX
  8
49
 10
21.7190
 20
13.7000
 30
0.0000
 42
1.0000
  0
VERTEX
  8
49
 10
21.6809
 20
13.7000
 30
0.0000
  0
SEQEND
  8
0
  0
POLYLINE
  8
49
 66
1
 10
0.0000
 20
0.0000
 30
0.0000
 40
0.0381
 41
0.0381
 70
0
  0
VERTEX
  8
49
 10
21.6809
 20
11.7000
 30
0.0000
 42
1.0000
  0
VERTEX
  8
49
 10
21.7190
 20
11.7000
 30
0.0000
  0
SEQEND
  8
0
  0
POLYLINE
  8
49
 66
1
 10
0.0000
 20
0.0000
 30
0.0000
 40
0.0762
 41
0.0762
 70
0
  0
VERTEX
  8
49
 10
21.7000
 20
10.9000
 30
0.0000
  0
VERTEX
  8
49
 10
22.9000
 20
10.9000
 30
0.0000
  0
SEQEND
  8
0
  0
POLYLINE
  8
49
 66
1
 10
0.0000
 20
0.0000
 30
0.0000
 40
0.0381
 41
0.0381
 70
0
  0
VERTEX
  8
49
 10
22.9000
 20
10.8810
 30
0.0000
 42
1.0000
  0
VERTEX
  8
49
 10
22.9000
 20
10.9191
 30
0.0000
  0
SEQEND
  8
0
  0
POLYLINE
  8
49
 66
1
 10
0.0000
 20
0.0000
 30
0.0000
 40
0.0381
 41
0.0381
 70
0
  0
VERTEX
  8
49
 10
21.7000
 20
10.9191
 30
0.0000
 42
1.0000
  0
VERTEX
  8
49
 10
21.7000
 20
10.8810
 30
0.0000
  0
SEQEND
  8
0
  0
POLYLINE
  8
49
 66
1
 10
0.0000
 20
0.0000
 30
0.0000
 40
0.0762
 41
0.0762
 70
0
  0
VERTEX
  8
49
 10
22.9000
 20
10.9000
 30
0.0000
  0
VERTEX
  8
49
 10
22.9000
 20
8.9000
 30
0.0000
  0
SEQEND
  8
0
  0
POLYLINE
  8
49
 66
1
 10
0.0000
 20
0.0000
 30
0.0000
 40
0.0381
 41
0.0381
 70
0
  0
VERTEX
  8
49
 10
22.8810
 20
8.9000
 30
0.0000
 42
1.0000
  0
VERTEX
  8
49
 10
22.9191
 20
8.9000
 30
0.0000
  0
SEQEND
  8
0
  0
POLYLINE
  8
49
 66
1
 10
0.0000
 20
0.0000
 30
0.0000
 40
0.0381
 41
0.0381
 70
0
  0
VERTEX
  8
49
 10
22.9191
 20
10.9000
 30
0.0000
 42
1.0000
  0
VERTEX
  8
49
 10
22.8810
 20
10.9000
 30
0.0000
  0
SEQEND
  8
0
  0
POLYLINE
  8
49
 66
1
 10
0.0000
 20
0.0000
 30
0.0000
 40
0.0762
 41
0.0762
 70
0
  0
VERTEX
  8
49
 10
22.9000
 20
8.9000
 30
0.0000
  0
VERTEX
  8
49
 10
21.7000
 20
8.9000
 30
0.0000
  0
SEQEND
  8
0
  0
POLYLINE
  8
49
 66
1
 10
0.0000
 20
0.0000
 30
0.0000
 40
0.0381
 41
0.0381
 70
0
  0
VERTEX
  8
49
 10
21.7000
 20
8.9191
 30
0.0000
 42
1.0000
  0
VERTEX
  8
49
 10
21.7000
 20
8.8810
 30
0.0000
  0
SEQEND
  8
0
  0
POLYLINE
  8
49
 66
1
 10
0.0000
 20
0.0000
 30
0.0000
 40
0.0381
 41
0.0381
 70
0
  0
VERTEX
  8
49
 10
22.9000
 20
8.8810
 30
0.0000
 42
1.0000
  0
VERTEX
  8
49
 10
22.9000
 20
8.9191
 30
0.0000
  0
SEQEND
  8
0
  0
POLYLINE
  8
49
 66
1
 10
0.0000
 20
0.0000
 30
0.0000
 40
0.0762
 41
0.0762
 70
0
  0
VERTEX
  8
49
 10
21.7000
 20
8.9000
 30
0.0000
  0
VERTEX
  8
49
 10
21.7000
 20
10.9000
 30
0.0000
  0
SEQEND
  8
0
  0
POLYLINE
  8
49
 66
1
 10
0.0000
 20
0.0000
 30
0.0000
 40
0.0381
 41
0.0381
 70
0
  0
VERTEX
  8
49
 10
21.7190
 20
10.9000
 30
0.0000
 42
1.0000
  0
VERTEX
  8
49
 10
21.6809
 20
10.9000
 30
0.0000
  0
SEQEND
  8
0
  0
POLYLINE
  8
49
 66
1
 10
0.0000
 20
0.0000
 30
0.0000
 40
0.0381
 41
0.0381
 70
0
  0
VERTEX
  8
49
 10
21.6809
 20
8.9000
 30
0.0000
 42
1.0000
  0
VERTEX
  8
49
 10
21.7190
 20
8.9000
 30
0.0000
  0
SEQEND
  8
0
  0
POLYLINE
  8
49
 66
1
 10
0.0000
 20
0.0000
 30
0.0000
 40
0.0762
 41
0.0762
 70
0
  0
VERTEX
  8
49
 10
23.0000
 20
22.8000
 30
0.0000
  0
VERTEX
  8
49
 10
25.9000
 20
22.8000
 30
0.0000
  0
SEQEND
  8
0
  0
POLYLINE
  8
49
 66
1
 10
0.0000
 20
0.0000
 30
0.0000
 40
0.0381
 41
0.0381
 70
0
  0
VERTEX
  8
49
 10
25.9000
 20
22.7810
 30
0.0000
 42
1.0000
  0
VERTEX
  8
49
 10
25.9000
 20
22.8191
 30
0.0000
  0
SEQEND
  8
0
  0
POLYLINE
  8
49
 66
1
 10
0.0000
 20
0.0000
 30
0.0000
 40
0.0381
 41
0.0381
 70
0
  0
VERTEX
  8
49
 10
23.0000
 20
22.8191
 30
0.0000
 42
1.0000
  0
VERTEX
  8
49
 10
23.0000
 20
22.7810
 30
0.0000
  0
SEQEND
  8
0
  0
POLYLINE
  8
49
 66
1
 10
0.0000
 20
0.0000
 30
0.0000
 40
0.0762
 41
0.0762
 70
0
  0
VERTEX
  8
49
 10
25.9000
 20
22.8000
 30
0.0000
  0
VERTEX
  8
49
 10
25.9000
 20
22.0000
 30
0.0000
  0
SEQEND
  8
0
  0
POLYLINE
  8
49
 66
1
 10
0.0000
 20
0.0000
 30
0.0000
 40
0.0381
 41
0.0381
 70
0
  0
VERTEX
  8
49
 10
25.8810
 20
22.0000
 30
0.0000
 42
1.0000
  0
VERTEX
  8
49
 10
25.9191
 20
22.0000
 30
0.0000
  0
SEQEND
  8
0
  0
POLYLINE
  8
49
 66
1
 10
0.0000
 20
0.0000
 30
0.0000
 40
0.0381
 41
0.0381
 70
0
  0
VERTEX
  8
49
 10
25.9191
 20
22.8000
 30
0.0000
 42
1.0000
  0
VERTEX
  8
49
 10
25.8810
 20
22.8000
 30
0.0000
  0
SEQEND
  8
0
  0
POLYLINE
  8
49
 66
1
 10
0.0000
 20
0.0000
 30
0.0000
 40
0.0762
 41
0.0762
 70
0
  0
VERTEX
  8
49
 10
25.9000
 20
22.0000
 30
0.0000
  0
VERTEX
  8
49
 10
23.0000
 20
22.0000
 30
0.0000
  0
SEQEND
  8
0
  0
POLYLINE
  8
49
 66
1
 10
0.0000
 20
0.0000
 30
0.0000
 40
0.0381
 41
0.0381
 70
0
  0
VERTEX
  8
49
 10
23.0000
 20
22.0191
 30
0.0000
 42
1.0000
  0
VERTEX
  8
49
 10
23.0000
 20
21.9809
 30
0.0000
  0
SEQEND
  8
0
  0
POLYLINE
  8
49
 66
1
 10
0.0000
 20
0.0000
 30
0.0000
 40
0.0381
 41
0.0381
 70
0
  0
VERTEX
  8
49
 10
25.9000
 20
21.9809
 30
0.0000
 42
1.0000
  0
VERTEX
  8
49
 10
25.9000
 20
22.0191
 30
0.0000
  0
SEQEND
  8
0
  0
POLYLINE
  8
49
 66
1
 10
0.0000
 20
0.0000
 30
0.0000
 40
0.0762
 41
0.0762
 70
0
  0
VERTEX
  8
49
 10
23.0000
 20
22.0000
 30
0.0000
  0
VERTEX
  8
49
 10
23.0000
 20
22.8000
 30
0.0000
  0
SEQEND
  8
0
  0
POLYLINE
  8
49
 66
1
 10
0.0000
 20
0.0000
 30
0.0000
 40
0.0381
 41
0.0381
 70
0
  0
VERTEX
  8
49
 10
23.0191
 20
22.8000
 30
0.0000
 42
1.0000
  0
VERTEX
  8
49
 10
22.9809
 20
22.8000
 30
0.0000
  0
SEQEND
  8
0
  0
POLYLINE
  8
49
 66
1
 10
0.0000
 20
0.0000
 30
0.0000
 40
0.0381
 41
0.0381
 70
0
  0
VERTEX
  8
49
 10
22.9809
 20
22.0000
 30
0.0000
 42
1.0000
  0
VERTEX
  8
49
 10
23.0191
 20
22.0000
 30
0.0000
  0
SEQEND
  8
0
  0
POLYLINE
  8
49
 66
1
 10
0.0000
 20
0.0000
 30
0.0000
 40
0.0762
 41
0.0762
 70
0
  0
VERTEX
  8
49
 10
40.6000
 20
16.1000
 30
0.0000
  0
VERTEX
  8
49
 10
42.0000
 20
16.1000
 30
0.0000
  0
SEQEND
  8
0
  0
POLYLINE
  8
49
 66
1
 10
0.0000
 20
0.0000
 30
0.0000
 40
0.0381
 41
0.0381
 70
0
  0
VERTEX
  8
49
 10
42.0000
 20
16.0810
 30
0.0000
 42
1.0000
  0
VERTEX
  8
49
 10
42.0000
 20
16.1191
 30
0.0000
  0
SEQEND
  8
0
  0
POLYLINE
  8
49
 66
1
 10
0.0000
 20
0.0000
 30
0.0000
 40
0.0381
 41
0.0381
 70
0
  0
VERTEX
  8
49
 10
40.6000
 20
16.1191
 30
0.0000
 42
1.0000
  0
VERTEX
  8
49
 10
40.6000
 20
16.0810
 30
0.0000
  0
SEQEND
  8
0
  0
POLYLINE
  8
49
 66
1
 10
0.0000
 20
0.0000
 30
0.0000
 40
0.0762
 41
0.0762
 70
0
  0
VERTEX
  8
49
 10
42.0000
 20
16.1000
 30
0.0000
  0
VERTEX
  8
49
 10
42.0000
 20
13.3000
 30
0.0000
  0
SEQEND
  8
0
  0
POLYLINE
  8
49
 66
1
 10
0.0000
 20
0.0000
 30
0.0000
 40
0.0381
 41
0.0381
 70
0
  0
VERTEX
  8
49
 10
41.9809
 20
13.3000
 30
0.0000
 42
1.0000
  0
VERTEX
  8
49
 10
42.0191
 20
13.3000
 30
0.0000
  0
SEQEND
  8
0
  0
POLYLINE
  8
49
 66
1
 10
0.0000
 20
0.0000
 30
0.0000
 40
0.0381
 41
0.0381
 70
0
  0
VERTEX
  8
49
 10
42.0191
 20
16.1000
 30
0.0000
 42
1.0000
  0
VERTEX
  8
49
 10
41.9809
 20
16.1000
 30
0.0000
  0
SEQEND
  8
0
  0
POLYLINE
  8
49
 66
1
 10
0.0000
 20
0.0000
 30
0.0000
 40
0.0762
 41
0.0762
 70
0
  0
VERTEX
  8
49
 10
42.0000
 20
13.3000
 30
0.0000
  0
VERTEX
  8
49
 10
40.6000
 20
13.3000
 30
0.0000
  0
SEQEND
  8
0
  0
POLYLINE
  8
49
 66
1
 10
0.0000
 20
0.0000
 30
0.0000
 40
0.0381
 41
0.0381
 70
0
  0
VERTEX
  8
49
 10
40.6000
 20
13.3191
 30
0.0000
 42
1.0000
  0
VERTEX
  8
49
 10
40.6000
 20
13.2810
 30
0.0000
  0
SEQEND
  8
0
  0
POLYLINE
  8
49
 66
1
 10
0.0000
 20
0.0000
 30
0.0000
 40
0.0381
 41
0.0381
 70
0
  0
VERTEX
  8
49
 10
42.0000
 20
13.2810
 30
0.0000
 42
1.0000
  0
VERTEX
  8
49
 10
42.0000
 20
13.3191
 30
0.0000
  0
SEQEND
  8
0
  0
POLYLINE
  8
49
 66
1
 10
0.0000
 20
0.0000
 30
0.0000
 40
0.0762
 41
0.0762
 70
0
  0
VERTEX
  8
49
 10
40.6000
 20
13.3000
 30
0.0000
  0
VERTEX
  8
49
 10
40.6000
 20
16.1000
 30
0.0000
  0
SEQEND
  8
0
  0
POLYLINE
  8
49
 66
1
 10
0.0000
 20
0.0000
 30
0.0000
 40
0.0381
 41
0.0381
 70
0
  0
VERTEX
  8
49
 10
40.6191
 20
16.1000
 30
0.0000
 42
1.0000
  0
VERTEX
  8
49
 10
40.5810
 20
16.1000
 30
0.0000
  0
SEQEND
  8
0
  0
POLYLINE
  8
49
 66
1
 10
0.0000
 20
0.0000
 30
0.0000
 40
0.0381
 41
0.0381
 70
0
  0
VERTEX
  8
49
 10
40.5810
 20
13.3000
 30
0.0000
 42
1.0000
  0
VERTEX
  8
49
 10
40.6191
 20
13.3000
 30
0.0000
  0
SEQEND
  8
0
  0
POLYLINE
  8
49
 66
1
 10
0.0000
 20
0.0000
 30
0.0000
 40
0.0762
 41
0.0762
 70
0
  0
VERTEX
  8
49
 10
45.3000
 20
3.5000
 30
0.0000
  0
VERTEX
  8
49
 10
48.1000
 20
3.5000
 30
0.0000
  0
SEQEND
  8
0
  0
POLYLINE
  8
49
 66
1
 10
0.0000
 20
0.0000
 30
0.0000
 40
0.0381
 41
0.0381
 70
0
  0
VERTEX
  8
49
 10
48.1000
 20
3.4809
 30
0.0000
 42
1.0000
  0
VERTEX
  8
49
 10
48.1000
 20
3.5191
 30
0.0000
  0
SEQEND
  8
0
  0
POLYLINE
  8
49
 66
1
 10
0.0000
 20
0.0000
 30
0.0000
 40
0.0381
 41
0.0381
 70
0
  0
VERTEX
  8
49
 10
45.3000
 20
3.5191
 30
0.0000
 42
1.0000
  0
VERTEX
  8
49
 10
45.3000
 20
3.4809
 30
0.0000
  0
SEQEND
  8
0
  0
POLYLINE
  8
49
 66
1
 10
0.0000
 20
0.0000
 30
0.0000
 40
0.0762
 41
0.0762
 70
0
  0
VERTEX
  8
49
 10
48.1000
 20
3.5000
 30
0.0000
  0
VERTEX
  8
49
 10
48.1000
 20
2.2000
 30
0.0000
  0
SEQEND
  8
0
  0
POLYLINE
  8
49
 66
1
 10
0.0000
 20
0.0000
 30
0.0000
 40
0.0381
 41
0.0381
 70
0
  0
VERTEX
  8
49
 10
48.0810
 20
2.2000
 30
0.0000
 42
1.0000
  0
VERTEX
  8
49
 10
48.1191
 20
2.2000
 30
0.0000
  0
SEQEND
  8
0
  0
POLYLINE
  8
49
 66
1
 10
0.0000
 20
0.0000
 30
0.0000
 40
0.0381
 41
0.0381
 70
0
  0
VERTEX
  8
49
 10
48.1191
 20
3.5000
 30
0.0000
 42
1.0000
  0
VERTEX
  8
49
 10
48.0810
 20
3.5000
 30
0.0000
  0
SEQEND
  8
0
  0
POLYLINE
  8
49
 66
1
 10
0.0000
 20
0.0000
 30
0.0000
 40
0.0762
 41
0.0762
 70
0
  0
VERTEX
  8
49
 10
48.1000
 20
2.2000
 30
0.0000
  0
VERTEX
  8
49
 10
45.3000
 20
2.2000
 30
0.0000
  0
SEQEND
  8
0
  0
POLYLINE
  8
49
 66
1
 10
0.0000
 20
0.0000
 30
0.0000
 40
0.0381
 41
0.0381
 70
0
  0
VERTEX
  8
49
 10
45.3000
 20
2.2191
 30
0.0000
 42
1.0000
  0
VERTEX
  8
49
 10
45.3000
 20
2.1810
 30
0.0000
  0
SEQEND
  8
0
  0
POLYLINE
  8
49
 66
1
 10
0.0000
 20
0.0000
 30
0.0000
 40
0.0381
 41
0.0381
 70
0
  0
VERTEX
  8
49
 10
48.1000
 20
2.1810
 30
0.0000
 42
1.0000
  0
VERTEX
  8
49
 10
48.1000
 20
2.2191
 30
0.0000
  0
SEQEND
  8
0
  0
POLYLINE
  8
49
 66
1
 10
0.0000
 20
0.0000
 30
0.0000
 40
0.0762
 41
0.0762
 70
0
  0
VERTEX
  8
49
 10
45.3000
 20
2.2000
 30
0.0000
  0
VERTEX
  8
49
 10
45.3000
 20
3.5000
 30
0.0000
  0
SEQEND
  8
0
  0
POLYLINE
  8
49
 66
1
 10
0.0000
 20
0.0000
 30
0.0000
 40
0.0381
 41
0.0381
 70
0
  0
VERTEX
  8
49
 10
45.3191
 20
3.5000
 30
0.0000
 42
1.0000
  0
VERTEX
  8
49
 10
45.2810
 20
3.5000
 30
0.0000
  0
SEQEND
  8
0
  0
POLYLINE
  8
49
 66
1
 10
0.0000
 20
0.0000
 30
0.0000
 40
0.0381
 41
0.0381
 70
0
  0
VERTEX
  8
49
 10
45.2810
 20
2.2000
 30
0.0000
 42
1.0000
  0
VERTEX
  8
49
 10
45.3191
 20
2.2000
 30
0.0000
  0
SEQEND
  8
0
  0
POLYLINE
  8
49
 66
1
 10
0.0000
 20
0.0000
 30
0.0000
 40
0.0762
 41
0.0762
 70
0
  0
VERTEX
  8
49
 10
74.9000
 20
3.5000
 30
0.0000
  0
VERTEX
  8
49
 10
82.2000
 20
3.5000
 30
0.0000
  0
SEQEND
  8
0
  0
POLYLINE
  8
49
 66
1
 10
0.0000
 20
0.0000
 30
0.0000
 40
0.0381
 41
0.0381
 70
0
  0
VERTEX
  8
49
 10
82.2000
 20
3.4809
 30
0.0000
 42
1.0000
  0
VERTEX
  8
49
 10
82.2000
 20
3.5191
 30
0.0000
  0
SEQEND
  8
0
  0
POLYLINE
  8
49
 66
1
 10
0.0000
 20
0.0000
 30
0.0000
 40
0.0381
 41
0.0381
 70
0
  0
VERTEX
  8
49
 10
74.9000
 20
3.5191
 30
0.0000
 42
1.0000
  0
VERTEX
  8
49
 10
74.9000
 20
3.4809
 30
0.0000
  0
SEQEND
  8
0
  0
POLYLINE
  8
49
 66
1
 10
0.0000
 20
0.0000
 30
0.0000
 40
0.0762
 41
0.0762
 70
0
  0
VERTEX
  8
49
 10
82.2000
 20
3.5000
 30
0.0000
  0
VERTEX
  8
49
 10
82.2000
 20
1.9000
 30
0.0000
  0
SEQEND
  8
0
  0
POLYLINE
  8
49
 66
1
 10
0.0000
 20
0.0000
 30
0.0000
 40
0.0381
 41
0.0381
 70
0
  0
VERTEX
  8
49
 10
82.1810
 20
1.9000
 30
0.0000
 42
1.0000
  0
VERTEX
  8
49
 10
82.2190
 20
1.9000
 30
0.0000
  0
SEQEND
  8
0
  0
POLYLINE
  8
49
 66
1
 10
0.0000
 20
0.0000
 30
0.0000
 40
0.0381
 41
0.0381
 70
0
  0
VERTEX
  8
49
 10
82.2190
 20
3.5000
 30
0.0000
 42
1.0000
  0
VERTEX
  8
49
 10
82.1810
 20
3.5000
 30
0.0000
  0
SEQEND
  8
0
  0
POLYLINE
  8
49
 66
1
 10
0.0000
 20
0.0000
 30
0.0000
 40
0.0762
 41
0.0762
 70
0
  0
VERTEX
  8
49
 10
82.2000
 20
1.9000
 30
0.0000
  0
VERTEX
  8
49
 10
74.9000
 20
1.9000
 30
0.0000
  0
SEQEND
  8
0
  0
POLYLINE
  8
49
 66
1
 10
0.0000
 20
0.0000
 30
0.0000
 40
0.0381
 41
0.0381
 70
0
  0
VERTEX
  8
49
 10
74.9000
 20
1.9191
 30
0.0000
 42
1.0000
  0
VERTEX
  8
49
 10
74.9000
 20
1.8810
 30
0.0000
  0
SEQEND
  8
0
  0
POLYLINE
  8
49
 66
1
 10
0.0000
 20
0.0000
 30
0.0000
 40
0.0381
 41
0.0381
 70
0
  0
VERTEX
  8
49
 10
82.2000
 20
1.8810
 30
0.0000
 42
1.0000
  0
VERTEX
  8
49
 10
82.2000
 20
1.9191
 30
0.0000
  0
SEQEND
  8
0
  0
POLYLINE
  8
49
 66
1
 10
0.0000
 20
0.0000
 30
0.0000
 40
0.0762
 41
0.0762
 70
0
  0
VERTEX
  8
49
 10
74.9000
 20
1.9000
 30
0.0000
  0
VERTEX
  8
49
 10
74.9000
 20
3.5000
 30
0.0000
  0
SEQEND
  8
0
  0
POLYLINE
  8
49
 66
1
 10
0.0000
 20
0.0000
 30
0.0000
 40
0.0381
 41
0.0381
 70
0
  0
VERTEX
  8
49
 10
74.9190
 20
3.5000
 30
0.0000
 42
1.0000
  0
VERTEX
  8
49
 10
74.8810
 20
3.5000
 30
0.0000
  0
SEQEND
  8
0
  0
POLYLINE
  8
49
 66
1
 10
0.0000
 20
0.0000
 30
0.0000
 40
0.0381
 41
0.0381
 70
0
  0
VERTEX
  8
49
 10
74.8810
 20
1.9000
 30
0.0000
 42
1.0000
  0
VERTEX
  8
49
 10
74.9190
 20
1.9000
 30
0.0000
  0
SEQEND
  8
0
  0
POLYLINE
  8
49
 66
1
 10
0.0000
 20
0.0000
 30
0.0000
 40
0.0762
 41
0.0762
 70
0
  0
VERTEX
  8
49
 10
8.4000
 20
18.2000
 30
0.0000
  0
VERTEX
  8
49
 10
10.3000
 20
18.2000
 30
0.0000
  0
SEQEND
  8
0
  0
POLYLINE
  8
49
 66
1
 10
0.0000
 20
0.0000
 30
0.0000
 40
0.0381
 41
0.0381
 70
0
  0
VERTEX
  8
49
 10
10.3000
 20
18.1809
 30
0.0000
 42
1.0000
  0
VERTEX
  8
49
 10
10.3000
 20
18.2190
 30
0.0000
  0
SEQEND
  8
0
  0
POLYLINE
  8
49
 66
1
 10
0.0000
 20
0.0000
 30
0.0000
 40
0.0381
 41
0.0381
 70
0
  0
VERTEX
  8
49
 10
8.4000
 20
18.2190
 30
0.0000
 42
1.0000
  0
VERTEX
  8
49
 10
8.4000
 20
18.1809
 30
0.0000
  0
SEQEND
  8
0
  0
POLYLINE
  8
49
 66
1
 10
0.0000
 20
0.0000
 30
0.0000
 40
0.0762
 41
0.0762
 70
0
  0
VERTEX
  8
49
 10
10.3000
 20
18.2000
 30
0.0000
  0
VERTEX
  8
49
 10
10.3000
 20
16.3000
 30
0.0000
  0
SEQEND
  8
0
  0
POLYLINE
  8
49
 66
1
 10
0.0000
 20
0.0000
 30
0.0000
 40
0.0381
 41
0.0381
 70
0
  0
VERTEX
  8
49
 10
10.2810
 20
16.3000
 30
0.0000
 42
1.0000
  0
VERTEX
  8
49
 10
10.3191
 20
16.3000
 30
0.0000
  0
SEQEND
  8
0
  0
POLYLINE
  8
49
 66
1
 10
0.0000
 20
0.0000
 30
0.0000
 40
0.0381
 41
0.0381
 70
0
  0
VERTEX
  8
49
 10
10.3191
 20
18.2000
 30
0.0000
 42
1.0000
  0
VERTEX
  8
49
 10
10.2810
 20
18.2000
 30
0.0000
  0
SEQEND
  8
0
  0
POLYLINE
  8
49
 66
1
 10
0.0000
 20
0.0000
 30
0.0000
 40
0.0762
 41
0.0762
 70
0
  0
VERTEX
  8
49
 10
10.3000
 20
16.3000
 30
0.0000
  0
VERTEX
  8
49
 10
8.4000
 20
16.3000
 30
0.0000
  0
SEQEND
  8
0
  0
POLYLINE
  8
49
 66
1
 10
0.0000
 20
0.0000
 30
0.0000
 40
0.0381
 41
0.0381
 70
0
  0
VERTEX
  8
49
 10
8.4000
 20
16.3191
 30
0.0000
 42
1.0000
  0
VERTEX
  8
49
 10
8.4000
 20
16.2810
 30
0.0000
  0
SEQEND
  8
0
  0
POLYLINE
  8
49
 66
1
 10
0.0000
 20
0.0000
 30
0.0000
 40
0.0381
 41
0.0381
 70
0
  0
VERTEX
  8
49
 10
10.3000
 20
16.2810
 30
0.0000
 42
1.0000
  0
VERTEX
  8
49
 10
10.3000
 20
16.3191
 30
0.0000
  0
SEQEND
  8
0
  0
POLYLINE
  8
49
 66
1
 10
0.0000
 20
0.0000
 30
0.0000
 40
0.0762
 41
0.0762
 70
0
  0
VERTEX
  8
49
 10
8.4000
 20
16.3000
 30
0.0000
  0
VERTEX
  8
49
 10
8.4000
 20
18.2000
 30
0.0000
  0
SEQEND
  8
0
  0
POLYLINE
  8
49
 66
1
 10
0.0000
 20
0.0000
 30
0.0000
 40
0.0381
 41
0.0381
 70
0
  0
VERTEX
  8
49
 10
8.4191
 20
18.2000
 30
0.0000
 42
1.0000
  0
VERTEX
  8
49
 10
8.3810
 20
18.2000
 30
0.0000
  0
SEQEND
  8
0
  0
POLYLINE
  8
49
 66
1
 10
0.0000
 20
0.0000
 30
0.0000
 40
0.0381
 41
0.0381
 70
0
  0
VERTEX
  8
49
 10
8.3810
 20
16.3000
 30
0.0000
 42
1.0000
  0
VERTEX
  8
49
 10
8.4191
 20
16.3000
 30
0.0000
  0
SEQEND
  8
0
  0
POLYLINE
  8
49
 66
1
 10
0.0000
 20
0.0000
 30
0.0000
 40
0.0762
 41
0.0762
 70
0
  0
VERTEX
  8
49
 10
79.6000
 20
13.5000
 30
0.0000
  0
VERTEX
  8
49
 10
83.7000
 20
13.5000
 30
0.0000
  0
SEQEND
  8
0
  0
POLYLINE
  8
49
 66
1
 10
0.0000
 20
0.0000
 30
0.0000
 40
0.0381
 41
0.0381
 70
0
  0
VERTEX
  8
49
 10
83.7000
 20
13.4809
 30
0.0000
 42
1.0000
  0
VERTEX
  8
49
 10
83.7000
 20
13.5191
 30
0.0000
  0
SEQEND
  8
0
  0
POLYLINE
  8
49
 66
1
 10
0.0000
 20
0.0000
 30
0.0000
 40
0.0381
 41
0.0381
 70
0
  0
VERTEX
  8
49
 10
79.6000
 20
13.5191
 30
0.0000
 42
1.0000
  0
VERTEX
  8
49
 10
79.6000
 20
13.4809
 30
0.0000
  0
SEQEND
  8
0
  0
POLYLINE
  8
49
 66
1
 10
0.0000
 20
0.0000
 30
0.0000
 40
0.0762
 41
0.0762
 70
0
  0
VERTEX
  8
49
 10
83.7000
 20
13.5000
 30
0.0000
  0
VERTEX
  8
49
 10
83.7000
 20
11.9000
 30
0.0000
  0
SEQEND
  8
0
  0
POLYLINE
  8
49
 66
1
 10
0.0000
 20
0.0000
 30
0.0000
 40
0.0381
 41
0.0381
 70
0
  0
VERTEX
  8
49
 10
83.6810
 20
11.9000
 30
0.0000
 42
1.0000
  0
VERTEX
  8
49
 10
83.7190
 20
11.9000
 30
0.0000
  0
SEQEND
  8
0
  0
POLYLINE
  8
49
 66
1
 10
0.0000
 20
0.0000
 30
0.0000
 40
0.0381
 41
0.0381
 70
0
  0
VERTEX
  8
49
 10
83.7190
 20
13.5000
 30
0.0000
 42
1.0000
  0
VERTEX
  8
49
 10
83.6810
 20
13.5000
 30
0.0000
  0
SEQEND
  8
0
  0
POLYLINE
  8
49
 66
1
 10
0.0000
 20
0.0000
 30
0.0000
 40
0.0762
 41
0.0762
 70
0
  0
VERTEX
  8
49
 10
83.7000
 20
11.9000
 30
0.0000
  0
VERTEX
  8
49
 10
79.6000
 20
11.9000
 30
0.0000
  0
SEQEND
  8
0
  0
POLYLINE
  8
49
 66
1
 10
0.0000
 20
0.0000
 30
0.0000
 40
0.0381
 41
0.0381
 70
0
  0
VERTEX
  8
49
 10
79.6000
 20
11.9191
 30
0.0000
 42
1.0000
  0
VERTEX
  8
49
 10
79.6000
 20
11.8810
 30
0.0000
  0
SEQEND
  8
0
  0
POLYLINE
  8
49
 66
1
 10
0.0000
 20
0.0000
 30
0.0000
 40
0.0381
 41
0.0381
 70
0
  0
VERTEX
  8
49
 10
83.7000
 20
11.8810
 30
0.0000
 42
1.0000
  0
VERTEX
  8
49
 10
83.7000
 20
11.9191
 30
0.0000
  0
SEQEND
  8
0
  0
POLYLINE
  8
49
 66
1
 10
0.0000
 20
0.0000
 30
0.0000
 40
0.0762
 41
0.0762
 70
0
  0
VERTEX
  8
49
 10
79.6000
 20
11.9000
 30
0.0000
  0
VERTEX
  8
49
 10
79.6000
 20
13.5000
 30
0.0000
  0
SEQEND
  8
0
  0
POLYLINE
  8
49
 66
1
 10
0.0000
 20
0.0000
 30
0.0000
 40
0.0381
 41
0.0381
 70
0
  0
VERTEX
  8
49
 10
79.6191
 20
13.5000
 30
0.0000
 42
1.0000
  0
VERTEX
  8
49
 10
79.5810
 20
13.5000
 30
0.0000
  0
SEQEND
  8
0
  0
POLYLINE
  8
49
 66
1
 10
0.0000
 20
0.0000
 30
0.0000
 40
0.0381
 41
0.0381
 70
0
  0
VERTEX
  8
49
 10
79.5810
 20
11.9000
 30
0.0000
 42
1.0000
  0
VERTEX
  8
49
 10
79.6191
 20
11.9000
 30
0.0000
  0
SEQEND
  8
0
  0
POLYLINE
  8
49
 66
1
 10
0.0000
 20
0.0000
 30
0.0000
 40
0.0762
 41
0.0762
 70
0
  0
VERTEX
  8
49
 10
79.6000
 20
16.0000
 30
0.0000
  0
VERTEX
  8
49
 10
83.7000
 20
16.0000
 30
0.0000
  0
SEQEND
  8
0
  0
POLYLINE
  8
49
 66
1
 10
0.0000
 20
0.0000
 30
0.0000
 40
0.0381
 41
0.0381
 70
0
  0
VERTEX
  8
49
 10
83.7000
 20
15.9809
 30
0.0000
 42
1.0000
  0
VERTEX
  8
49
 10
83.7000
 20
16.0191
 30
0.0000
  0
SEQEND
  8
0
  0
POLYLINE
  8
49
 66
1
 10
0.0000
 20
0.0000
 30
0.0000
 40
0.0381
 41
0.0381
 70
0
  0
VERTEX
  8
49
 10
79.6000
 20
16.0191
 30
0.0000
 42
1.0000
  0
VERTEX
  8
49
 10
79.6000
 20
15.9809
 30
0.0000
  0
SEQEND
  8
0
  0
POLYLINE
  8
49
 66
1
 10
0.0000
 20
0.0000
 30
0.0000
 40
0.0762
 41
0.0762
 70
0
  0
VERTEX
  8
49
 10
83.7000
 20
16.0000
 30
0.0000
  0
VERTEX
  8
49
 10
83.7000
 20
14.4000
 30
0.0000
  0
SEQEND
  8
0
  0
POLYLINE
  8
49
 66
1
 10
0.0000
 20
0.0000
 30
0.0000
 40
0.0381
 41
0.0381
 70
0
  0
VERTEX
  8
49
 10
83.6810
 20
14.4000
 30
0.0000
 42
1.0000
  0
VERTEX
  8
49
 10
83.7190
 20
14.4000
 30
0.0000
  0
SEQEND
  8
0
  0
POLYLINE
  8
49
 66
1
 10
0.0000
 20
0.0000
 30
0.0000
 40
0.0381
 41
0.0381
 70
0
  0
VERTEX
  8
49
 10
83.7190
 20
16.0000
 30
0.0000
 42
1.0000
  0
VERTEX
  8
49
 10
83.6810
 20
16.0000
 30
0.0000
  0
SEQEND
  8
0
  0
POLYLINE
  8
49
 66
1
 10
0.0000
 20
0.0000
 30
0.0000
 40
0.0762
 41
0.0762
 70
0
  0
VERTEX
  8
49
 10
83.7000
 20
14.4000
 30
0.0000
  0
VERTEX
  8
49
 10
79.6000
 20
14.4000
 30
0.0000
  0
SEQEND
  8
0
  0
POLYLINE
  8
49
 66
1
 10
0.0000
 20
0.0000
 30
0.0000
 40
0.0381
 41
0.0381
 70
0
  0
VERTEX
  8
49
 10
79.6000
 20
14.4191
 30
0.0000
 42
1.0000
  0
VERTEX
  8
49
 10
79.6000
 20
14.3810
 30
0.0000
  0
SEQEND
  8
0
  0
POLYLINE
  8
49
 66
1
 10
0.0000
 20
0.0000
 30
0.0000
 40
0.0381
 41
0.0381
 70
0
  0
VERTEX
  8
49
 10
83.7000
 20
14.3810
 30
0.0000
 42
1.0000
  0
VERTEX
  8
49
 10
83.7000
 20
14.4191
 30
0.0000
  0
SEQEND
  8
0
  0
POLYLINE
  8
49
 66
1
 10
0.0000
 20
0.0000
 30
0.0000
 40
0.0762
 41
0.0762
 70
0
  0
VERTEX
  8
49
 10
79.6000
 20
14.4000
 30
0.0000
  0
VERTEX
  8
49
 10
79.6000
 20
16.0000
 30
0.0000
  0
SEQEND
  8
0
  0
POLYLINE
  8
49
 66
1
 10
0.0000
 20
0.0000
 30
0.0000
 40
0.0381
 41
0.0381
 70
0
  0
VERTEX
  8
49
 10
79.6191
 20
16.0000
 30
0.0000
 42
1.0000
  0
VERTEX
  8
49
 10
79.5810
 20
16.0000
 30
0.0000
  0
SEQEND
  8
0
  0
POLYLINE
  8
49
 66
1
 10
0.0000
 20
0.0000
 30
0.0000
 40
0.0381
 41
0.0381
 70
0
  0
VERTEX
  8
49
 10
79.5810
 20
14.4000
 30
0.0000
 42
1.0000
  0
VERTEX
  8
49
 10
79.6191
 20
14.4000
 30
0.0000
  0
SEQEND
  8
0
  0
POLYLINE
  8
49
 66
1
 10
0.0000
 20
0.0000
 30
0.0000
 40
0.0762
 41
0.0762
 70
0
  0
VERTEX
  8
49
 10
79.6000
 20
10.9000
 30
0.0000
  0
VERTEX
  8
49
 10
83.7000
 20
10.9000
 30
0.0000
  0
SEQEND
  8
0
  0
POLYLINE
  8
49
 66
1
 10
0.0000
 20
0.0000
 30
0.0000
 40
0.0381
 41
0.0381
 70
0
  0
VERTEX
  8
49
 10
83.7000
 20
10.8810
 30
0.0000
 42
1.0000
  0
VERTEX
  8
49
 10
83.7000
 20
10.9191
 30
0.0000
  0
SEQEND
  8
0
  0
POLYLINE
  8
49
 66
1
 10
0.0000
 20
0.0000
 30
0.0000
 40
0.0381
 41
0.0381
 70
0
  0
VERTEX
  8
49
 10
79.6000
 20
10.9191
 30
0.0000
 42
1.0000
  0
VERTEX
  8
49
 10
79.6000
 20
10.8810
 30
0.0000
  0
SEQEND
  8
0
  0
POLYLINE
  8
49
 66
1
 10
0.0000
 20
0.0000
 30
0.0000
 40
0.0762
 41
0.0762
 70
0
  0
VERTEX
  8
49
 10
83.7000
 20
10.9000
 30
0.0000
  0
VERTEX
  8
49
 10
83.7000
 20
9.4000
 30
0.0000
  0
SEQEND
  8
0
  0
POLYLINE
  8
49
 66
1
 10
0.0000
 20
0.0000
 30
0.0000
 40
0.0381
 41
0.0381
 70
0
  0
VERTEX
  8
49
 10
83.6810
 20
9.4000
 30
0.0000
 42
1.0000
  0
VERTEX
  8
49
 10
83.7190
 20
9.4000
 30
0.0000
  0
SEQEND
  8
0
  0
POLYLINE
  8
49
 66
1
 10
0.0000
 20
0.0000
 30
0.0000
 40
0.0381
 41
0.0381
 70
0
  0
VERTEX
  8
49
 10
83.7190
 20
10.9000
 30
0.0000
 42
1.0000
  0
VERTEX
  8
49
 10
83.6810
 20
10.9000
 30
0.0000
  0
SEQEND
  8
0
  0
POLYLINE
  8
49
 66
1
 10
0.0000
 20
0.0000
 30
0.0000
 40
0.0762
 41
0.0762
 70
0
  0
VERTEX
  8
49
 10
83.7000
 20
9.4000
 30
0.0000
  0
VERTEX
  8
49
 10
79.6000
 20
9.4000
 30
0.0000
  0
SEQEND
  8
0
  0
POLYLINE
  8
49
 66
1
 10
0.0000
 20
0.0000
 30
0.0000
 40
0.0381
 41
0.0381
 70
0
  0
VERTEX
  8
49
 10
79.6000
 20
9.4191
 30
0.0000
 42
1.0000
  0
VERTEX
  8
49
 10
79.6000
 20
9.3810
 30
0.0000
  0
SEQEND
  8
0
  0
POLYLINE
  8
49
 66
1
 10
0.0000
 20
0.0000
 30
0.0000
 40
0.0381
 41
0.0381
 70
0
  0
VERTEX
  8
49
 10
83.7000
 20
9.3810
 30
0.0000
 42
1.0000
  0
VERTEX
  8
49
 10
83.7000
 20
9.4191
 30
0.0000
  0
SEQEND
  8
0
  0
POLYLINE
  8
49
 66
1
 10
0.0000
 20
0.0000
 30
0.0000
 40
0.0762
 41
0.0762
 70
0
  0
VERTEX
  8
49
 10
79.6000
 20
9.4000
 30
0.0000
  0
VERTEX
  8
49
 10
79.6000
 20
10.9000
 30
0.0000
  0
SEQEND
  8
0
  0
POLYLINE
  8
49
 66
1
 10
0.0000
 20
0.0000
 30
0.0000
 40
0.0381
 41
0.0381
 70
0
  0
VERTEX
  8
49
 10
79.6191
 20
10.9000
 30
0.0000
 42
1.0000
  0
VERTEX
  8
49
 10
79.5810
 20
10.9000
 30
0.0000
  0
SEQEND
  8
0
  0
POLYLINE
  8
49
 66
1
 10
0.0000
 20
0.0000
 30
0.0000
 40
0.0381
 41
0.0381
 70
0
  0
VERTEX
  8
49
 10
79.5810
 20
9.4000
 30
0.0000
 42
1.0000
  0
VERTEX
  8
49
 10
79.6191
 20
9.4000
 30
0.0000
  0
SEQEND
  8
0
  0
POLYLINE
  8
49
 66
1
 10
0.0000
 20
0.0000
 30
0.0000
 40
0.0762
 41
0.0762
 70
0
  0
VERTEX
  8
49
 10
3.4000
 20
1.3000
 30
0.0000
 42
1.0000
  0
VERTEX
  8
49
 10
3.4000
 20
4.5000
 30
0.0000
 42
1.0000
  0
VERTEX
  8
49
 10
3.4000
 20
1.3000
 30
0.0000
  0
SEQEND
  8
0
  0
POLYLINE
  8
49
 66
1
 10
0.0000
 20
0.0000
 30
0.0000
 40
0.0762
 41
0.0762
 70
0
  0
VERTEX
  8
49
 10
81.0000
 20
21.1000
 30
0.0000
 42
1.0000
  0
VERTEX
  8
49
 10
81.0000
 20
24.3000
 30
0.0000
 42
1.0000
  0
VERTEX
  8
49
 10
81.0000
 20
21.1000
 30
0.0000
  0
SEQEND
  8
0
  0
POLYLINE
  8
49
 66
1
 10
0.0000
 20
0.0000
 30
0.0000
 40
0.0762
 41
0.0762
 70
0
  0
VERTEX
  8
49
 10
3.0000
 20
5.5000
 30
0.0000
 42
1.0000
  0
VERTEX
  8
49
 10
3.0000
 20
8.7000
 30
0.0000
 42
1.0000
  0
VERTEX
  8
49
 10
3.0000
 20
5.5000
 30
0.0000
  0
SEQEND
  8
0
  0
POLYLINE
  8
49
 66
1
 10
0.0000
 20
0.0000
 30
0.0000
 40
0.0762
 41
0.0762
 70
0
  0
VERTEX
  8
49
 10
3.0000
 20
16.9000
 30
0.0000
 42
1.0000
  0
VERTEX
  8
49
 10
3.0000
 20
20.1000
 30
0.0000
 42
1.0000
  0
VERTEX
  8
49
 10
3.0000
 20
16.9000
 30
0.0000
  0
SEQEND
  8
0
  0
POLYLINE
  8
49
 66
1
 10
0.0000
 20
0.0000
 30
0.0000
 40
0.0762
 41
0.0762
 70
0
  0
VERTEX
  8
49
 10
9.8000
 20
0.9802
 30
0.0000
 42
1.0000
  0
VERTEX
  8
49
 10
9.8000
 20
3.0198
 30
0.0000
 42
1.0000
  0
VERTEX
  8
49
 10
9.8000
 20
0.9802
 30
0.0000
  0
SEQEND
  8
0
  0
POLYLINE
  8
49
 66
1
 10
0.0000
 20
0.0000
 30
0.0000
 40
0.0762
 41
0.0762
 70
0
  0
VERTEX
  8
49
 10
12.4000
 20
0.9802
 30
0.0000
 42
1.0000
  0
VERTEX
  8
49
 10
12.4000
 20
3.0198
 30
0.0000
 42
1.0000
  0
VERTEX
  8
49
 10
12.4000
 20
0.9802
 30
0.0000
  0
SEQEND
  8
0
  0
POLYLINE
  8
49
 66
1
 10
0.0000
 20
0.0000
 30
0.0000
 40
0.0762
 41
0.0762
 70
0
  0
VERTEX
  8
49
 10
14.9000
 20
0.9802
 30
0.0000
 42
1.0000
  0
VERTEX
  8
49
 10
14.9000
 20
3.0198
 30
0.0000
 42
1.0000
  0
VERTEX
  8
49
 10
14.9000
 20
0.9802
 30
0.0000
  0
SEQEND
  8
0
  0
POLYLINE
  8
49
 66
1
 10
0.0000
 20
0.0000
 30
0.0000
 40
0.0762
 41
0.0762
 70
0
  0
VERTEX
  8
49
 10
17.5000
 20
0.9802
 30
0.0000
 42
1.0000
  0
VERTEX
  8
49
 10
17.5000
 20
3.0198
 30
0.0000
 42
1.0000
  0
VERTEX
  8
49
 10
17.5000
 20
0.9802
 30
0.0000
  0
SEQEND
  8
0
  0
POLYLINE
  8
49
 66
1
 10
0.0000
 20
0.0000
 30
0.0000
 40
0.0762
 41
0.0762
 70
0
  0
VERTEX
  8
49
 10
20.0000
 20
0.9802
 30
0.0000
 42
1.0000
  0
VERTEX
  8
49
 10
20.0000
 20
3.0198
 30
0.0000
 42
1.0000
  0
VERTEX
  8
49
 10
20.0000
 20
0.9802
 30
0.0000
  0
SEQEND
  8
0
  0
POLYLINE
  8
49
 66
1
 10
0.0000
 20
0.0000
 30
0.0000
 40
0.0762
 41
0.0762
 70
0
  0
VERTEX
  8
49
 10
11.9000
 20
14.9950
 30
0.0000
 42
1.0000
  0
VERTEX
  8
49
 10
11.9000
 20
17.0050
 30
0.0000
 42
1.0000
  0
VERTEX
  8
49
 10
11.9000
 20
14.9950
 30
0.0000
  0
SEQEND
  8
0
  0
POLYLINE
  8
49
 66
1
 10
0.0000
 20
0.0000
 30
0.0000
 40
0.0762
 41
0.0762
 70
0
  0
VERTEX
  8
49
 10
11.9000
 20
12.3950
 30
0.0000
 42
1.0000
  0
VERTEX
  8
49
 10
11.9000
 20
14.4050
 30
0.0000
 42
1.0000
  0
VERTEX
  8
49
 10
11.9000
 20
12.3950
 30
0.0000
  0
SEQEND
  8
0
  0
POLYLINE
  8
49
 66
1
 10
0.0000
 20
0.0000
 30
0.0000
 40
0.0762
 41
0.0762
 70
0
  0
VERTEX
  8
49
 10
11.9000
 20
9.8950
 30
0.0000
 42
1.0000
  0
VERTEX
  8
49
 10
11.9000
 20
11.9050
 30
0.0000
 42
1.0000
  0
VERTEX
  8
49
 10
11.9000
 20
9.8950
 30
0.0000
  0
SEQEND
  8
0
  0
POLYLINE
  8
49
 66
1
 10
0.0000
 20
0.0000
 30
0.0000
 40
0.0762
 41
0.0762
 70
0
  0
VERTEX
  8
49
 10
11.9000
 20
7.3950
 30
0.0000
 42
1.0000
  0
VERTEX
  8
49
 10
11.9000
 20
9.4050
 30
0.0000
 42
1.0000
  0
VERTEX
  8
49
 10
11.9000
 20
7.3950
 30
0.0000
  0
SEQEND
  8
0
  0
POLYLINE
  8
49
 66
1
 10
0.0000
 20
0.0000
 30
0.0000
 40
0.0762
 41
0.0762
 70
0
  0
VERTEX
  8
49
 10
9.4000
 20
13.6950
 30
0.0000
 42
1.0000
  0
VERTEX
  8
49
 10
9.4000
 20
15.7050
 30
0.0000
 42
1.0000
  0
VERTEX
  8
49
 10
9.4000
 20
13.6950
 30
0.0000
  0
SEQEND
  8
0
  0
POLYLINE
  8
49
 66
1
 10
0.0000
 20
0.0000
 30
0.0000
 40
0.0762
 41
0.0762
 70
0
  0
VERTEX
  8
49
 10
9.4000
 20
11.1950
 30
0.0000
 42
1.0000
  0
VERTEX
  8
49
 10
9.4000
 20
13.2050
 30
0.0000
 42
1.0000
  0
VERTEX
  8
49
 10
9.4000
 20
11.1950
 30
0.0000
  0
SEQEND
  8
0
  0
POLYLINE
  8
49
 66
1
 10
0.0000
 20
0.0000
 30
0.0000
 40
0.0762
 41
0.0762
 70
0
  0
VERTEX
  8
49
 10
9.4000
 20
8.5950
 30
0.0000
 42
1.0000
  0
VERTEX
  8
49
 10
9.4000
 20
10.6050
 30
0.0000
 42
1.0000
  0
VERTEX
  8
49
 10
9.4000
 20
8.5950
 30
0.0000
  0
SEQEND
  8
0
  0
POLYLINE
  8
49
 66
1
 10
0.0000
 20
0.0000
 30
0.0000
 40
0.0762
 41
0.0762
 70
0
  0
VERTEX
  8
49
 10
20.9000
 20
14.5000
 30
0.0000
 42
1.0000
  0
VERTEX
  8
49
 10
20.9000
 20
15.7000
 30
0.0000
 42
1.0000
  0
VERTEX
  8
49
 10
20.9000
 20
14.5000
 30
0.0000
  0
SEQEND
  8
0
  0
POLYLINE
  8
49
 66
1
 10
0.0000
 20
0.0000
 30
0.0000
 40
0.0762
 41
0.0762
 70
0
  0
VERTEX
  8
49
 10
25.0000
 20
7.3000
 30
0.0000
 42
1.0000
  0
VERTEX
  8
49
 10
25.0000
 20
8.5000
 30
0.0000
 42
1.0000
  0
VERTEX
  8
49
 10
25.0000
 20
7.3000
 30
0.0000
  0
SEQEND
  8
0
  0
POLYLINE
  8
49
 66
1
 10
0.0000
 20
0.0000
 30
0.0000
 40
0.0762
 41
0.0762
 70
0
  0
VERTEX
  8
49
 10
57.3000
 20
17.2000
 30
0.0000
 42
1.0000
  0
VERTEX
  8
49
 10
57.3000
 20
18.4000
 30
0.0000
 42
1.0000
  0
VERTEX
  8
49
 10
57.3000
 20
17.2000
 30
0.0000
  0
SEQEND
  8
0
  0
POLYLINE
  8
49
 66
1
 10
0.0000
 20
0.0000
 30
0.0000
 40
0.0762
 41
0.0762
 70
0
  0
VERTEX
  8
49
 10
19.2000
 20
6.4000
 30
0.0000
 42
1.0000
  0
VERTEX
  8
49
 10
19.2000
 20
7.6000
 30
0.0000
 42
1.0000
  0
VERTEX
  8
49
 10
19.2000
 20
6.4000
 30
0.0000
  0
SEQEND
  8
0
  0
POLYLINE
  8
49
 66
1
 10
0.0000
 20
0.0000
 30
0.0000
 40
0.0762
 41
0.0762
 70
0
  0
VERTEX
  8
49
 10
19.8000
 20
3.8000
 30
0.0000
 42
1.0000
  0
VERTEX
  8
49
 10
19.8000
 20
5.0000
 30
0.0000
 42
1.0000
  0
VERTEX
  8
49
 10
19.8000
 20
3.8000
 30
0.0000
  0
SEQEND
  8
0
  0
POLYLINE
  8
49
 66
1
 10
0.0000
 20
0.0000
 30
0.0000
 40
0.0762
 41
0.0762
 70
0
  0
VERTEX
  8
49
 10
77.3000
 20
12.2000
 30
0.0000
 42
1.0000
  0
VERTEX
  8
49
 10
77.3000
 20
13.2000
 30
0.0000
 42
1.0000
  0
VERTEX
  8
49
 10
77.3000
 20
12.2000
 30
0.0000
  0
SEQEND
  8
0
  0
POLYLINE
  8
49
 66
1
 10
0.0000
 20
0.0000
 30
0.0000
 40
0.0762
 41
0.0762
 70
0
  0
VERTEX
  8
49
 10
26.8000
 20
18.3000
 30
0.0000
 42
1.0000
  0
VERTEX
  8
49
 10
26.8000
 20
19.5000
 30
0.0000
 42
1.0000
  0
VERTEX
  8
49
 10
26.8000
 20
18.3000
 30
0.0000
  0
SEQEND
  8
0
  0
POLYLINE
  8
49
 66
1
 10
0.0000
 20
0.0000
 30
0.0000
 40
0.0762
 41
0.0762
 70
0
  0
VERTEX
  8
49
 10
16.9000
 20
3.8000
 30
0.0000
 42
1.0000
  0
VERTEX
  8
49
 10
16.9000
 20
5.0000
 30
0.0000
 42
1.0000
  0
VERTEX
  8
49
 10
16.9000
 20
3.8000
 30
0.0000
  0
SEQEND
  8
0
  0
POLYLINE
  8
49
 66
1
 10
0.0000
 20
0.0000
 30
0.0000
 40
0.0762
 41
0.0762
 70
0
  0
VERTEX
  8
49
 10
13.9000
 20
3.8000
 30
0.0000
 42
1.0000
  0
VERTEX
  8
49
 10
13.9000
 20
5.0000
 30
0.0000
 42
1.0000
  0
VERTEX
  8
49
 10
13.9000
 20
3.8000
 30
0.0000
  0
SEQEND
  8
0
  0
POLYLINE
  8
49
 66
1
 10
0.0000
 20
0.0000
 30
0.0000
 40
0.0762
 41
0.0762
 70
0
  0
VERTEX
  8
49
 10
78.9000
 20
14.1000
 30
0.0000
 42
1.0000
  0
VERTEX
  8
49
 10
78.9000
 20
15.3000
 30
0.0000
 42
1.0000
  0
VERTEX
  8
49
 10
78.9000
 20
14.1000
 30
0.0000
  0
SEQEND
  8
0
  0
POLYLINE
  8
49
 66
1
 10
0.0000
 20
0.0000
 30
0.0000
 40
0.0762
 41
0.0762
 70
0
  0
VERTEX
  8
49
 10
78.9000
 20
10.1000
 30
0.0000
 42
1.0000
  0
VERTEX
  8
49
 10
78.9000
 20
11.3000
 30
0.0000
 42
1.0000
  0
VERTEX
  8
49
 10
78.9000
 20
10.1000
 30
0.0000
  0
SEQEND
  8
0
  0
POLYLINE
  8
49
 66
1
 10
0.0000
 20
0.0000
 30
0.0000
 40
0.0762
 41
0.0762
 70
0
  0
VERTEX
  8
49
 10
75.7000
 20
14.1000
 30
0.0000
 42
1.0000
  0
VERTEX
  8
49
 10
75.7000
 20
15.3000
 30
0.0000
 42
1.0000
  0
VERTEX
  8
49
 10
75.7000
 20
14.1000
 30
0.0000
  0
SEQEND
  8
0
  0
POLYLINE
  8
49
 66
1
 10
0.0000
 20
0.0000
 30
0.0000
 40
0.0762
 41
0.0762
 70
0
  0
VERTEX
  8
49
 10
75.7000
 20
10.1000
 30
0.0000
 42
1.0000
  0
VERTEX
  8
49
 10
75.7000
 20
11.3000
 30
0.0000
 42
1.0000
  0
VERTEX
  8
49
 10
75.7000
 20
10.1000
 30
0.0000
  0
SEQEND
  8
0
  0
POLYLINE
  8
49
 66
1
 10
0.0000
 20
0.0000
 30
0.0000
 40
0.0762
 41
0.0762
 70
0
  0
VERTEX
  8
49
 10
77.3000
 20
14.6000
 30
0.0000
 42
1.0000
  0
VERTEX
  8
49
 10
77.3000
 20
15.8000
 30
0.0000
 42
1.0000
  0
VERTEX
  8
49
 10
77.3000
 20
14.6000
 30
0.0000
  0
SEQEND
  8
0
  0
POLYLINE
  8
49
 66
1
 10
0.0000
 20
0.0000
 30
0.0000
 40
0.0762
 41
0.0762
 70
0
  0
VERTEX
  8
49
 10
77.3000
 20
9.7000
 30
0.0000
 42
1.0000
  0
VERTEX
  8
49
 10
77.3000
 20
10.9000
 30
0.0000
 42
1.0000
  0
VERTEX
  8
49
 10
77.3000
 20
9.7000
 30
0.0000
  0
SEQEND
  8
0
  0
POLYLINE
  8
49
 66
1
 10
0.0000
 20
0.0000
 30
0.0000
 40
0.0762
 41
0.0762
 70
0
  0
VERTEX
  8
49
 10
26.8000
 20
21.4000
 30
0.0000
 42
1.0000
  0
VERTEX
  8
49
 10
26.8000
 20
22.6000
 30
0.0000
 42
1.0000
  0
VERTEX
  8
49
 10
26.8000
 20
21.4000
 30
0.0000
  0
SEQEND
  8
0
  0
POLYLINE
  8
49
 66
1
 10
0.0000
 20
0.0000
 30
0.0000
 40
0.0762
 41
0.0762
 70
0
  0
VERTEX
  8
49
 10
11.3000
 20
21.3000
 30
0.0000
 42
1.0000
  0
VERTEX
  8
49
 10
11.3000
 20
22.5000
 30
0.0000
 42
1.0000
  0
VERTEX
  8
49
 10
11.3000
 20
21.3000
 30
0.0000
  0
SEQEND
  8
0
  0
POLYLINE
  8
49
 66
1
 10
0.0000
 20
0.0000
 30
0.0000
 40
0.0762
 41
0.0762
 70
0
  0
VERTEX
  8
49
 10
51.6000
 20
17.3000
 30
0.0000
 42
1.0000
  0
VERTEX
  8
49
 10
51.6000
 20
18.5000
 30
0.0000
 42
1.0000
  0
VERTEX
  8
49
 10
51.6000
 20
17.3000
 30
0.0000
  0
SEQEND
  8
0
  0
POLYLINE
  8
49
 66
1
 10
0.0000
 20
0.0000
 30
0.0000
 40
0.0762
 41
0.0762
 70
0
  0
VERTEX
  8
49
 10
68.5000
 20
13.3000
 30
0.0000
 42
1.0000
  0
VERTEX
  8
49
 10
68.5000
 20
14.5000
 30
0.0000
 42
1.0000
  0
VERTEX
  8
49
 10
68.5000
 20
13.3000
 30
0.0000
  0
SEQEND
  8
0
  0
ENDSEC
  0
EOF
