%TF.GenerationSoftware,KiCad,Pcbnew,7.0.5-0*%
%TF.CreationDate,2024-02-03T13:41:04-08:00*%
%TF.ProjectId,transponder-11.9.1,7472616e-7370-46f6-9e64-65722d31312e,rev?*%
%TF.SameCoordinates,Original*%
%TF.FileFunction,Copper,L2,Inr*%
%TF.FilePolarity,Positive*%
%FSLAX46Y46*%
G04 Gerber Fmt 4.6, Leading zero omitted, Abs format (unit mm)*
G04 Created by KiCad (PCBNEW 7.0.5-0) date 2024-02-03 13:41:04*
%MOMM*%
%LPD*%
G01*
G04 APERTURE LIST*
%TA.AperFunction,ComponentPad*%
%ADD10R,1.700000X1.700000*%
%TD*%
%TA.AperFunction,ComponentPad*%
%ADD11O,1.700000X1.700000*%
%TD*%
%TA.AperFunction,ComponentPad*%
%ADD12R,1.500000X1.500000*%
%TD*%
%TA.AperFunction,ComponentPad*%
%ADD13C,1.500000*%
%TD*%
%TA.AperFunction,ComponentPad*%
%ADD14C,0.500000*%
%TD*%
%TA.AperFunction,ViaPad*%
%ADD15C,0.500000*%
%TD*%
%TA.AperFunction,Conductor*%
%ADD16C,0.152000*%
%TD*%
%TA.AperFunction,Conductor*%
%ADD17C,0.254000*%
%TD*%
%TA.AperFunction,Conductor*%
%ADD18C,0.400000*%
%TD*%
G04 APERTURE END LIST*
D10*
%TO.N,+3.3V*%
%TO.C,J2*%
X117325000Y-111900000D03*
D11*
%TO.N,SWDIO*%
X119865000Y-111900000D03*
%TO.N,SWCLK*%
X122405000Y-111900000D03*
%TO.N,NRST*%
X124945000Y-111900000D03*
%TO.N,GND*%
X127485000Y-111900000D03*
%TD*%
D12*
%TO.N,/Connections/V_IN*%
%TO.C,J1*%
X116850000Y-96650000D03*
D13*
%TO.N,/Connections/HOST_TX_OFF*%
X119390000Y-97920000D03*
%TO.N,/Connections/HOST_UART_TX*%
X116850000Y-99190000D03*
%TO.N,/Connections/HOST_GPS_STATUS*%
X119390000Y-100460000D03*
%TO.N,/Connections/HOST_UART_RX*%
X116850000Y-101730000D03*
%TO.N,/Connections/HOST_RX_STATUS*%
X119390000Y-103000000D03*
%TO.N,/Connections/HOST_TX_STATUS*%
X116850000Y-104270000D03*
%TO.N,GND*%
X119390000Y-105540000D03*
%TD*%
D14*
%TO.N,GND*%
%TO.C,U1*%
X146325000Y-95850000D03*
X146325000Y-93750000D03*
X144225000Y-95850000D03*
X144225000Y-93750000D03*
%TD*%
%TO.N,GND*%
%TO.C,U2*%
X146150000Y-107850000D03*
X146150000Y-105750000D03*
X144050000Y-107850000D03*
X144050000Y-105750000D03*
%TD*%
D15*
%TO.N,GND*%
X175000000Y-100500000D03*
X144400000Y-94800000D03*
X184300000Y-100000000D03*
X164500000Y-102600000D03*
X134900000Y-101200000D03*
X150100000Y-106000000D03*
X145300000Y-95700000D03*
X181000000Y-101200000D03*
X155300000Y-99700000D03*
X161500000Y-98400000D03*
X122100000Y-91200000D03*
X145100000Y-105900000D03*
X164500000Y-92600000D03*
X114000000Y-90000000D03*
X179200000Y-104900000D03*
X151800000Y-92600000D03*
X169200000Y-100000000D03*
X173400000Y-110100000D03*
X181000000Y-109800000D03*
X182900000Y-102300000D03*
X156700000Y-103400000D03*
X183700000Y-96900000D03*
X161500000Y-100000000D03*
X185100000Y-96900000D03*
X158600000Y-95000000D03*
X186500000Y-96900000D03*
X176100000Y-104800000D03*
X172100000Y-112300000D03*
X189800000Y-104700000D03*
X114000000Y-108000000D03*
X176700000Y-92200000D03*
X167600000Y-92600000D03*
X159900000Y-102600000D03*
X145300000Y-100900000D03*
X126700000Y-96500000D03*
X182100000Y-102400000D03*
X135800000Y-102000000D03*
X172900000Y-94800000D03*
X185400000Y-95600000D03*
X178100000Y-110100000D03*
X186900000Y-94300000D03*
X153200000Y-107800000D03*
X181900000Y-103500000D03*
X163000000Y-100000000D03*
X181000000Y-107600000D03*
X143000000Y-111100000D03*
X172200000Y-96900000D03*
X121800000Y-102200000D03*
X158600000Y-97200000D03*
X114000000Y-93000000D03*
X185600000Y-102300000D03*
X151700000Y-98500000D03*
X177000000Y-112300000D03*
X166100000Y-92600000D03*
X184200000Y-93000000D03*
X175000000Y-92200000D03*
X176200000Y-94800000D03*
X179300000Y-112300000D03*
X184200000Y-102300000D03*
X175800000Y-110100000D03*
X184200000Y-104700000D03*
X154100000Y-98700000D03*
X160000000Y-92600000D03*
X140000000Y-113000000D03*
X191000000Y-96000000D03*
X154600000Y-95000000D03*
X158400000Y-102600000D03*
X182200000Y-99000000D03*
X161000000Y-113000000D03*
X171400000Y-110700000D03*
X172900000Y-92500000D03*
X178800000Y-98300000D03*
X179700000Y-99000000D03*
X167400000Y-102600000D03*
X170000000Y-95100000D03*
X191000000Y-90000000D03*
X172600000Y-102500000D03*
X151800000Y-108600000D03*
X172400000Y-92000000D03*
X148900000Y-92900000D03*
X147200000Y-101600000D03*
X179300000Y-110100000D03*
X150100000Y-108700000D03*
X177000000Y-90000000D03*
X176700000Y-102300000D03*
X173400000Y-92000000D03*
X177200000Y-104900000D03*
X188700000Y-104700000D03*
X142600000Y-102600000D03*
X161500000Y-95000000D03*
X173300000Y-112300000D03*
X158400000Y-101600000D03*
X178400000Y-94800000D03*
X181000000Y-106500000D03*
X173700000Y-100000000D03*
X182800000Y-92900000D03*
X127400000Y-101300000D03*
X182200000Y-97900000D03*
X160000000Y-95000000D03*
X181000000Y-108700000D03*
X148200000Y-93700000D03*
X109000000Y-98000000D03*
X182800000Y-92100000D03*
X178100000Y-112300000D03*
X140200000Y-92100000D03*
X170700000Y-100000000D03*
X137000000Y-91000000D03*
X183000000Y-100000000D03*
X163000000Y-90000000D03*
X183000000Y-104700000D03*
X158400000Y-100700000D03*
X152500000Y-95200000D03*
X109000000Y-113000000D03*
X177000000Y-110100000D03*
X154100000Y-97300000D03*
X151300000Y-105300000D03*
X153100000Y-90300000D03*
X172300000Y-90100000D03*
X148600000Y-96700000D03*
X143100000Y-99100000D03*
X170000000Y-102600000D03*
X164600000Y-95000000D03*
X109000000Y-103000000D03*
X153400000Y-92600000D03*
X178100000Y-102800000D03*
X180900000Y-105200000D03*
X172200000Y-95700000D03*
X157600000Y-101600000D03*
X174500000Y-112300000D03*
X153400000Y-96200000D03*
X150200000Y-96700000D03*
X157000000Y-113000000D03*
X154200000Y-103400000D03*
X114000000Y-103000000D03*
X163000000Y-92600000D03*
X151700000Y-100000000D03*
X170100000Y-92600000D03*
X177300000Y-94800000D03*
X156800000Y-106500000D03*
X180600000Y-94800000D03*
X170100000Y-98300000D03*
X165800000Y-98300000D03*
X172100000Y-110100000D03*
X154100000Y-100000000D03*
X134900000Y-99500000D03*
X135800000Y-98600000D03*
X182100000Y-99900000D03*
X160300000Y-97100000D03*
X125900000Y-96500000D03*
X157000000Y-99600000D03*
X137500000Y-100400000D03*
X146900000Y-103500000D03*
X145200000Y-112600000D03*
X167800000Y-98300000D03*
X166000000Y-102600000D03*
X159800000Y-104800000D03*
X172900000Y-91500000D03*
X173600000Y-94800000D03*
X172200000Y-94800000D03*
X177000000Y-107900000D03*
X144200000Y-106800000D03*
X129400000Y-91600000D03*
X172900000Y-90500000D03*
X141600000Y-92100000D03*
X148500000Y-106000000D03*
X185600000Y-100000000D03*
X164500000Y-100000000D03*
X171400000Y-92600000D03*
X154100000Y-106600000D03*
X114000000Y-113000000D03*
X179700000Y-98200000D03*
X173900000Y-102500000D03*
X136700000Y-99600000D03*
X156500000Y-92600000D03*
X185400000Y-94300000D03*
X181700000Y-104700000D03*
X146200000Y-94800000D03*
X146000000Y-106800000D03*
X114000000Y-98000000D03*
X175800000Y-112300000D03*
X172400000Y-91000000D03*
X179800000Y-92200000D03*
X179300000Y-107900000D03*
X186500000Y-104700000D03*
X173400000Y-90100000D03*
X145100000Y-106800000D03*
X187600000Y-104700000D03*
X172200000Y-100000000D03*
X178300000Y-92200000D03*
X180000000Y-96600000D03*
X129100000Y-94600000D03*
X190800000Y-104700000D03*
X158400000Y-99700000D03*
X177600000Y-101600000D03*
X180900000Y-112300000D03*
X188000000Y-96900000D03*
X161500000Y-92600000D03*
X191000000Y-93000000D03*
X145300000Y-93900000D03*
X109000000Y-90000000D03*
X175900000Y-101500000D03*
X168700000Y-102600000D03*
X175300000Y-104100000D03*
X167600000Y-95100000D03*
X176800000Y-100800000D03*
X136700000Y-101200000D03*
X179700000Y-99900000D03*
X155800000Y-101600000D03*
X172200000Y-96300000D03*
X174600000Y-110100000D03*
X180900000Y-113400000D03*
X151700000Y-101700000D03*
X161500000Y-102600000D03*
X171300000Y-102600000D03*
X154200000Y-105000000D03*
X148700000Y-108600000D03*
X182200000Y-96900000D03*
X151200000Y-97300000D03*
X163100000Y-102600000D03*
X135800000Y-100400000D03*
X179600000Y-102900000D03*
X171400000Y-111600000D03*
X155000000Y-92600000D03*
X157300000Y-100200000D03*
X151700000Y-103400000D03*
X145100000Y-107700000D03*
X156800000Y-95000000D03*
X185400000Y-104700000D03*
X179500000Y-94800000D03*
X189700000Y-96900000D03*
X157000000Y-100800000D03*
X173400000Y-91000000D03*
X134100000Y-100300000D03*
X145300000Y-94800000D03*
X163000000Y-95000000D03*
%TO.N,+3.3V*%
X136831443Y-105319230D03*
X124900000Y-101100000D03*
X148300000Y-104200000D03*
X161300000Y-109000000D03*
X135700000Y-94000000D03*
X149900000Y-109800000D03*
X179046220Y-102063024D03*
X165000000Y-109000000D03*
X147300000Y-99500000D03*
X139491490Y-102600000D03*
X128642814Y-96774500D03*
X147400000Y-91200000D03*
%TO.N,/Connections/MCU_UART_TX*%
X134049500Y-96300000D03*
X133500000Y-94276500D03*
%TO.N,/Connections/MCU_UART_RX*%
X133485172Y-97714828D03*
X133200000Y-96400000D03*
%TO.N,/Connections/GPS_STATUS*%
X132503578Y-97549831D03*
X127900000Y-103900000D03*
%TO.N,/Connections/HOST_TX_OFF*%
X121385000Y-99915000D03*
X122300000Y-107400000D03*
%TO.N,/Connections/HOST_TX_STATUS*%
X122700000Y-104500000D03*
%TO.N,/Connections/HOST_RX_STATUS*%
X123300000Y-102600000D03*
%TO.N,/Connections/HOST_UART_RX*%
X130875000Y-93000000D03*
X123500000Y-101500000D03*
%TO.N,/Connections/HOST_UART_TX*%
X131300000Y-97200000D03*
X122300000Y-99600000D03*
X118400000Y-99200000D03*
%TO.N,Net-(IC1-ADJ{slash}NC)*%
X174700000Y-95700000D03*
X174200000Y-98500000D03*
%TO.N,/Connections/V_IN*%
X122900000Y-89887500D03*
X169100000Y-97175000D03*
X168500000Y-92500000D03*
%TO.N,/GNSS/GPS_EN*%
X139800000Y-109800000D03*
X138206429Y-107296909D03*
X137525500Y-104600000D03*
X149800000Y-112400000D03*
%TO.N,/Receiver/V_LNA*%
X150000000Y-98300000D03*
X158200000Y-96000000D03*
%TO.N,/Connections/RX_STATUS*%
X140700000Y-101500000D03*
X129979145Y-103950224D03*
%TO.N,/MCU/V_PA_BIAS*%
X135000000Y-96100000D03*
X158800000Y-90100000D03*
%TO.N,/MCU/TRX_SDN*%
X147976500Y-96100000D03*
X139200000Y-95600000D03*
%TO.N,/MCU/SPI_SCK*%
X140400000Y-105400000D03*
X140166990Y-97366991D03*
X139900000Y-94400000D03*
%TO.N,/MCU/SPI_MISO*%
X141100000Y-94624500D03*
X140863438Y-95975500D03*
X141300000Y-106600000D03*
%TO.N,/Receiver/V_LNA*%
X155950000Y-103200000D03*
%TO.N,/MCU/SPI_MOSI*%
X141775998Y-95568700D03*
X140200000Y-106600000D03*
%TO.N,/MCU/RX_SDN*%
X132200000Y-101300000D03*
X147810996Y-108479266D03*
%TO.N,/GNSS/GPS_1PPS*%
X136800000Y-107700000D03*
X161200000Y-106900000D03*
X137100000Y-108925500D03*
X139491490Y-100500000D03*
%TO.N,/GNSS/GPS_OUT*%
X142375500Y-97000000D03*
X161900000Y-104700000D03*
%TO.N,/MCU/RX_DATA*%
X143000000Y-103700000D03*
X132209431Y-102800676D03*
%TO.N,/MCU/RX_CS*%
X140200000Y-107599503D03*
X140791812Y-103137929D03*
%TO.N,/MCU/RX_CLK*%
X132000000Y-102100000D03*
X146700000Y-110000000D03*
%TO.N,Net-(U10-D1)*%
X127000000Y-105400000D03*
X129437610Y-101861544D03*
%TO.N,Net-(U5-PB7)*%
X132700000Y-108200000D03*
X133300000Y-104625724D03*
%TO.N,Net-(U10-G2)*%
X128100000Y-101200000D03*
X130300000Y-105500000D03*
X127900000Y-105200000D03*
%TO.N,Net-(D4-K)*%
X178300000Y-100600000D03*
X158400000Y-104100000D03*
%TO.N,SWDIO*%
X131800000Y-98600000D03*
%TO.N,SWCLK*%
X132200000Y-99200000D03*
%TO.N,NRST*%
X138800000Y-107857677D03*
X137500000Y-112000000D03*
X138824980Y-103477484D03*
%TD*%
D16*
%TO.N,+3.3V*%
X137939243Y-105319230D02*
X136831443Y-105319230D01*
D17*
X141297000Y-99797000D02*
X135700000Y-94200000D01*
X153800000Y-109800000D02*
X154600000Y-109000000D01*
X141297000Y-101816739D02*
X141297000Y-99797000D01*
D18*
X117325000Y-111900000D02*
X119725000Y-109500000D01*
D16*
X139491490Y-102600000D02*
X139500980Y-102609490D01*
D17*
X154600000Y-109000000D02*
X161300000Y-109000000D01*
X149900000Y-109800000D02*
X153800000Y-109800000D01*
D16*
X139500980Y-103757493D02*
X137939243Y-105319230D01*
D18*
X124900000Y-106300000D02*
X124900000Y-101100000D01*
X119725000Y-109500000D02*
X121700000Y-109500000D01*
D17*
X139491490Y-102600000D02*
X140513739Y-102600000D01*
X147400000Y-91200000D02*
X147400000Y-99400000D01*
X140513739Y-102600000D02*
X141297000Y-101816739D01*
D16*
X139500980Y-102609490D02*
X139500980Y-103757493D01*
D17*
X147400000Y-99400000D02*
X147300000Y-99500000D01*
D18*
X121700000Y-109500000D02*
X124900000Y-106300000D01*
D17*
X135700000Y-94200000D02*
X135700000Y-94000000D01*
D16*
%TO.N,/Connections/HOST_TX_OFF*%
X122300000Y-107400000D02*
X121274000Y-106374000D01*
X121274000Y-100026000D02*
X121385000Y-99915000D01*
X121274000Y-106374000D02*
X121274000Y-100026000D01*
%TO.N,/Connections/HOST_UART_RX*%
X131826000Y-96982123D02*
X131826000Y-97417877D01*
X130875000Y-93000000D02*
X130500000Y-93375000D01*
X130500000Y-95656123D02*
X131826000Y-96982123D01*
X131517877Y-97726000D02*
X127274000Y-97726000D01*
X127274000Y-97726000D02*
X123500000Y-101500000D01*
X131826000Y-97417877D02*
X131517877Y-97726000D01*
X130500000Y-93375000D02*
X130500000Y-95656123D01*
%TO.N,/Connections/HOST_UART_TX*%
X122300000Y-99600000D02*
X124400000Y-97500000D01*
X126500000Y-97300000D02*
X131200000Y-97300000D01*
X124400000Y-97500000D02*
X126300000Y-97500000D01*
X126300000Y-97500000D02*
X126500000Y-97300000D01*
X131200000Y-97300000D02*
X131300000Y-97200000D01*
D18*
%TO.N,/Connections/V_IN*%
X151768261Y-89887500D02*
X152880761Y-91000000D01*
X160700000Y-91000000D02*
X167000000Y-91000000D01*
X167000000Y-91000000D02*
X168500000Y-92500000D01*
X152880761Y-91000000D02*
X160700000Y-91000000D01*
X122900000Y-89887500D02*
X151768261Y-89887500D01*
D16*
%TO.N,/GNSS/GPS_EN*%
X138300000Y-109100000D02*
X139000000Y-109800000D01*
X139000000Y-109800000D02*
X139800000Y-109800000D01*
X138206429Y-107296909D02*
X138206429Y-109006429D01*
X138206429Y-109006429D02*
X138300000Y-109100000D01*
%TO.N,/Connections/RX_STATUS*%
X137800000Y-101500000D02*
X135349776Y-103950224D01*
X135349776Y-103950224D02*
X129979145Y-103950224D01*
X140700000Y-101500000D02*
X137800000Y-101500000D01*
%TO.N,/MCU/SPI_MOSI*%
X140200000Y-106600000D02*
X141700000Y-105100000D01*
X141700000Y-105100000D02*
X141700000Y-95644698D01*
X141700000Y-95644698D02*
X141775998Y-95568700D01*
%TO.N,/MCU/RX_SDN*%
X129303145Y-106303145D02*
X129303145Y-103670215D01*
X133400000Y-110400000D02*
X129303145Y-106303145D01*
X129867005Y-103106355D02*
X130200000Y-103106355D01*
X145507476Y-110400000D02*
X133400000Y-110400000D01*
X147810996Y-108479266D02*
X147428210Y-108479266D01*
X130200000Y-103106355D02*
X132006355Y-101300000D01*
X129303145Y-103670215D02*
X129867005Y-103106355D01*
X147428210Y-108479266D02*
X145507476Y-110400000D01*
X132006355Y-101300000D02*
X132200000Y-101300000D01*
%TO.N,/MCU/RX_CS*%
X139524000Y-104405741D02*
X139524000Y-106923503D01*
X139524000Y-106923503D02*
X140200000Y-107599503D01*
X140791812Y-103137929D02*
X139524000Y-104405741D01*
%TO.N,Net-(U5-PB7)*%
X133300000Y-104625724D02*
X133300000Y-107600000D01*
X133300000Y-107600000D02*
X132700000Y-108200000D01*
%TO.N,Net-(U10-G2)*%
X127300000Y-104600000D02*
X127300000Y-102300000D01*
X127300000Y-102300000D02*
X128100000Y-101500000D01*
X127900000Y-105200000D02*
X127300000Y-104600000D01*
X128100000Y-101500000D02*
X128100000Y-101200000D01*
%TO.N,SWDIO*%
X126100000Y-101600000D02*
X126100000Y-106100000D01*
X126100000Y-106100000D02*
X120300000Y-111900000D01*
X129100000Y-98600000D02*
X126100000Y-101600000D01*
X120300000Y-111900000D02*
X119865000Y-111900000D01*
X131800000Y-98600000D02*
X129100000Y-98600000D01*
%TD*%
M02*
