M48
; DRILL file {KiCad 7.0.5-0} date 2024 February 03, Saturday 13:41:07
; FORMAT={-:-/ absolute / inch / decimal}
; #@! TF.CreationDate,2024-02-03T13:41:07-08:00
; #@! TF.GenerationSoftware,Kicad,Pcbnew,7.0.5-0
; #@! TF.FileFunction,Plated,1,4,PTH
FMAT,2
INCH
; #@! TA.AperFunction,Plated,PTH,ComponentDrill
T1C0.0079
; #@! TA.AperFunction,Plated,PTH,ViaDrill
T2C0.0118
; #@! TA.AperFunction,Plated,PTH,ComponentDrill
T3C0.0299
; #@! TA.AperFunction,Plated,PTH,ComponentDrill
T4C0.0394
%
G90
G05
T1
X5.6713Y-4.1634
X5.6713Y-4.2461
X5.6781Y-3.6909
X5.6781Y-3.7736
X5.7539Y-4.1634
X5.7539Y-4.2461
X5.7608Y-3.6909
X5.7608Y-3.7736
T2
X4.2913Y-3.5433
X4.2913Y-3.8583
X4.2913Y-4.0551
X4.2913Y-4.4488
X4.4882Y-3.5433
X4.4882Y-3.6614
X4.4882Y-3.8583
X4.4882Y-4.0551
X4.4882Y-4.252
X4.4882Y-4.4488
X4.6614Y-3.9055
X4.7789Y-3.9337
X4.7953Y-4.0236
X4.8071Y-3.5906
X4.815Y-3.9213
X4.815Y-4.2283
X4.8307Y-4.1142
X4.8386Y-3.5389
X4.8543Y-4.0394
X4.8622Y-3.9961
X4.9173Y-3.9803
X4.9567Y-3.7992
X4.9882Y-3.7992
X5.0Y-4.1496
X5.0157Y-3.9882
X5.0354Y-4.0906
X5.0354Y-4.1417
X5.0433Y-3.9843
X5.0647Y-3.81
X5.0827Y-3.7244
X5.0945Y-3.6063
X5.096Y-4.0103
X5.1173Y-4.0925
X5.1299Y-4.1535
X5.1526Y-3.6614
X5.1693Y-3.8268
X5.189Y-3.8819
X5.1969Y-4.0197
X5.2047Y-3.9055
X5.2047Y-3.9882
X5.2051Y-4.0473
X5.2167Y-3.8405
X5.2244Y-4.2598
X5.2441Y-3.7953
X5.248Y-4.1191
X5.2553Y-3.847
X5.2559Y-3.7117
X5.2775Y-3.7913
X5.2795Y-3.9488
X5.311Y-3.9173
X5.311Y-3.9843
X5.315Y-3.7835
X5.3425Y-3.7008
X5.3465Y-3.8819
X5.3465Y-3.9528
X5.3465Y-4.0157
X5.3819Y-3.9213
X5.3819Y-3.9843
X5.3858Y-4.2402
X5.3871Y-4.1464
X5.3937Y-3.5827
X5.3976Y-4.2884
X5.4134Y-3.9528
X5.4134Y-4.4094
X5.4144Y-4.1181
X5.4412Y-4.2243
X5.4646Y-4.2464
X5.4656Y-4.0739
X5.4803Y-3.7638
X5.4918Y-3.9567
X5.4918Y-4.0394
X5.5039Y-4.3228
X5.5079Y-3.7165
X5.5118Y-4.4488
X5.5184Y-3.8333
X5.5197Y-3.626
X5.5197Y-4.1969
X5.5197Y-4.2362
X5.5276Y-4.1496
X5.5394Y-3.9961
X5.543Y-4.0605
X5.5458Y-3.7786
X5.5551Y-3.7254
X5.563Y-4.1969
X5.5748Y-3.626
X5.5817Y-3.7625
X5.6053Y-3.8189
X5.6142Y-4.0394
X5.6299Y-4.0827
X5.6299Y-4.374
X5.6339Y-3.9016
X5.6772Y-4.2047
X5.685Y-3.7323
X5.7126Y-4.1693
X5.7126Y-4.2047
X5.7126Y-4.2402
X5.7165Y-4.4331
X5.7205Y-3.6969
X5.7205Y-3.7323
X5.7205Y-3.7677
X5.7205Y-3.9724
X5.748Y-4.2047
X5.7559Y-3.7323
X5.7756Y-4.3307
X5.7835Y-4.0748
X5.7953Y-4.0
X5.7992Y-3.9173
X5.8031Y-3.5906
X5.8193Y-4.2708
X5.8258Y-3.7835
X5.8346Y-3.689
X5.8386Y-4.1024
X5.8465Y-4.1732
X5.8504Y-3.8071
X5.8543Y-4.2756
X5.8622Y-3.6575
X5.8976Y-4.4252
X5.9016Y-4.3228
X5.9055Y-3.8701
X5.9094Y-4.1732
X5.9094Y-4.2795
X5.9134Y-3.8071
X5.9528Y-3.8307
X5.9567Y-4.1457
X5.9724Y-3.878
X5.9724Y-3.937
X5.9724Y-4.0039
X5.9724Y-4.0709
X5.9764Y-3.6457
X5.9764Y-4.2756
X6.0039Y-3.748
X6.0276Y-3.5551
X6.0315Y-4.2441
X6.0394Y-3.6457
X6.0394Y-3.7874
X6.0669Y-3.8307
X6.0669Y-3.8858
X6.0669Y-3.937
X6.0669Y-4.1969
X6.0709Y-4.0709
X6.0709Y-4.1339
X6.0866Y-3.7402
X6.1024Y-3.6457
X6.1142Y-3.9252
X6.1339Y-4.0
X6.1398Y-4.063
X6.1614Y-3.6457
X6.1693Y-4.0709
X6.1732Y-3.7402
X6.1732Y-4.1929
X6.1811Y-3.9213
X6.1811Y-3.9685
X6.1811Y-4.4488
X6.1929Y-3.9449
X6.2047Y-4.0
X6.2283Y-3.7795
X6.2362Y-3.9252
X6.2362Y-3.9646
X6.2362Y-4.0
X6.2362Y-4.0394
X6.2362Y-4.0984
X6.2441Y-3.7402
X6.2441Y-3.8268
X6.252Y-3.5472
X6.2913Y-4.126
X6.2953Y-4.0394
X6.2992Y-3.6457
X6.2992Y-3.7402
X6.311Y-3.8228
X6.3386Y-4.4488
X6.3465Y-4.2087
X6.3504Y-4.2913
X6.3583Y-3.6457
X6.3583Y-3.7402
X6.3583Y-3.874
X6.3583Y-3.937
X6.3583Y-4.0394
X6.374Y-4.122
X6.4173Y-3.5433
X6.4173Y-3.6457
X6.4173Y-3.7402
X6.4173Y-3.937
X6.4213Y-4.0394
X6.4764Y-3.6457
X6.4764Y-3.937
X6.4764Y-4.0394
X6.4803Y-3.7402
X6.4961Y-4.2913
X6.5276Y-3.8701
X6.5354Y-4.0394
X6.5394Y-3.6457
X6.5906Y-4.0394
X6.5984Y-3.6457
X6.5984Y-3.7441
X6.6063Y-3.8701
X6.6339Y-3.6417
X6.6417Y-4.0394
X6.6575Y-3.8258
X6.6614Y-3.937
X6.6929Y-3.7441
X6.6929Y-4.0394
X6.6969Y-3.6457
X6.6969Y-3.8701
X6.7205Y-3.937
X6.7441Y-4.0394
X6.748Y-3.6457
X6.748Y-4.3583
X6.748Y-4.3937
X6.7756Y-4.3346
X6.7756Y-4.4213
X6.7795Y-3.7323
X6.7795Y-3.7677
X6.7795Y-3.7913
X6.7795Y-3.815
X6.7795Y-3.937
X6.7835Y-3.5472
X6.7874Y-3.5827
X6.7874Y-3.622
X6.7953Y-4.0354
X6.8071Y-3.563
X6.8071Y-3.6024
X6.8071Y-3.6417
X6.8071Y-3.7323
X6.8228Y-4.4213
X6.8268Y-3.5472
X6.8268Y-3.5827
X6.8268Y-3.622
X6.8268Y-4.3346
X6.8346Y-3.7323
X6.8386Y-3.937
X6.8465Y-4.0354
X6.8583Y-3.878
X6.8701Y-4.4213
X6.874Y-4.3346
X6.878Y-3.7677
X6.8898Y-3.6299
X6.8898Y-3.9567
X6.9016Y-4.0984
X6.9213Y-4.3346
X6.9213Y-4.4213
X6.9252Y-3.9961
X6.9331Y-4.126
X6.937Y-3.7323
X6.9567Y-3.6299
X6.9567Y-4.0276
X6.9606Y-3.9685
X6.9685Y-3.5433
X6.9685Y-4.248
X6.9685Y-4.3346
X6.9685Y-4.4213
X6.9764Y-4.1299
X6.9803Y-3.7323
X6.9921Y-4.0
X7.0118Y-4.0472
X7.0118Y-4.3346
X7.0118Y-4.4213
X7.0197Y-3.6299
X7.0197Y-3.9606
X7.0236Y-3.7323
X7.0394Y-3.8701
X7.0491Y-4.0182
X7.0551Y-4.1299
X7.0591Y-4.248
X7.0591Y-4.3346
X7.0591Y-4.4213
X7.0669Y-3.7323
X7.0709Y-4.0512
X7.0748Y-3.8661
X7.0748Y-3.8976
X7.0748Y-3.9331
X7.0787Y-3.6299
X7.0866Y-3.8031
X7.1102Y-3.7323
X7.122Y-4.1417
X7.122Y-4.4213
X7.122Y-4.4646
X7.126Y-3.9843
X7.126Y-4.1929
X7.126Y-4.2362
X7.126Y-4.2795
X7.126Y-4.3228
X7.1535Y-4.122
X7.1614Y-4.0748
X7.1693Y-3.9331
X7.1693Y-4.0315
X7.1732Y-3.815
X7.1732Y-3.8543
X7.1732Y-3.8976
X7.1969Y-3.626
X7.1969Y-3.6575
X7.2008Y-4.0276
X7.2047Y-3.937
X7.2047Y-4.122
X7.2323Y-3.815
X7.252Y-3.6614
X7.252Y-4.0276
X7.252Y-4.122
X7.2559Y-3.937
X7.2874Y-3.815
X7.2992Y-3.7126
X7.2992Y-3.7638
X7.2992Y-4.122
X7.3071Y-3.937
X7.3071Y-4.0276
X7.3425Y-3.815
X7.3425Y-4.122
X7.3583Y-3.7126
X7.3858Y-4.122
X7.4016Y-3.815
X7.4291Y-4.122
X7.4685Y-3.815
X7.4724Y-4.122
X7.5118Y-4.122
X7.5197Y-3.5433
X7.5197Y-3.6614
X7.5197Y-3.7795
T3
X4.6004Y-3.8051
X4.6004Y-3.9051
X4.6004Y-4.0051
X4.6004Y-4.1051
X4.7004Y-3.8551
X4.7004Y-3.9551
X4.7004Y-4.0551
X4.7004Y-4.1551
T4
X4.6191Y-4.4055
X4.7191Y-4.4055
X4.8191Y-4.4055
X4.9191Y-4.4055
X5.0191Y-4.4055
T0
M30
