%TF.GenerationSoftware,KiCad,Pcbnew,7.0.5-0*%
%TF.CreationDate,2024-02-03T13:41:05-08:00*%
%TF.ProjectId,transponder-11.9.1,7472616e-7370-46f6-9e64-65722d31312e,rev?*%
%TF.SameCoordinates,Original*%
%TF.FileFunction,Soldermask,Top*%
%TF.FilePolarity,Negative*%
%FSLAX46Y46*%
G04 Gerber Fmt 4.6, Leading zero omitted, Abs format (unit mm)*
G04 Created by KiCad (PCBNEW 7.0.5-0) date 2024-02-03 13:41:05*
%MOMM*%
%LPD*%
G01*
G04 APERTURE LIST*
G04 Aperture macros list*
%AMRoundRect*
0 Rectangle with rounded corners*
0 $1 Rounding radius*
0 $2 $3 $4 $5 $6 $7 $8 $9 X,Y pos of 4 corners*
0 Add a 4 corners polygon primitive as box body*
4,1,4,$2,$3,$4,$5,$6,$7,$8,$9,$2,$3,0*
0 Add four circle primitives for the rounded corners*
1,1,$1+$1,$2,$3*
1,1,$1+$1,$4,$5*
1,1,$1+$1,$6,$7*
1,1,$1+$1,$8,$9*
0 Add four rect primitives between the rounded corners*
20,1,$1+$1,$2,$3,$4,$5,0*
20,1,$1+$1,$4,$5,$6,$7,0*
20,1,$1+$1,$6,$7,$8,$9,0*
20,1,$1+$1,$8,$9,$2,$3,0*%
%AMRotRect*
0 Rectangle, with rotation*
0 The origin of the aperture is its center*
0 $1 length*
0 $2 width*
0 $3 Rotation angle, in degrees counterclockwise*
0 Add horizontal line*
21,1,$1,$2,0,0,$3*%
%AMFreePoly0*
4,1,9,3.862500,-0.866500,0.737500,-0.866500,0.737500,-0.450000,-0.737500,-0.450000,-0.737500,0.450000,0.737500,0.450000,0.737500,0.866500,3.862500,0.866500,3.862500,-0.866500,3.862500,-0.866500,$1*%
G04 Aperture macros list end*
%ADD10C,0.200000*%
%ADD11R,3.900000X1.500000*%
%ADD12RoundRect,0.225000X-0.250000X0.225000X-0.250000X-0.225000X0.250000X-0.225000X0.250000X0.225000X0*%
%ADD13C,1.200000*%
%ADD14R,0.650000X0.400000*%
%ADD15R,0.650000X0.350000*%
%ADD16R,1.100000X1.700000*%
%ADD17RoundRect,0.225000X0.250000X-0.225000X0.250000X0.225000X-0.250000X0.225000X-0.250000X-0.225000X0*%
%ADD18RoundRect,0.225000X-0.225000X-0.250000X0.225000X-0.250000X0.225000X0.250000X-0.225000X0.250000X0*%
%ADD19RoundRect,0.250000X-0.450000X0.262500X-0.450000X-0.262500X0.450000X-0.262500X0.450000X0.262500X0*%
%ADD20RoundRect,0.006600X0.393400X0.103400X-0.393400X0.103400X-0.393400X-0.103400X0.393400X-0.103400X0*%
%ADD21RoundRect,0.017600X0.092400X0.382400X-0.092400X0.382400X-0.092400X-0.382400X0.092400X-0.382400X0*%
%ADD22R,0.760000X0.760000*%
%ADD23RoundRect,0.225000X0.225000X0.250000X-0.225000X0.250000X-0.225000X-0.250000X0.225000X-0.250000X0*%
%ADD24RoundRect,0.218750X0.381250X-0.218750X0.381250X0.218750X-0.381250X0.218750X-0.381250X-0.218750X0*%
%ADD25RoundRect,0.200000X0.275000X-0.200000X0.275000X0.200000X-0.275000X0.200000X-0.275000X-0.200000X0*%
%ADD26C,1.000000*%
%ADD27R,1.400000X1.200000*%
%ADD28RoundRect,0.218750X0.256250X-0.218750X0.256250X0.218750X-0.256250X0.218750X-0.256250X-0.218750X0*%
%ADD29RoundRect,0.218750X-0.218750X-0.256250X0.218750X-0.256250X0.218750X0.256250X-0.218750X0.256250X0*%
%ADD30RoundRect,0.150000X-0.587500X-0.150000X0.587500X-0.150000X0.587500X0.150000X-0.587500X0.150000X0*%
%ADD31RoundRect,0.112500X0.112500X-0.187500X0.112500X0.187500X-0.112500X0.187500X-0.112500X-0.187500X0*%
%ADD32RoundRect,0.200000X-0.275000X0.200000X-0.275000X-0.200000X0.275000X-0.200000X0.275000X0.200000X0*%
%ADD33R,1.700000X1.700000*%
%ADD34O,1.700000X1.700000*%
%ADD35RoundRect,0.150000X0.150000X-0.587500X0.150000X0.587500X-0.150000X0.587500X-0.150000X-0.587500X0*%
%ADD36O,1.800000X0.800000*%
%ADD37R,0.508000X0.304800*%
%ADD38C,3.200000*%
%ADD39R,1.500000X1.500000*%
%ADD40C,1.500000*%
%ADD41RoundRect,0.200000X0.200000X0.275000X-0.200000X0.275000X-0.200000X-0.275000X0.200000X-0.275000X0*%
%ADD42RoundRect,0.218750X-0.256250X0.218750X-0.256250X-0.218750X0.256250X-0.218750X0.256250X0.218750X0*%
%ADD43RoundRect,0.112500X0.187500X0.112500X-0.187500X0.112500X-0.187500X-0.112500X0.187500X-0.112500X0*%
%ADD44RoundRect,0.200000X-0.200000X-0.275000X0.200000X-0.275000X0.200000X0.275000X-0.200000X0.275000X0*%
%ADD45RoundRect,0.062500X0.309359X-0.220971X-0.220971X0.309359X-0.309359X0.220971X0.220971X-0.309359X0*%
%ADD46RoundRect,0.062500X0.309359X0.220971X0.220971X0.309359X-0.309359X-0.220971X-0.220971X-0.309359X0*%
%ADD47RotRect,3.450000X3.450000X135.000000*%
%ADD48RoundRect,0.250000X-0.250000X-0.475000X0.250000X-0.475000X0.250000X0.475000X-0.250000X0.475000X0*%
%ADD49RoundRect,0.062500X0.362500X0.062500X-0.362500X0.062500X-0.362500X-0.062500X0.362500X-0.062500X0*%
%ADD50RoundRect,0.062500X0.062500X0.362500X-0.062500X0.362500X-0.062500X-0.362500X0.062500X-0.362500X0*%
%ADD51R,2.600000X2.600000*%
%ADD52RoundRect,0.150000X0.150000X-0.512500X0.150000X0.512500X-0.150000X0.512500X-0.150000X-0.512500X0*%
%ADD53R,1.168400X2.209800*%
%ADD54R,0.900000X1.300000*%
%ADD55FreePoly0,90.000000*%
%ADD56RoundRect,0.218750X0.218750X0.256250X-0.218750X0.256250X-0.218750X-0.256250X0.218750X-0.256250X0*%
G04 APERTURE END LIST*
D10*
X178722054Y-90291695D02*
X178722054Y-89491695D01*
X178722054Y-89491695D02*
X178988720Y-90063123D01*
X178988720Y-90063123D02*
X179255387Y-89491695D01*
X179255387Y-89491695D02*
X179255387Y-90291695D01*
X179598244Y-90063123D02*
X179979197Y-90063123D01*
X179522054Y-90291695D02*
X179788721Y-89491695D01*
X179788721Y-89491695D02*
X180055387Y-90291695D01*
X180322054Y-90291695D02*
X180322054Y-89491695D01*
X180664910Y-90063123D02*
X181045863Y-90063123D01*
X180588720Y-90291695D02*
X180855387Y-89491695D01*
X180855387Y-89491695D02*
X181122053Y-90291695D01*
X181388720Y-90291695D02*
X181388720Y-89491695D01*
X181388720Y-89491695D02*
X181845863Y-90291695D01*
X181845863Y-90291695D02*
X181845863Y-89491695D01*
X182188719Y-90063123D02*
X182569672Y-90063123D01*
X182112529Y-90291695D02*
X182379196Y-89491695D01*
X182379196Y-89491695D02*
X182645862Y-90291695D01*
X183750624Y-90596457D02*
X183712529Y-90558361D01*
X183712529Y-90558361D02*
X183636338Y-90444076D01*
X183636338Y-90444076D02*
X183598243Y-90367885D01*
X183598243Y-90367885D02*
X183560148Y-90253600D01*
X183560148Y-90253600D02*
X183522053Y-90063123D01*
X183522053Y-90063123D02*
X183522053Y-89910742D01*
X183522053Y-89910742D02*
X183560148Y-89720266D01*
X183560148Y-89720266D02*
X183598243Y-89605980D01*
X183598243Y-89605980D02*
X183636338Y-89529790D01*
X183636338Y-89529790D02*
X183712529Y-89415504D01*
X183712529Y-89415504D02*
X183750624Y-89377409D01*
X183941100Y-89491695D02*
X184398243Y-89491695D01*
X184169671Y-90291695D02*
X184169671Y-89491695D01*
X184664910Y-90291695D02*
X184664910Y-89491695D01*
X184664910Y-89491695D02*
X184931576Y-90063123D01*
X184931576Y-90063123D02*
X185198243Y-89491695D01*
X185198243Y-89491695D02*
X185198243Y-90291695D01*
X185503005Y-90596457D02*
X185541100Y-90558361D01*
X185541100Y-90558361D02*
X185617291Y-90444076D01*
X185617291Y-90444076D02*
X185655386Y-90367885D01*
X185655386Y-90367885D02*
X185693481Y-90253600D01*
X185693481Y-90253600D02*
X185731577Y-90063123D01*
X185731577Y-90063123D02*
X185731577Y-89910742D01*
X185731577Y-89910742D02*
X185693481Y-89720266D01*
X185693481Y-89720266D02*
X185655386Y-89605980D01*
X185655386Y-89605980D02*
X185617291Y-89529790D01*
X185617291Y-89529790D02*
X185541100Y-89415504D01*
X185541100Y-89415504D02*
X185503005Y-89377409D01*
D11*
%TO.C,J3*%
X189127500Y-101200000D03*
X189127500Y-103900000D03*
X189127500Y-98500000D03*
%TD*%
D12*
%TO.C,C35*%
X136550000Y-92675000D03*
X136550000Y-94225000D03*
%TD*%
%TO.C,C6*%
X165900000Y-99775000D03*
X165900000Y-101325000D03*
%TD*%
D13*
%TO.C,TP18*%
X164800000Y-96100000D03*
%TD*%
D14*
%TO.C,U3*%
X156000000Y-99050000D03*
X156000000Y-99700000D03*
X156000000Y-100350000D03*
X157900000Y-100350000D03*
X157900000Y-99700000D03*
X157900000Y-99050000D03*
%TD*%
D13*
%TO.C,TP6*%
X184800000Y-98700000D03*
%TD*%
D12*
%TO.C,C15*%
X184350000Y-94050000D03*
X184350000Y-95600000D03*
%TD*%
D15*
%TO.C,IC1*%
X173300000Y-96900000D03*
X173300000Y-96250000D03*
X173300000Y-95600000D03*
X171100000Y-95600000D03*
X171100000Y-96250000D03*
X171100000Y-96900000D03*
D16*
X172200000Y-96250000D03*
%TD*%
D17*
%TO.C,C19*%
X167700000Y-91550000D03*
X167700000Y-90000000D03*
%TD*%
D18*
%TO.C,C21*%
X151850000Y-93800000D03*
X153400000Y-93800000D03*
%TD*%
D17*
%TO.C,C27*%
X123800000Y-97350000D03*
X123800000Y-95800000D03*
%TD*%
D19*
%TO.C,L13*%
X124700000Y-89887500D03*
X124700000Y-91712500D03*
%TD*%
D12*
%TO.C,C16*%
X181100000Y-95750000D03*
X181100000Y-97300000D03*
%TD*%
D20*
%TO.C,U8*%
X182140000Y-101700000D03*
X182140000Y-101200000D03*
X182140000Y-100700000D03*
D21*
X181540000Y-100100000D03*
X181040000Y-100100000D03*
X180540000Y-100100000D03*
D20*
X179940000Y-100700000D03*
X179940000Y-101200000D03*
X179940000Y-101700000D03*
D21*
X180540000Y-102300000D03*
X181040000Y-102300000D03*
X181540000Y-102300000D03*
D22*
X181040000Y-101200000D03*
%TD*%
D23*
%TO.C,C20*%
X151850000Y-90300000D03*
X150300000Y-90300000D03*
%TD*%
D13*
%TO.C,TP15*%
X121400000Y-109500000D03*
%TD*%
D18*
%TO.C,C1*%
X153025000Y-101400000D03*
X154575000Y-101400000D03*
%TD*%
D24*
%TO.C,L4*%
X176400000Y-95825000D03*
X176400000Y-93700000D03*
%TD*%
D12*
%TO.C,C9*%
X144150000Y-89600000D03*
X144150000Y-91150000D03*
%TD*%
D13*
%TO.C,TP5*%
X184800000Y-103600000D03*
%TD*%
D25*
%TO.C,R5*%
X174700000Y-97350000D03*
X174700000Y-95700000D03*
%TD*%
D23*
%TO.C,C23*%
X179500000Y-97300000D03*
X177950000Y-97300000D03*
%TD*%
D26*
%TO.C,TP1*%
X184800000Y-101200000D03*
%TD*%
D12*
%TO.C,C14*%
X181200000Y-92200000D03*
X181200000Y-93750000D03*
%TD*%
D18*
%TO.C,C3*%
X156050000Y-97300000D03*
X157600000Y-97300000D03*
%TD*%
%TO.C,C18*%
X162550000Y-93800000D03*
X164100000Y-93800000D03*
%TD*%
D17*
%TO.C,C17*%
X166200000Y-95300000D03*
X166200000Y-93750000D03*
%TD*%
D25*
%TO.C,R17*%
X128900000Y-107800000D03*
X128900000Y-106150000D03*
%TD*%
%TO.C,R7*%
X128642814Y-97359515D03*
X128642814Y-95709515D03*
%TD*%
D27*
%TO.C,Y2*%
X143000000Y-112650000D03*
X145200000Y-112650000D03*
X145200000Y-110950000D03*
X143000000Y-110950000D03*
%TD*%
D14*
%TO.C,U9*%
X128650000Y-103300000D03*
X128650000Y-103950000D03*
X128650000Y-104600000D03*
X130550000Y-104600000D03*
X130550000Y-103950000D03*
X130550000Y-103300000D03*
%TD*%
D28*
%TO.C,L9*%
X150300000Y-93800000D03*
X150300000Y-92225000D03*
%TD*%
D19*
%TO.C,L12*%
X122075000Y-95700000D03*
X122075000Y-97525000D03*
%TD*%
D29*
%TO.C,L11*%
X159525000Y-93800000D03*
X161100000Y-93800000D03*
%TD*%
D30*
%TO.C,Q7*%
X148562500Y-98350000D03*
X148562500Y-100250000D03*
X150437500Y-99300000D03*
%TD*%
D29*
%TO.C,L7*%
X167700000Y-93800000D03*
X169275000Y-93800000D03*
%TD*%
D31*
%TO.C,D1*%
X122600000Y-93950000D03*
X122600000Y-91850000D03*
%TD*%
D23*
%TO.C,C7*%
X149800000Y-101800000D03*
X148250000Y-101800000D03*
%TD*%
D32*
%TO.C,R2*%
X166150000Y-89925000D03*
X166150000Y-91575000D03*
%TD*%
D29*
%TO.C,L1*%
X159875000Y-101350000D03*
X161450000Y-101350000D03*
%TD*%
D13*
%TO.C,TP2*%
X183200000Y-99200000D03*
%TD*%
D23*
%TO.C,C25*%
X128300000Y-89900000D03*
X126750000Y-89900000D03*
%TD*%
D33*
%TO.C,J2*%
X117325000Y-111900000D03*
D34*
X119865000Y-111900000D03*
X122405000Y-111900000D03*
X124945000Y-111900000D03*
X127485000Y-111900000D03*
%TD*%
D35*
%TO.C,Q2*%
X153250000Y-111975000D03*
X155150000Y-111975000D03*
X154200000Y-110100000D03*
%TD*%
D17*
%TO.C,C30*%
X157000000Y-111650000D03*
X157000000Y-110100000D03*
%TD*%
D28*
%TO.C,L8*%
X169250000Y-91537500D03*
X169250000Y-89962500D03*
%TD*%
D25*
%TO.C,R8*%
X130100000Y-97350000D03*
X130100000Y-95700000D03*
%TD*%
D36*
%TO.C,U4*%
X163350000Y-103500000D03*
X163350000Y-104600000D03*
X163350000Y-105700000D03*
X163350000Y-106800000D03*
X163350000Y-107900000D03*
X163350000Y-109000000D03*
X163350000Y-110100000D03*
X163350000Y-111200000D03*
X163350000Y-112300000D03*
X173050000Y-112300000D03*
X173050000Y-111200000D03*
X173050000Y-110100000D03*
X173050000Y-109000000D03*
X173050000Y-107900000D03*
X173050000Y-106800000D03*
X173050000Y-105700000D03*
X173050000Y-104600000D03*
X173050000Y-103500000D03*
%TD*%
D37*
%TO.C,CR1*%
X121900000Y-100500000D03*
X121900000Y-101400001D03*
X121900000Y-102199999D03*
X121900000Y-103000000D03*
X121900000Y-103899998D03*
X122699998Y-103499999D03*
X122699998Y-102599998D03*
X122699998Y-101800000D03*
X122699998Y-100899999D03*
%TD*%
D27*
%TO.C,Y1*%
X143100000Y-100850000D03*
X145300000Y-100850000D03*
X145300000Y-99150000D03*
X143100000Y-99150000D03*
%TD*%
D17*
%TO.C,C31*%
X158900000Y-111650000D03*
X158900000Y-110100000D03*
%TD*%
D13*
%TO.C,TP7*%
X186400000Y-103200000D03*
%TD*%
D38*
%TO.C,J1*%
X110500000Y-95380000D03*
X110500000Y-106810000D03*
D39*
X116850000Y-96650000D03*
D40*
X119390000Y-97920000D03*
X116850000Y-99190000D03*
X119390000Y-100460000D03*
X116850000Y-101730000D03*
X119390000Y-103000000D03*
X116850000Y-104270000D03*
X119390000Y-105540000D03*
%TD*%
D18*
%TO.C,C5*%
X169225000Y-101300000D03*
X170775000Y-101300000D03*
%TD*%
D32*
%TO.C,R11*%
X130500000Y-106150000D03*
X130500000Y-107800000D03*
%TD*%
D41*
%TO.C,R1*%
X157650000Y-95800000D03*
X156000000Y-95800000D03*
%TD*%
D42*
%TO.C,L3*%
X167700000Y-99762500D03*
X167700000Y-101337500D03*
%TD*%
D13*
%TO.C,TP12*%
X134300000Y-95000000D03*
%TD*%
D41*
%TO.C,R6*%
X173150000Y-98300000D03*
X171500000Y-98300000D03*
%TD*%
D23*
%TO.C,C4*%
X164450000Y-101350000D03*
X162900000Y-101350000D03*
%TD*%
D13*
%TO.C,TP9*%
X176000000Y-100000000D03*
%TD*%
%TO.C,TP11*%
X134300000Y-91900000D03*
%TD*%
D43*
%TO.C,D4*%
X158050000Y-104600000D03*
X155950000Y-104600000D03*
%TD*%
D12*
%TO.C,C10*%
X142650000Y-89600000D03*
X142650000Y-91150000D03*
%TD*%
D44*
%TO.C,R12*%
X130975000Y-91600000D03*
X132625000Y-91600000D03*
%TD*%
D23*
%TO.C,C34*%
X138400000Y-106125000D03*
X136850000Y-106125000D03*
%TD*%
D13*
%TO.C,TP19*%
X126700000Y-106900000D03*
%TD*%
D45*
%TO.C,U5*%
X136325126Y-103347146D03*
X136678679Y-102993592D03*
X137032233Y-102640039D03*
X137385786Y-102286485D03*
X137739339Y-101932932D03*
X138092893Y-101579379D03*
X138446446Y-101225825D03*
X138800000Y-100872272D03*
D46*
X138800000Y-99900000D03*
X138446446Y-99546447D03*
X138092893Y-99192893D03*
X137739339Y-98839340D03*
X137385786Y-98485787D03*
X137032233Y-98132233D03*
X136678679Y-97778680D03*
X136325126Y-97425126D03*
D45*
X135352854Y-97425126D03*
X134999301Y-97778680D03*
X134645747Y-98132233D03*
X134292194Y-98485787D03*
X133938641Y-98839340D03*
X133585087Y-99192893D03*
X133231534Y-99546447D03*
X132877980Y-99900000D03*
D46*
X132877980Y-100872272D03*
X133231534Y-101225825D03*
X133585087Y-101579379D03*
X133938641Y-101932932D03*
X134292194Y-102286485D03*
X134645747Y-102640039D03*
X134999301Y-102993592D03*
X135352854Y-103347146D03*
D47*
X135838990Y-100386136D03*
%TD*%
D13*
%TO.C,TP8*%
X128400000Y-98800000D03*
%TD*%
D12*
%TO.C,C22*%
X158000000Y-92250000D03*
X158000000Y-93800000D03*
%TD*%
D44*
%TO.C,R14*%
X124725000Y-102450000D03*
X126375000Y-102450000D03*
%TD*%
D13*
%TO.C,TP10*%
X118800000Y-92000000D03*
%TD*%
D44*
%TO.C,R15*%
X124725000Y-103950000D03*
X126375000Y-103950000D03*
%TD*%
D17*
%TO.C,C32*%
X175800000Y-112800000D03*
X175800000Y-111250000D03*
%TD*%
D13*
%TO.C,TP16*%
X124400000Y-109500000D03*
%TD*%
%TO.C,TP17*%
X127300000Y-109500000D03*
%TD*%
D48*
%TO.C,C29*%
X126500000Y-93400000D03*
X128400000Y-93400000D03*
%TD*%
%TO.C,C28*%
X124900000Y-100100000D03*
X126800000Y-100100000D03*
%TD*%
D29*
%TO.C,L5*%
X178075000Y-93725000D03*
X179650000Y-93725000D03*
%TD*%
D14*
%TO.C,U10*%
X130550000Y-101800000D03*
X130550000Y-101150000D03*
X130550000Y-100500000D03*
X128650000Y-100500000D03*
X128650000Y-101150000D03*
X128650000Y-101800000D03*
%TD*%
D49*
%TO.C,U1*%
X147200000Y-95800000D03*
X147200000Y-95300000D03*
X147200000Y-94800000D03*
X147200000Y-94300000D03*
X147200000Y-93800000D03*
D50*
X146275000Y-92875000D03*
X145775000Y-92875000D03*
X145275000Y-92875000D03*
X144775000Y-92875000D03*
X144275000Y-92875000D03*
D49*
X143350000Y-93800000D03*
X143350000Y-94300000D03*
X143350000Y-94800000D03*
X143350000Y-95300000D03*
X143350000Y-95800000D03*
D50*
X144275000Y-96725000D03*
X144775000Y-96725000D03*
X145275000Y-96725000D03*
X145775000Y-96725000D03*
X146275000Y-96725000D03*
D51*
X145275000Y-94800000D03*
%TD*%
D44*
%TO.C,R16*%
X124725000Y-105425000D03*
X126375000Y-105425000D03*
%TD*%
D43*
%TO.C,D3*%
X123900000Y-107200000D03*
X121800000Y-107200000D03*
%TD*%
D42*
%TO.C,L6*%
X182800000Y-94012500D03*
X182800000Y-95587500D03*
%TD*%
D12*
%TO.C,C2*%
X159850000Y-98250000D03*
X159850000Y-99800000D03*
%TD*%
D13*
%TO.C,TP4*%
X186400000Y-99200000D03*
%TD*%
D18*
%TO.C,C11*%
X144125000Y-102700000D03*
X145675000Y-102700000D03*
%TD*%
D13*
%TO.C,TP13*%
X159100000Y-96000000D03*
%TD*%
D29*
%TO.C,L2*%
X172312500Y-101300000D03*
X173887500Y-101300000D03*
%TD*%
D52*
%TO.C,U6*%
X125300000Y-97600000D03*
X126250000Y-97600000D03*
X127200000Y-97600000D03*
X127200000Y-95325000D03*
X126250000Y-95325000D03*
X125300000Y-95325000D03*
%TD*%
D44*
%TO.C,R13*%
X130975000Y-94100000D03*
X132625000Y-94100000D03*
%TD*%
D32*
%TO.C,R9*%
X151350000Y-110650000D03*
X151350000Y-112300000D03*
%TD*%
D13*
%TO.C,TP14*%
X132500000Y-106000000D03*
%TD*%
D25*
%TO.C,R3*%
X164600000Y-91575000D03*
X164600000Y-89925000D03*
%TD*%
D12*
%TO.C,C8*%
X145650000Y-89625000D03*
X145650000Y-91175000D03*
%TD*%
D53*
%TO.C,AE1*%
X183134500Y-111300000D03*
X189865500Y-111300000D03*
%TD*%
D52*
%TO.C,U7*%
X131600000Y-112375000D03*
X132550000Y-112375000D03*
X133500000Y-112375000D03*
X133500000Y-110100000D03*
X131600000Y-110100000D03*
%TD*%
D17*
%TO.C,C33*%
X180400000Y-112800000D03*
X180400000Y-111250000D03*
%TD*%
D49*
%TO.C,U2*%
X147025000Y-107800000D03*
X147025000Y-107300000D03*
X147025000Y-106800000D03*
X147025000Y-106300000D03*
X147025000Y-105800000D03*
D50*
X146100000Y-104875000D03*
X145600000Y-104875000D03*
X145100000Y-104875000D03*
X144600000Y-104875000D03*
X144100000Y-104875000D03*
D49*
X143175000Y-105800000D03*
X143175000Y-106300000D03*
X143175000Y-106800000D03*
X143175000Y-107300000D03*
X143175000Y-107800000D03*
D50*
X144100000Y-108725000D03*
X144600000Y-108725000D03*
X145100000Y-108725000D03*
X145600000Y-108725000D03*
X146100000Y-108725000D03*
D51*
X145100000Y-106800000D03*
%TD*%
D29*
%TO.C,L10*%
X154925000Y-93800000D03*
X156500000Y-93800000D03*
%TD*%
D54*
%TO.C,Q1*%
X171400000Y-93750000D03*
D55*
X172900000Y-93662500D03*
D54*
X174400000Y-93750000D03*
%TD*%
D12*
%TO.C,C24*%
X169100000Y-95625000D03*
X169100000Y-97175000D03*
%TD*%
D23*
%TO.C,C12*%
X149800000Y-103350000D03*
X148250000Y-103350000D03*
%TD*%
%TO.C,C26*%
X128300000Y-91600000D03*
X126750000Y-91600000D03*
%TD*%
D44*
%TO.C,R4*%
X147250000Y-90300000D03*
X148900000Y-90300000D03*
%TD*%
D32*
%TO.C,R10*%
X134150000Y-106075000D03*
X134150000Y-107725000D03*
%TD*%
D23*
%TO.C,C13*%
X179500000Y-95775000D03*
X177950000Y-95775000D03*
%TD*%
D56*
%TO.C,L14*%
X178887500Y-111300000D03*
X177312500Y-111300000D03*
%TD*%
D13*
%TO.C,TP3*%
X183200000Y-103200000D03*
%TD*%
M02*
