%TF.GenerationSoftware,KiCad,Pcbnew,7.0.5-0*%
%TF.CreationDate,2024-02-03T13:41:08-08:00*%
%TF.ProjectId,transponder-11.9.1,7472616e-7370-46f6-9e64-65722d31312e,rev?*%
%TF.SameCoordinates,Original*%
%TF.FileFunction,Drillmap*%
%TF.FilePolarity,Positive*%
%FSLAX45Y45*%
G04 Gerber Fmt 4.5, Leading zero omitted, Abs format (unit mm)*
G04 Created by KiCad (PCBNEW 7.0.5-0) date 2024-02-03 13:41:08*
%MOMM*%
%LPD*%
G01*
G04 APERTURE LIST*
%ADD10C,0.100000*%
%ADD11C,0.200000*%
%ADD12C,0.020000*%
%ADD13C,0.030000*%
%ADD14C,0.076000*%
G04 APERTURE END LIST*
D10*
X10750000Y-8890000D02*
X19150000Y-8890000D01*
X19150000Y-11390000D01*
X10750000Y-11390000D01*
X10750000Y-8890000D01*
X19010312Y-9120000D02*
G75*
G03*
X19010312Y-9120000I-160312J0D01*
G01*
X11251245Y-11100000D02*
G75*
G03*
X11251245Y-11100000I-161245J0D01*
G01*
D11*
D12*
X14395000Y-10565000D02*
X14415000Y-10585000D01*
X14415000Y-10565000D02*
X14395000Y-10585000D01*
X14395000Y-10775000D02*
X14415000Y-10795000D01*
X14415000Y-10775000D02*
X14395000Y-10795000D01*
X14412500Y-9365000D02*
X14432500Y-9385000D01*
X14432500Y-9365000D02*
X14412500Y-9385000D01*
X14412500Y-9575000D02*
X14432500Y-9595000D01*
X14432500Y-9575000D02*
X14412500Y-9595000D01*
X14605000Y-10565000D02*
X14625000Y-10585000D01*
X14625000Y-10565000D02*
X14605000Y-10585000D01*
X14605000Y-10775000D02*
X14625000Y-10795000D01*
X14625000Y-10775000D02*
X14605000Y-10795000D01*
X14622500Y-9365000D02*
X14642500Y-9385000D01*
X14642500Y-9365000D02*
X14622500Y-9385000D01*
X14622500Y-9575000D02*
X14642500Y-9595000D01*
X14642500Y-9575000D02*
X14622500Y-9595000D01*
D13*
X10915000Y-9000000D02*
G75*
G03*
X10915000Y-9000000I-15000J0D01*
G01*
X10915000Y-9800000D02*
G75*
G03*
X10915000Y-9800000I-15000J0D01*
G01*
X10915000Y-10300000D02*
G75*
G03*
X10915000Y-10300000I-15000J0D01*
G01*
X10915000Y-11300000D02*
G75*
G03*
X10915000Y-11300000I-15000J0D01*
G01*
X11415000Y-9000000D02*
G75*
G03*
X11415000Y-9000000I-15000J0D01*
G01*
X11415000Y-9300000D02*
G75*
G03*
X11415000Y-9300000I-15000J0D01*
G01*
X11415000Y-9800000D02*
G75*
G03*
X11415000Y-9800000I-15000J0D01*
G01*
X11415000Y-10300000D02*
G75*
G03*
X11415000Y-10300000I-15000J0D01*
G01*
X11415000Y-10800000D02*
G75*
G03*
X11415000Y-10800000I-15000J0D01*
G01*
X11415000Y-11300000D02*
G75*
G03*
X11415000Y-11300000I-15000J0D01*
G01*
X11855000Y-9920000D02*
G75*
G03*
X11855000Y-9920000I-15000J0D01*
G01*
X12153500Y-9991500D02*
G75*
G03*
X12153500Y-9991500I-15000J0D01*
G01*
X12195000Y-10220000D02*
G75*
G03*
X12195000Y-10220000I-15000J0D01*
G01*
X12225000Y-9120000D02*
G75*
G03*
X12225000Y-9120000I-15000J0D01*
G01*
X12245000Y-9960000D02*
G75*
G03*
X12245000Y-9960000I-15000J0D01*
G01*
X12245000Y-10740000D02*
G75*
G03*
X12245000Y-10740000I-15000J0D01*
G01*
X12285000Y-10450000D02*
G75*
G03*
X12285000Y-10450000I-15000J0D01*
G01*
X12305000Y-8988750D02*
G75*
G03*
X12305000Y-8988750I-15000J0D01*
G01*
X12345000Y-10260000D02*
G75*
G03*
X12345000Y-10260000I-15000J0D01*
G01*
X12365000Y-10150000D02*
G75*
G03*
X12365000Y-10150000I-15000J0D01*
G01*
X12505000Y-10110000D02*
G75*
G03*
X12505000Y-10110000I-15000J0D01*
G01*
X12605000Y-9650000D02*
G75*
G03*
X12605000Y-9650000I-15000J0D01*
G01*
X12685000Y-9650000D02*
G75*
G03*
X12685000Y-9650000I-15000J0D01*
G01*
X12715000Y-10540000D02*
G75*
G03*
X12715000Y-10540000I-15000J0D01*
G01*
X12755000Y-10130000D02*
G75*
G03*
X12755000Y-10130000I-15000J0D01*
G01*
X12805000Y-10390000D02*
G75*
G03*
X12805000Y-10390000I-15000J0D01*
G01*
X12805000Y-10520000D02*
G75*
G03*
X12805000Y-10520000I-15000J0D01*
G01*
X12825000Y-10120000D02*
G75*
G03*
X12825000Y-10120000I-15000J0D01*
G01*
X12879281Y-9677450D02*
G75*
G03*
X12879281Y-9677450I-15000J0D01*
G01*
X12925000Y-9460000D02*
G75*
G03*
X12925000Y-9460000I-15000J0D01*
G01*
X12955000Y-9160000D02*
G75*
G03*
X12955000Y-9160000I-15000J0D01*
G01*
X12958761Y-10186154D02*
G75*
G03*
X12958761Y-10186154I-15000J0D01*
G01*
X13012914Y-10395022D02*
G75*
G03*
X13012914Y-10395022I-15000J0D01*
G01*
X13045000Y-10550000D02*
G75*
G03*
X13045000Y-10550000I-15000J0D01*
G01*
X13102500Y-9300000D02*
G75*
G03*
X13102500Y-9300000I-15000J0D01*
G01*
X13145000Y-9720000D02*
G75*
G03*
X13145000Y-9720000I-15000J0D01*
G01*
X13195000Y-9860000D02*
G75*
G03*
X13195000Y-9860000I-15000J0D01*
G01*
X13215000Y-10210000D02*
G75*
G03*
X13215000Y-10210000I-15000J0D01*
G01*
X13235000Y-9920000D02*
G75*
G03*
X13235000Y-9920000I-15000J0D01*
G01*
X13235000Y-10130000D02*
G75*
G03*
X13235000Y-10130000I-15000J0D01*
G01*
X13235943Y-10280068D02*
G75*
G03*
X13235943Y-10280068I-15000J0D01*
G01*
X13265358Y-9754983D02*
G75*
G03*
X13265358Y-9754983I-15000J0D01*
G01*
X13285000Y-10820000D02*
G75*
G03*
X13285000Y-10820000I-15000J0D01*
G01*
X13335000Y-9640000D02*
G75*
G03*
X13335000Y-9640000I-15000J0D01*
G01*
X13345000Y-10462572D02*
G75*
G03*
X13345000Y-10462572I-15000J0D01*
G01*
X13363517Y-9771483D02*
G75*
G03*
X13363517Y-9771483I-15000J0D01*
G01*
X13365000Y-9427650D02*
G75*
G03*
X13365000Y-9427650I-15000J0D01*
G01*
X13419950Y-9630000D02*
G75*
G03*
X13419950Y-9630000I-15000J0D01*
G01*
X13425000Y-10030000D02*
G75*
G03*
X13425000Y-10030000I-15000J0D01*
G01*
X13505000Y-9950000D02*
G75*
G03*
X13505000Y-9950000I-15000J0D01*
G01*
X13505000Y-10120000D02*
G75*
G03*
X13505000Y-10120000I-15000J0D01*
G01*
X13515000Y-9610000D02*
G75*
G03*
X13515000Y-9610000I-15000J0D01*
G01*
X13585000Y-9400000D02*
G75*
G03*
X13585000Y-9400000I-15000J0D01*
G01*
X13595000Y-9860000D02*
G75*
G03*
X13595000Y-9860000I-15000J0D01*
G01*
X13595000Y-10040000D02*
G75*
G03*
X13595000Y-10040000I-15000J0D01*
G01*
X13595000Y-10200000D02*
G75*
G03*
X13595000Y-10200000I-15000J0D01*
G01*
X13685000Y-9960000D02*
G75*
G03*
X13685000Y-9960000I-15000J0D01*
G01*
X13685000Y-10120000D02*
G75*
G03*
X13685000Y-10120000I-15000J0D01*
G01*
X13695000Y-10770000D02*
G75*
G03*
X13695000Y-10770000I-15000J0D01*
G01*
X13698144Y-10531923D02*
G75*
G03*
X13698144Y-10531923I-15000J0D01*
G01*
X13715000Y-9100000D02*
G75*
G03*
X13715000Y-9100000I-15000J0D01*
G01*
X13725000Y-10892550D02*
G75*
G03*
X13725000Y-10892550I-15000J0D01*
G01*
X13765000Y-10040000D02*
G75*
G03*
X13765000Y-10040000I-15000J0D01*
G01*
X13765000Y-11200000D02*
G75*
G03*
X13765000Y-11200000I-15000J0D01*
G01*
X13767550Y-10460000D02*
G75*
G03*
X13767550Y-10460000I-15000J0D01*
G01*
X13835643Y-10729691D02*
G75*
G03*
X13835643Y-10729691I-15000J0D01*
G01*
X13895000Y-10785768D02*
G75*
G03*
X13895000Y-10785768I-15000J0D01*
G01*
X13897498Y-10347748D02*
G75*
G03*
X13897498Y-10347748I-15000J0D01*
G01*
X13935000Y-9560000D02*
G75*
G03*
X13935000Y-9560000I-15000J0D01*
G01*
X13964149Y-10050000D02*
G75*
G03*
X13964149Y-10050000I-15000J0D01*
G01*
X13964149Y-10260000D02*
G75*
G03*
X13964149Y-10260000I-15000J0D01*
G01*
X13995000Y-10980000D02*
G75*
G03*
X13995000Y-10980000I-15000J0D01*
G01*
X14005000Y-9440000D02*
G75*
G03*
X14005000Y-9440000I-15000J0D01*
G01*
X14015000Y-11300000D02*
G75*
G03*
X14015000Y-11300000I-15000J0D01*
G01*
X14031699Y-9736699D02*
G75*
G03*
X14031699Y-9736699I-15000J0D01*
G01*
X14035000Y-9210000D02*
G75*
G03*
X14035000Y-9210000I-15000J0D01*
G01*
X14035000Y-10660000D02*
G75*
G03*
X14035000Y-10660000I-15000J0D01*
G01*
X14035000Y-10759950D02*
G75*
G03*
X14035000Y-10759950I-15000J0D01*
G01*
X14055000Y-10540000D02*
G75*
G03*
X14055000Y-10540000I-15000J0D01*
G01*
X14085000Y-10150000D02*
G75*
G03*
X14085000Y-10150000I-15000J0D01*
G01*
X14094181Y-10313793D02*
G75*
G03*
X14094181Y-10313793I-15000J0D01*
G01*
X14101344Y-9597550D02*
G75*
G03*
X14101344Y-9597550I-15000J0D01*
G01*
X14125000Y-9462450D02*
G75*
G03*
X14125000Y-9462450I-15000J0D01*
G01*
X14145000Y-10660000D02*
G75*
G03*
X14145000Y-10660000I-15000J0D01*
G01*
X14175000Y-9210000D02*
G75*
G03*
X14175000Y-9210000I-15000J0D01*
G01*
X14192600Y-9556870D02*
G75*
G03*
X14192600Y-9556870I-15000J0D01*
G01*
X14252550Y-9700000D02*
G75*
G03*
X14252550Y-9700000I-15000J0D01*
G01*
X14275000Y-10260000D02*
G75*
G03*
X14275000Y-10260000I-15000J0D01*
G01*
X14315000Y-10370000D02*
G75*
G03*
X14315000Y-10370000I-15000J0D01*
G01*
X14315000Y-11110000D02*
G75*
G03*
X14315000Y-11110000I-15000J0D01*
G01*
X14325000Y-9910000D02*
G75*
G03*
X14325000Y-9910000I-15000J0D01*
G01*
X14435000Y-10680000D02*
G75*
G03*
X14435000Y-10680000I-15000J0D01*
G01*
X14455000Y-9480000D02*
G75*
G03*
X14455000Y-9480000I-15000J0D01*
G01*
X14525000Y-10590000D02*
G75*
G03*
X14525000Y-10590000I-15000J0D01*
G01*
X14525000Y-10680000D02*
G75*
G03*
X14525000Y-10680000I-15000J0D01*
G01*
X14525000Y-10770000D02*
G75*
G03*
X14525000Y-10770000I-15000J0D01*
G01*
X14535000Y-11260000D02*
G75*
G03*
X14535000Y-11260000I-15000J0D01*
G01*
X14545000Y-9390000D02*
G75*
G03*
X14545000Y-9390000I-15000J0D01*
G01*
X14545000Y-9480000D02*
G75*
G03*
X14545000Y-9480000I-15000J0D01*
G01*
X14545000Y-9570000D02*
G75*
G03*
X14545000Y-9570000I-15000J0D01*
G01*
X14545000Y-10090000D02*
G75*
G03*
X14545000Y-10090000I-15000J0D01*
G01*
X14615000Y-10680000D02*
G75*
G03*
X14615000Y-10680000I-15000J0D01*
G01*
X14635000Y-9480000D02*
G75*
G03*
X14635000Y-9480000I-15000J0D01*
G01*
X14685000Y-11000000D02*
G75*
G03*
X14685000Y-11000000I-15000J0D01*
G01*
X14705000Y-10350000D02*
G75*
G03*
X14705000Y-10350000I-15000J0D01*
G01*
X14735000Y-10160000D02*
G75*
G03*
X14735000Y-10160000I-15000J0D01*
G01*
X14745000Y-9950000D02*
G75*
G03*
X14745000Y-9950000I-15000J0D01*
G01*
X14755000Y-9120000D02*
G75*
G03*
X14755000Y-9120000I-15000J0D01*
G01*
X14796100Y-10847927D02*
G75*
G03*
X14796100Y-10847927I-15000J0D01*
G01*
X14812650Y-9610000D02*
G75*
G03*
X14812650Y-9610000I-15000J0D01*
G01*
X14835000Y-9370000D02*
G75*
G03*
X14835000Y-9370000I-15000J0D01*
G01*
X14845000Y-10420000D02*
G75*
G03*
X14845000Y-10420000I-15000J0D01*
G01*
X14865000Y-10600000D02*
G75*
G03*
X14865000Y-10600000I-15000J0D01*
G01*
X14875000Y-9670000D02*
G75*
G03*
X14875000Y-9670000I-15000J0D01*
G01*
X14885000Y-10860000D02*
G75*
G03*
X14885000Y-10860000I-15000J0D01*
G01*
X14905000Y-9290000D02*
G75*
G03*
X14905000Y-9290000I-15000J0D01*
G01*
X14995000Y-11240000D02*
G75*
G03*
X14995000Y-11240000I-15000J0D01*
G01*
X15005000Y-10980000D02*
G75*
G03*
X15005000Y-10980000I-15000J0D01*
G01*
X15015000Y-9830000D02*
G75*
G03*
X15015000Y-9830000I-15000J0D01*
G01*
X15025000Y-10600000D02*
G75*
G03*
X15025000Y-10600000I-15000J0D01*
G01*
X15025000Y-10870000D02*
G75*
G03*
X15025000Y-10870000I-15000J0D01*
G01*
X15035000Y-9670000D02*
G75*
G03*
X15035000Y-9670000I-15000J0D01*
G01*
X15135000Y-9730000D02*
G75*
G03*
X15135000Y-9730000I-15000J0D01*
G01*
X15145000Y-10530000D02*
G75*
G03*
X15145000Y-10530000I-15000J0D01*
G01*
X15185000Y-9850000D02*
G75*
G03*
X15185000Y-9850000I-15000J0D01*
G01*
X15185000Y-10000000D02*
G75*
G03*
X15185000Y-10000000I-15000J0D01*
G01*
X15185000Y-10170000D02*
G75*
G03*
X15185000Y-10170000I-15000J0D01*
G01*
X15185000Y-10340000D02*
G75*
G03*
X15185000Y-10340000I-15000J0D01*
G01*
X15195000Y-9260000D02*
G75*
G03*
X15195000Y-9260000I-15000J0D01*
G01*
X15195000Y-10860000D02*
G75*
G03*
X15195000Y-10860000I-15000J0D01*
G01*
X15265000Y-9520000D02*
G75*
G03*
X15265000Y-9520000I-15000J0D01*
G01*
X15325000Y-9030000D02*
G75*
G03*
X15325000Y-9030000I-15000J0D01*
G01*
X15335000Y-10780000D02*
G75*
G03*
X15335000Y-10780000I-15000J0D01*
G01*
X15355000Y-9260000D02*
G75*
G03*
X15355000Y-9260000I-15000J0D01*
G01*
X15355000Y-9620000D02*
G75*
G03*
X15355000Y-9620000I-15000J0D01*
G01*
X15425000Y-9730000D02*
G75*
G03*
X15425000Y-9730000I-15000J0D01*
G01*
X15425000Y-9870000D02*
G75*
G03*
X15425000Y-9870000I-15000J0D01*
G01*
X15425000Y-10000000D02*
G75*
G03*
X15425000Y-10000000I-15000J0D01*
G01*
X15425000Y-10660000D02*
G75*
G03*
X15425000Y-10660000I-15000J0D01*
G01*
X15435000Y-10340000D02*
G75*
G03*
X15435000Y-10340000I-15000J0D01*
G01*
X15435000Y-10500000D02*
G75*
G03*
X15435000Y-10500000I-15000J0D01*
G01*
X15475000Y-9500000D02*
G75*
G03*
X15475000Y-9500000I-15000J0D01*
G01*
X15515000Y-9260000D02*
G75*
G03*
X15515000Y-9260000I-15000J0D01*
G01*
X15545000Y-9970000D02*
G75*
G03*
X15545000Y-9970000I-15000J0D01*
G01*
X15595000Y-10160000D02*
G75*
G03*
X15595000Y-10160000I-15000J0D01*
G01*
X15610000Y-10320000D02*
G75*
G03*
X15610000Y-10320000I-15000J0D01*
G01*
X15665000Y-9260000D02*
G75*
G03*
X15665000Y-9260000I-15000J0D01*
G01*
X15685000Y-10340000D02*
G75*
G03*
X15685000Y-10340000I-15000J0D01*
G01*
X15695000Y-9500000D02*
G75*
G03*
X15695000Y-9500000I-15000J0D01*
G01*
X15695000Y-10650000D02*
G75*
G03*
X15695000Y-10650000I-15000J0D01*
G01*
X15715000Y-9960000D02*
G75*
G03*
X15715000Y-9960000I-15000J0D01*
G01*
X15715000Y-10080000D02*
G75*
G03*
X15715000Y-10080000I-15000J0D01*
G01*
X15715000Y-11300000D02*
G75*
G03*
X15715000Y-11300000I-15000J0D01*
G01*
X15745000Y-10020000D02*
G75*
G03*
X15745000Y-10020000I-15000J0D01*
G01*
X15775000Y-10160000D02*
G75*
G03*
X15775000Y-10160000I-15000J0D01*
G01*
X15835000Y-9600000D02*
G75*
G03*
X15835000Y-9600000I-15000J0D01*
G01*
X15855000Y-9970000D02*
G75*
G03*
X15855000Y-9970000I-15000J0D01*
G01*
X15855000Y-10070000D02*
G75*
G03*
X15855000Y-10070000I-15000J0D01*
G01*
X15855000Y-10160000D02*
G75*
G03*
X15855000Y-10160000I-15000J0D01*
G01*
X15855000Y-10260000D02*
G75*
G03*
X15855000Y-10260000I-15000J0D01*
G01*
X15855000Y-10410000D02*
G75*
G03*
X15855000Y-10410000I-15000J0D01*
G01*
X15875000Y-9500000D02*
G75*
G03*
X15875000Y-9500000I-15000J0D01*
G01*
X15875000Y-9720000D02*
G75*
G03*
X15875000Y-9720000I-15000J0D01*
G01*
X15895000Y-9010000D02*
G75*
G03*
X15895000Y-9010000I-15000J0D01*
G01*
X15995000Y-10480000D02*
G75*
G03*
X15995000Y-10480000I-15000J0D01*
G01*
X16005000Y-10260000D02*
G75*
G03*
X16005000Y-10260000I-15000J0D01*
G01*
X16015000Y-9260000D02*
G75*
G03*
X16015000Y-9260000I-15000J0D01*
G01*
X16015000Y-9500000D02*
G75*
G03*
X16015000Y-9500000I-15000J0D01*
G01*
X16045000Y-9710000D02*
G75*
G03*
X16045000Y-9710000I-15000J0D01*
G01*
X16115000Y-11300000D02*
G75*
G03*
X16115000Y-11300000I-15000J0D01*
G01*
X16135000Y-10690000D02*
G75*
G03*
X16135000Y-10690000I-15000J0D01*
G01*
X16145000Y-10900000D02*
G75*
G03*
X16145000Y-10900000I-15000J0D01*
G01*
X16165000Y-9260000D02*
G75*
G03*
X16165000Y-9260000I-15000J0D01*
G01*
X16165000Y-9500000D02*
G75*
G03*
X16165000Y-9500000I-15000J0D01*
G01*
X16165000Y-9840000D02*
G75*
G03*
X16165000Y-9840000I-15000J0D01*
G01*
X16165000Y-10000000D02*
G75*
G03*
X16165000Y-10000000I-15000J0D01*
G01*
X16165000Y-10260000D02*
G75*
G03*
X16165000Y-10260000I-15000J0D01*
G01*
X16205000Y-10470000D02*
G75*
G03*
X16205000Y-10470000I-15000J0D01*
G01*
X16315000Y-9000000D02*
G75*
G03*
X16315000Y-9000000I-15000J0D01*
G01*
X16315000Y-9260000D02*
G75*
G03*
X16315000Y-9260000I-15000J0D01*
G01*
X16315000Y-9500000D02*
G75*
G03*
X16315000Y-9500000I-15000J0D01*
G01*
X16315000Y-10000000D02*
G75*
G03*
X16315000Y-10000000I-15000J0D01*
G01*
X16325000Y-10260000D02*
G75*
G03*
X16325000Y-10260000I-15000J0D01*
G01*
X16465000Y-9260000D02*
G75*
G03*
X16465000Y-9260000I-15000J0D01*
G01*
X16465000Y-10000000D02*
G75*
G03*
X16465000Y-10000000I-15000J0D01*
G01*
X16465000Y-10260000D02*
G75*
G03*
X16465000Y-10260000I-15000J0D01*
G01*
X16475000Y-9500000D02*
G75*
G03*
X16475000Y-9500000I-15000J0D01*
G01*
X16515000Y-10900000D02*
G75*
G03*
X16515000Y-10900000I-15000J0D01*
G01*
X16595000Y-9830000D02*
G75*
G03*
X16595000Y-9830000I-15000J0D01*
G01*
X16615000Y-10260000D02*
G75*
G03*
X16615000Y-10260000I-15000J0D01*
G01*
X16625000Y-9260000D02*
G75*
G03*
X16625000Y-9260000I-15000J0D01*
G01*
X16755000Y-10260000D02*
G75*
G03*
X16755000Y-10260000I-15000J0D01*
G01*
X16775000Y-9260000D02*
G75*
G03*
X16775000Y-9260000I-15000J0D01*
G01*
X16775000Y-9510000D02*
G75*
G03*
X16775000Y-9510000I-15000J0D01*
G01*
X16795000Y-9830000D02*
G75*
G03*
X16795000Y-9830000I-15000J0D01*
G01*
X16865000Y-9250000D02*
G75*
G03*
X16865000Y-9250000I-15000J0D01*
G01*
X16885000Y-10260000D02*
G75*
G03*
X16885000Y-10260000I-15000J0D01*
G01*
X16925000Y-9717500D02*
G75*
G03*
X16925000Y-9717500I-15000J0D01*
G01*
X16935000Y-10000000D02*
G75*
G03*
X16935000Y-10000000I-15000J0D01*
G01*
X17015000Y-9510000D02*
G75*
G03*
X17015000Y-9510000I-15000J0D01*
G01*
X17015000Y-10260000D02*
G75*
G03*
X17015000Y-10260000I-15000J0D01*
G01*
X17025000Y-9260000D02*
G75*
G03*
X17025000Y-9260000I-15000J0D01*
G01*
X17025000Y-9830000D02*
G75*
G03*
X17025000Y-9830000I-15000J0D01*
G01*
X17085000Y-10000000D02*
G75*
G03*
X17085000Y-10000000I-15000J0D01*
G01*
X17145000Y-10260000D02*
G75*
G03*
X17145000Y-10260000I-15000J0D01*
G01*
X17155000Y-9260000D02*
G75*
G03*
X17155000Y-9260000I-15000J0D01*
G01*
X17155000Y-11070000D02*
G75*
G03*
X17155000Y-11070000I-15000J0D01*
G01*
X17155000Y-11160000D02*
G75*
G03*
X17155000Y-11160000I-15000J0D01*
G01*
X17225000Y-11010000D02*
G75*
G03*
X17225000Y-11010000I-15000J0D01*
G01*
X17225000Y-11230000D02*
G75*
G03*
X17225000Y-11230000I-15000J0D01*
G01*
X17235000Y-9480000D02*
G75*
G03*
X17235000Y-9480000I-15000J0D01*
G01*
X17235000Y-9570000D02*
G75*
G03*
X17235000Y-9570000I-15000J0D01*
G01*
X17235000Y-9630000D02*
G75*
G03*
X17235000Y-9630000I-15000J0D01*
G01*
X17235000Y-9690000D02*
G75*
G03*
X17235000Y-9690000I-15000J0D01*
G01*
X17235000Y-10000000D02*
G75*
G03*
X17235000Y-10000000I-15000J0D01*
G01*
X17245000Y-9010000D02*
G75*
G03*
X17245000Y-9010000I-15000J0D01*
G01*
X17255000Y-9100000D02*
G75*
G03*
X17255000Y-9100000I-15000J0D01*
G01*
X17255000Y-9200000D02*
G75*
G03*
X17255000Y-9200000I-15000J0D01*
G01*
X17275000Y-10250000D02*
G75*
G03*
X17275000Y-10250000I-15000J0D01*
G01*
X17305000Y-9050000D02*
G75*
G03*
X17305000Y-9050000I-15000J0D01*
G01*
X17305000Y-9150000D02*
G75*
G03*
X17305000Y-9150000I-15000J0D01*
G01*
X17305000Y-9250000D02*
G75*
G03*
X17305000Y-9250000I-15000J0D01*
G01*
X17305000Y-9480000D02*
G75*
G03*
X17305000Y-9480000I-15000J0D01*
G01*
X17345000Y-11230000D02*
G75*
G03*
X17345000Y-11230000I-15000J0D01*
G01*
X17355000Y-9010000D02*
G75*
G03*
X17355000Y-9010000I-15000J0D01*
G01*
X17355000Y-9100000D02*
G75*
G03*
X17355000Y-9100000I-15000J0D01*
G01*
X17355000Y-9200000D02*
G75*
G03*
X17355000Y-9200000I-15000J0D01*
G01*
X17355000Y-11010000D02*
G75*
G03*
X17355000Y-11010000I-15000J0D01*
G01*
X17375000Y-9480000D02*
G75*
G03*
X17375000Y-9480000I-15000J0D01*
G01*
X17385000Y-10000000D02*
G75*
G03*
X17385000Y-10000000I-15000J0D01*
G01*
X17405000Y-10250000D02*
G75*
G03*
X17405000Y-10250000I-15000J0D01*
G01*
X17435000Y-9850000D02*
G75*
G03*
X17435000Y-9850000I-15000J0D01*
G01*
X17465000Y-11230000D02*
G75*
G03*
X17465000Y-11230000I-15000J0D01*
G01*
X17475000Y-11010000D02*
G75*
G03*
X17475000Y-11010000I-15000J0D01*
G01*
X17485000Y-9570000D02*
G75*
G03*
X17485000Y-9570000I-15000J0D01*
G01*
X17515000Y-9220000D02*
G75*
G03*
X17515000Y-9220000I-15000J0D01*
G01*
X17515000Y-10050000D02*
G75*
G03*
X17515000Y-10050000I-15000J0D01*
G01*
X17545000Y-10410000D02*
G75*
G03*
X17545000Y-10410000I-15000J0D01*
G01*
X17595000Y-11010000D02*
G75*
G03*
X17595000Y-11010000I-15000J0D01*
G01*
X17595000Y-11230000D02*
G75*
G03*
X17595000Y-11230000I-15000J0D01*
G01*
X17605000Y-10150000D02*
G75*
G03*
X17605000Y-10150000I-15000J0D01*
G01*
X17625000Y-10480000D02*
G75*
G03*
X17625000Y-10480000I-15000J0D01*
G01*
X17635000Y-9480000D02*
G75*
G03*
X17635000Y-9480000I-15000J0D01*
G01*
X17685000Y-9220000D02*
G75*
G03*
X17685000Y-9220000I-15000J0D01*
G01*
X17685000Y-10230000D02*
G75*
G03*
X17685000Y-10230000I-15000J0D01*
G01*
X17695000Y-10080000D02*
G75*
G03*
X17695000Y-10080000I-15000J0D01*
G01*
X17715000Y-9000000D02*
G75*
G03*
X17715000Y-9000000I-15000J0D01*
G01*
X17715000Y-10790000D02*
G75*
G03*
X17715000Y-10790000I-15000J0D01*
G01*
X17715000Y-11010000D02*
G75*
G03*
X17715000Y-11010000I-15000J0D01*
G01*
X17715000Y-11230000D02*
G75*
G03*
X17715000Y-11230000I-15000J0D01*
G01*
X17735000Y-10490000D02*
G75*
G03*
X17735000Y-10490000I-15000J0D01*
G01*
X17745000Y-9480000D02*
G75*
G03*
X17745000Y-9480000I-15000J0D01*
G01*
X17775000Y-10160000D02*
G75*
G03*
X17775000Y-10160000I-15000J0D01*
G01*
X17825000Y-10280000D02*
G75*
G03*
X17825000Y-10280000I-15000J0D01*
G01*
X17825000Y-11010000D02*
G75*
G03*
X17825000Y-11010000I-15000J0D01*
G01*
X17825000Y-11230000D02*
G75*
G03*
X17825000Y-11230000I-15000J0D01*
G01*
X17845000Y-9220000D02*
G75*
G03*
X17845000Y-9220000I-15000J0D01*
G01*
X17845000Y-10060000D02*
G75*
G03*
X17845000Y-10060000I-15000J0D01*
G01*
X17855000Y-9480000D02*
G75*
G03*
X17855000Y-9480000I-15000J0D01*
G01*
X17895000Y-9830000D02*
G75*
G03*
X17895000Y-9830000I-15000J0D01*
G01*
X17919622Y-10206302D02*
G75*
G03*
X17919622Y-10206302I-15000J0D01*
G01*
X17935000Y-10490000D02*
G75*
G03*
X17935000Y-10490000I-15000J0D01*
G01*
X17945000Y-10790000D02*
G75*
G03*
X17945000Y-10790000I-15000J0D01*
G01*
X17945000Y-11010000D02*
G75*
G03*
X17945000Y-11010000I-15000J0D01*
G01*
X17945000Y-11230000D02*
G75*
G03*
X17945000Y-11230000I-15000J0D01*
G01*
X17965000Y-9480000D02*
G75*
G03*
X17965000Y-9480000I-15000J0D01*
G01*
X17975000Y-10290000D02*
G75*
G03*
X17975000Y-10290000I-15000J0D01*
G01*
X17985000Y-9820000D02*
G75*
G03*
X17985000Y-9820000I-15000J0D01*
G01*
X17985000Y-9900000D02*
G75*
G03*
X17985000Y-9900000I-15000J0D01*
G01*
X17985000Y-9990000D02*
G75*
G03*
X17985000Y-9990000I-15000J0D01*
G01*
X17995000Y-9220000D02*
G75*
G03*
X17995000Y-9220000I-15000J0D01*
G01*
X18015000Y-9660000D02*
G75*
G03*
X18015000Y-9660000I-15000J0D01*
G01*
X18075000Y-9480000D02*
G75*
G03*
X18075000Y-9480000I-15000J0D01*
G01*
X18105000Y-10520000D02*
G75*
G03*
X18105000Y-10520000I-15000J0D01*
G01*
X18105000Y-11230000D02*
G75*
G03*
X18105000Y-11230000I-15000J0D01*
G01*
X18105000Y-11340000D02*
G75*
G03*
X18105000Y-11340000I-15000J0D01*
G01*
X18115000Y-10120000D02*
G75*
G03*
X18115000Y-10120000I-15000J0D01*
G01*
X18115000Y-10650000D02*
G75*
G03*
X18115000Y-10650000I-15000J0D01*
G01*
X18115000Y-10760000D02*
G75*
G03*
X18115000Y-10760000I-15000J0D01*
G01*
X18115000Y-10870000D02*
G75*
G03*
X18115000Y-10870000I-15000J0D01*
G01*
X18115000Y-10980000D02*
G75*
G03*
X18115000Y-10980000I-15000J0D01*
G01*
X18185000Y-10470000D02*
G75*
G03*
X18185000Y-10470000I-15000J0D01*
G01*
X18205000Y-10350000D02*
G75*
G03*
X18205000Y-10350000I-15000J0D01*
G01*
X18225000Y-9990000D02*
G75*
G03*
X18225000Y-9990000I-15000J0D01*
G01*
X18225000Y-10240000D02*
G75*
G03*
X18225000Y-10240000I-15000J0D01*
G01*
X18235000Y-9690000D02*
G75*
G03*
X18235000Y-9690000I-15000J0D01*
G01*
X18235000Y-9790000D02*
G75*
G03*
X18235000Y-9790000I-15000J0D01*
G01*
X18235000Y-9900000D02*
G75*
G03*
X18235000Y-9900000I-15000J0D01*
G01*
X18295000Y-9210000D02*
G75*
G03*
X18295000Y-9210000I-15000J0D01*
G01*
X18295000Y-9290000D02*
G75*
G03*
X18295000Y-9290000I-15000J0D01*
G01*
X18305000Y-10230000D02*
G75*
G03*
X18305000Y-10230000I-15000J0D01*
G01*
X18315000Y-10000000D02*
G75*
G03*
X18315000Y-10000000I-15000J0D01*
G01*
X18315000Y-10470000D02*
G75*
G03*
X18315000Y-10470000I-15000J0D01*
G01*
X18385000Y-9690000D02*
G75*
G03*
X18385000Y-9690000I-15000J0D01*
G01*
X18435000Y-9300000D02*
G75*
G03*
X18435000Y-9300000I-15000J0D01*
G01*
X18435000Y-10230000D02*
G75*
G03*
X18435000Y-10230000I-15000J0D01*
G01*
X18435000Y-10470000D02*
G75*
G03*
X18435000Y-10470000I-15000J0D01*
G01*
X18445000Y-10000000D02*
G75*
G03*
X18445000Y-10000000I-15000J0D01*
G01*
X18525000Y-9690000D02*
G75*
G03*
X18525000Y-9690000I-15000J0D01*
G01*
X18555000Y-9430000D02*
G75*
G03*
X18555000Y-9430000I-15000J0D01*
G01*
X18555000Y-9560000D02*
G75*
G03*
X18555000Y-9560000I-15000J0D01*
G01*
X18555000Y-10470000D02*
G75*
G03*
X18555000Y-10470000I-15000J0D01*
G01*
X18575000Y-10000000D02*
G75*
G03*
X18575000Y-10000000I-15000J0D01*
G01*
X18575000Y-10230000D02*
G75*
G03*
X18575000Y-10230000I-15000J0D01*
G01*
X18665000Y-9690000D02*
G75*
G03*
X18665000Y-9690000I-15000J0D01*
G01*
X18665000Y-10470000D02*
G75*
G03*
X18665000Y-10470000I-15000J0D01*
G01*
X18705000Y-9430000D02*
G75*
G03*
X18705000Y-9430000I-15000J0D01*
G01*
X18775000Y-10470000D02*
G75*
G03*
X18775000Y-10470000I-15000J0D01*
G01*
X18815000Y-9690000D02*
G75*
G03*
X18815000Y-9690000I-15000J0D01*
G01*
X18885000Y-10470000D02*
G75*
G03*
X18885000Y-10470000I-15000J0D01*
G01*
X18985000Y-9690000D02*
G75*
G03*
X18985000Y-9690000I-15000J0D01*
G01*
X18995000Y-10470000D02*
G75*
G03*
X18995000Y-10470000I-15000J0D01*
G01*
X19095000Y-10470000D02*
G75*
G03*
X19095000Y-10470000I-15000J0D01*
G01*
X19115000Y-9000000D02*
G75*
G03*
X19115000Y-9000000I-15000J0D01*
G01*
X19115000Y-9300000D02*
G75*
G03*
X19115000Y-9300000I-15000J0D01*
G01*
X19115000Y-9600000D02*
G75*
G03*
X19115000Y-9600000I-15000J0D01*
G01*
D14*
X11685000Y-9627000D02*
X11685000Y-9703000D01*
X11647000Y-9665000D02*
X11723000Y-9665000D01*
X11685000Y-9881000D02*
X11685000Y-9957000D01*
X11647000Y-9919000D02*
X11723000Y-9919000D01*
X11685000Y-10135000D02*
X11685000Y-10211000D01*
X11647000Y-10173000D02*
X11723000Y-10173000D01*
X11685000Y-10389000D02*
X11685000Y-10465000D01*
X11647000Y-10427000D02*
X11723000Y-10427000D01*
X11939000Y-9754000D02*
X11939000Y-9830000D01*
X11901000Y-9792000D02*
X11977000Y-9792000D01*
X11939000Y-10008000D02*
X11939000Y-10084000D01*
X11901000Y-10046000D02*
X11977000Y-10046000D01*
X11939000Y-10262000D02*
X11939000Y-10338000D01*
X11901000Y-10300000D02*
X11977000Y-10300000D01*
X11939000Y-10516000D02*
X11939000Y-10592000D01*
X11901000Y-10554000D02*
X11977000Y-10554000D01*
D10*
X11767856Y-11225356D02*
X11767856Y-11154644D01*
X11697144Y-11154644D01*
X11697144Y-11225356D01*
X11767856Y-11225356D01*
X12021856Y-11225356D02*
X12021856Y-11154644D01*
X11951144Y-11154644D01*
X11951144Y-11225356D01*
X12021856Y-11225356D01*
X12275856Y-11225356D02*
X12275856Y-11154644D01*
X12205144Y-11154644D01*
X12205144Y-11225356D01*
X12275856Y-11225356D01*
X12529856Y-11225356D02*
X12529856Y-11154644D01*
X12459144Y-11154644D01*
X12459144Y-11225356D01*
X12529856Y-11225356D01*
X12783856Y-11225356D02*
X12783856Y-11154644D01*
X12713144Y-11154644D01*
X12713144Y-11225356D01*
X12783856Y-11225356D01*
D11*
X11005777Y-11706484D02*
X11005777Y-11506484D01*
X11005777Y-11506484D02*
X11053396Y-11506484D01*
X11053396Y-11506484D02*
X11081967Y-11516008D01*
X11081967Y-11516008D02*
X11101015Y-11535055D01*
X11101015Y-11535055D02*
X11110539Y-11554103D01*
X11110539Y-11554103D02*
X11120063Y-11592198D01*
X11120063Y-11592198D02*
X11120063Y-11620769D01*
X11120063Y-11620769D02*
X11110539Y-11658865D01*
X11110539Y-11658865D02*
X11101015Y-11677912D01*
X11101015Y-11677912D02*
X11081967Y-11696960D01*
X11081967Y-11696960D02*
X11053396Y-11706484D01*
X11053396Y-11706484D02*
X11005777Y-11706484D01*
X11205777Y-11706484D02*
X11205777Y-11573150D01*
X11205777Y-11611246D02*
X11215301Y-11592198D01*
X11215301Y-11592198D02*
X11224824Y-11582674D01*
X11224824Y-11582674D02*
X11243872Y-11573150D01*
X11243872Y-11573150D02*
X11262920Y-11573150D01*
X11329586Y-11706484D02*
X11329586Y-11573150D01*
X11329586Y-11506484D02*
X11320062Y-11516008D01*
X11320062Y-11516008D02*
X11329586Y-11525531D01*
X11329586Y-11525531D02*
X11339110Y-11516008D01*
X11339110Y-11516008D02*
X11329586Y-11506484D01*
X11329586Y-11506484D02*
X11329586Y-11525531D01*
X11453396Y-11706484D02*
X11434348Y-11696960D01*
X11434348Y-11696960D02*
X11424824Y-11677912D01*
X11424824Y-11677912D02*
X11424824Y-11506484D01*
X11558158Y-11706484D02*
X11539110Y-11696960D01*
X11539110Y-11696960D02*
X11529586Y-11677912D01*
X11529586Y-11677912D02*
X11529586Y-11506484D01*
X11786729Y-11706484D02*
X11786729Y-11506484D01*
X11786729Y-11506484D02*
X11853396Y-11649341D01*
X11853396Y-11649341D02*
X11920062Y-11506484D01*
X11920062Y-11506484D02*
X11920062Y-11706484D01*
X12101015Y-11706484D02*
X12101015Y-11601722D01*
X12101015Y-11601722D02*
X12091491Y-11582674D01*
X12091491Y-11582674D02*
X12072443Y-11573150D01*
X12072443Y-11573150D02*
X12034348Y-11573150D01*
X12034348Y-11573150D02*
X12015301Y-11582674D01*
X12101015Y-11696960D02*
X12081967Y-11706484D01*
X12081967Y-11706484D02*
X12034348Y-11706484D01*
X12034348Y-11706484D02*
X12015301Y-11696960D01*
X12015301Y-11696960D02*
X12005777Y-11677912D01*
X12005777Y-11677912D02*
X12005777Y-11658865D01*
X12005777Y-11658865D02*
X12015301Y-11639817D01*
X12015301Y-11639817D02*
X12034348Y-11630293D01*
X12034348Y-11630293D02*
X12081967Y-11630293D01*
X12081967Y-11630293D02*
X12101015Y-11620769D01*
X12196253Y-11573150D02*
X12196253Y-11773150D01*
X12196253Y-11582674D02*
X12215301Y-11573150D01*
X12215301Y-11573150D02*
X12253396Y-11573150D01*
X12253396Y-11573150D02*
X12272443Y-11582674D01*
X12272443Y-11582674D02*
X12281967Y-11592198D01*
X12281967Y-11592198D02*
X12291491Y-11611246D01*
X12291491Y-11611246D02*
X12291491Y-11668388D01*
X12291491Y-11668388D02*
X12281967Y-11687436D01*
X12281967Y-11687436D02*
X12272443Y-11696960D01*
X12272443Y-11696960D02*
X12253396Y-11706484D01*
X12253396Y-11706484D02*
X12215301Y-11706484D01*
X12215301Y-11706484D02*
X12196253Y-11696960D01*
X12377205Y-11687436D02*
X12386729Y-11696960D01*
X12386729Y-11696960D02*
X12377205Y-11706484D01*
X12377205Y-11706484D02*
X12367682Y-11696960D01*
X12367682Y-11696960D02*
X12377205Y-11687436D01*
X12377205Y-11687436D02*
X12377205Y-11706484D01*
X12377205Y-11582674D02*
X12386729Y-11592198D01*
X12386729Y-11592198D02*
X12377205Y-11601722D01*
X12377205Y-11601722D02*
X12367682Y-11592198D01*
X12367682Y-11592198D02*
X12377205Y-11582674D01*
X12377205Y-11582674D02*
X12377205Y-11601722D01*
D12*
X10725000Y-12025000D02*
X10745000Y-12045000D01*
X10745000Y-12025000D02*
X10725000Y-12045000D01*
D11*
X11043872Y-11926484D02*
X11062920Y-11926484D01*
X11062920Y-11926484D02*
X11081967Y-11936008D01*
X11081967Y-11936008D02*
X11091491Y-11945531D01*
X11091491Y-11945531D02*
X11101015Y-11964579D01*
X11101015Y-11964579D02*
X11110539Y-12002674D01*
X11110539Y-12002674D02*
X11110539Y-12050293D01*
X11110539Y-12050293D02*
X11101015Y-12088388D01*
X11101015Y-12088388D02*
X11091491Y-12107436D01*
X11091491Y-12107436D02*
X11081967Y-12116960D01*
X11081967Y-12116960D02*
X11062920Y-12126484D01*
X11062920Y-12126484D02*
X11043872Y-12126484D01*
X11043872Y-12126484D02*
X11024824Y-12116960D01*
X11024824Y-12116960D02*
X11015301Y-12107436D01*
X11015301Y-12107436D02*
X11005777Y-12088388D01*
X11005777Y-12088388D02*
X10996253Y-12050293D01*
X10996253Y-12050293D02*
X10996253Y-12002674D01*
X10996253Y-12002674D02*
X11005777Y-11964579D01*
X11005777Y-11964579D02*
X11015301Y-11945531D01*
X11015301Y-11945531D02*
X11024824Y-11936008D01*
X11024824Y-11936008D02*
X11043872Y-11926484D01*
X11196253Y-12107436D02*
X11205777Y-12116960D01*
X11205777Y-12116960D02*
X11196253Y-12126484D01*
X11196253Y-12126484D02*
X11186729Y-12116960D01*
X11186729Y-12116960D02*
X11196253Y-12107436D01*
X11196253Y-12107436D02*
X11196253Y-12126484D01*
X11281967Y-11945531D02*
X11291491Y-11936008D01*
X11291491Y-11936008D02*
X11310539Y-11926484D01*
X11310539Y-11926484D02*
X11358158Y-11926484D01*
X11358158Y-11926484D02*
X11377205Y-11936008D01*
X11377205Y-11936008D02*
X11386729Y-11945531D01*
X11386729Y-11945531D02*
X11396253Y-11964579D01*
X11396253Y-11964579D02*
X11396253Y-11983627D01*
X11396253Y-11983627D02*
X11386729Y-12012198D01*
X11386729Y-12012198D02*
X11272443Y-12126484D01*
X11272443Y-12126484D02*
X11396253Y-12126484D01*
X11520062Y-11926484D02*
X11539110Y-11926484D01*
X11539110Y-11926484D02*
X11558158Y-11936008D01*
X11558158Y-11936008D02*
X11567682Y-11945531D01*
X11567682Y-11945531D02*
X11577205Y-11964579D01*
X11577205Y-11964579D02*
X11586729Y-12002674D01*
X11586729Y-12002674D02*
X11586729Y-12050293D01*
X11586729Y-12050293D02*
X11577205Y-12088388D01*
X11577205Y-12088388D02*
X11567682Y-12107436D01*
X11567682Y-12107436D02*
X11558158Y-12116960D01*
X11558158Y-12116960D02*
X11539110Y-12126484D01*
X11539110Y-12126484D02*
X11520062Y-12126484D01*
X11520062Y-12126484D02*
X11501015Y-12116960D01*
X11501015Y-12116960D02*
X11491491Y-12107436D01*
X11491491Y-12107436D02*
X11481967Y-12088388D01*
X11481967Y-12088388D02*
X11472443Y-12050293D01*
X11472443Y-12050293D02*
X11472443Y-12002674D01*
X11472443Y-12002674D02*
X11481967Y-11964579D01*
X11481967Y-11964579D02*
X11491491Y-11945531D01*
X11491491Y-11945531D02*
X11501015Y-11936008D01*
X11501015Y-11936008D02*
X11520062Y-11926484D01*
X11710539Y-11926484D02*
X11729586Y-11926484D01*
X11729586Y-11926484D02*
X11748634Y-11936008D01*
X11748634Y-11936008D02*
X11758158Y-11945531D01*
X11758158Y-11945531D02*
X11767682Y-11964579D01*
X11767682Y-11964579D02*
X11777205Y-12002674D01*
X11777205Y-12002674D02*
X11777205Y-12050293D01*
X11777205Y-12050293D02*
X11767682Y-12088388D01*
X11767682Y-12088388D02*
X11758158Y-12107436D01*
X11758158Y-12107436D02*
X11748634Y-12116960D01*
X11748634Y-12116960D02*
X11729586Y-12126484D01*
X11729586Y-12126484D02*
X11710539Y-12126484D01*
X11710539Y-12126484D02*
X11691491Y-12116960D01*
X11691491Y-12116960D02*
X11681967Y-12107436D01*
X11681967Y-12107436D02*
X11672443Y-12088388D01*
X11672443Y-12088388D02*
X11662920Y-12050293D01*
X11662920Y-12050293D02*
X11662920Y-12002674D01*
X11662920Y-12002674D02*
X11672443Y-11964579D01*
X11672443Y-11964579D02*
X11681967Y-11945531D01*
X11681967Y-11945531D02*
X11691491Y-11936008D01*
X11691491Y-11936008D02*
X11710539Y-11926484D01*
X11862920Y-12126484D02*
X11862920Y-11993150D01*
X11862920Y-12012198D02*
X11872443Y-12002674D01*
X11872443Y-12002674D02*
X11891491Y-11993150D01*
X11891491Y-11993150D02*
X11920063Y-11993150D01*
X11920063Y-11993150D02*
X11939110Y-12002674D01*
X11939110Y-12002674D02*
X11948634Y-12021722D01*
X11948634Y-12021722D02*
X11948634Y-12126484D01*
X11948634Y-12021722D02*
X11958158Y-12002674D01*
X11958158Y-12002674D02*
X11977205Y-11993150D01*
X11977205Y-11993150D02*
X12005777Y-11993150D01*
X12005777Y-11993150D02*
X12024824Y-12002674D01*
X12024824Y-12002674D02*
X12034348Y-12021722D01*
X12034348Y-12021722D02*
X12034348Y-12126484D01*
X12129586Y-12126484D02*
X12129586Y-11993150D01*
X12129586Y-12012198D02*
X12139110Y-12002674D01*
X12139110Y-12002674D02*
X12158158Y-11993150D01*
X12158158Y-11993150D02*
X12186729Y-11993150D01*
X12186729Y-11993150D02*
X12205777Y-12002674D01*
X12205777Y-12002674D02*
X12215301Y-12021722D01*
X12215301Y-12021722D02*
X12215301Y-12126484D01*
X12215301Y-12021722D02*
X12224824Y-12002674D01*
X12224824Y-12002674D02*
X12243872Y-11993150D01*
X12243872Y-11993150D02*
X12272443Y-11993150D01*
X12272443Y-11993150D02*
X12291491Y-12002674D01*
X12291491Y-12002674D02*
X12301015Y-12021722D01*
X12301015Y-12021722D02*
X12301015Y-12126484D01*
X12691491Y-11916960D02*
X12520063Y-12174103D01*
X12948634Y-11926484D02*
X12967682Y-11926484D01*
X12967682Y-11926484D02*
X12986729Y-11936008D01*
X12986729Y-11936008D02*
X12996253Y-11945531D01*
X12996253Y-11945531D02*
X13005777Y-11964579D01*
X13005777Y-11964579D02*
X13015301Y-12002674D01*
X13015301Y-12002674D02*
X13015301Y-12050293D01*
X13015301Y-12050293D02*
X13005777Y-12088388D01*
X13005777Y-12088388D02*
X12996253Y-12107436D01*
X12996253Y-12107436D02*
X12986729Y-12116960D01*
X12986729Y-12116960D02*
X12967682Y-12126484D01*
X12967682Y-12126484D02*
X12948634Y-12126484D01*
X12948634Y-12126484D02*
X12929586Y-12116960D01*
X12929586Y-12116960D02*
X12920063Y-12107436D01*
X12920063Y-12107436D02*
X12910539Y-12088388D01*
X12910539Y-12088388D02*
X12901015Y-12050293D01*
X12901015Y-12050293D02*
X12901015Y-12002674D01*
X12901015Y-12002674D02*
X12910539Y-11964579D01*
X12910539Y-11964579D02*
X12920063Y-11945531D01*
X12920063Y-11945531D02*
X12929586Y-11936008D01*
X12929586Y-11936008D02*
X12948634Y-11926484D01*
X13101015Y-12107436D02*
X13110539Y-12116960D01*
X13110539Y-12116960D02*
X13101015Y-12126484D01*
X13101015Y-12126484D02*
X13091491Y-12116960D01*
X13091491Y-12116960D02*
X13101015Y-12107436D01*
X13101015Y-12107436D02*
X13101015Y-12126484D01*
X13234348Y-11926484D02*
X13253396Y-11926484D01*
X13253396Y-11926484D02*
X13272444Y-11936008D01*
X13272444Y-11936008D02*
X13281967Y-11945531D01*
X13281967Y-11945531D02*
X13291491Y-11964579D01*
X13291491Y-11964579D02*
X13301015Y-12002674D01*
X13301015Y-12002674D02*
X13301015Y-12050293D01*
X13301015Y-12050293D02*
X13291491Y-12088388D01*
X13291491Y-12088388D02*
X13281967Y-12107436D01*
X13281967Y-12107436D02*
X13272444Y-12116960D01*
X13272444Y-12116960D02*
X13253396Y-12126484D01*
X13253396Y-12126484D02*
X13234348Y-12126484D01*
X13234348Y-12126484D02*
X13215301Y-12116960D01*
X13215301Y-12116960D02*
X13205777Y-12107436D01*
X13205777Y-12107436D02*
X13196253Y-12088388D01*
X13196253Y-12088388D02*
X13186729Y-12050293D01*
X13186729Y-12050293D02*
X13186729Y-12002674D01*
X13186729Y-12002674D02*
X13196253Y-11964579D01*
X13196253Y-11964579D02*
X13205777Y-11945531D01*
X13205777Y-11945531D02*
X13215301Y-11936008D01*
X13215301Y-11936008D02*
X13234348Y-11926484D01*
X13424825Y-11926484D02*
X13443872Y-11926484D01*
X13443872Y-11926484D02*
X13462920Y-11936008D01*
X13462920Y-11936008D02*
X13472444Y-11945531D01*
X13472444Y-11945531D02*
X13481967Y-11964579D01*
X13481967Y-11964579D02*
X13491491Y-12002674D01*
X13491491Y-12002674D02*
X13491491Y-12050293D01*
X13491491Y-12050293D02*
X13481967Y-12088388D01*
X13481967Y-12088388D02*
X13472444Y-12107436D01*
X13472444Y-12107436D02*
X13462920Y-12116960D01*
X13462920Y-12116960D02*
X13443872Y-12126484D01*
X13443872Y-12126484D02*
X13424825Y-12126484D01*
X13424825Y-12126484D02*
X13405777Y-12116960D01*
X13405777Y-12116960D02*
X13396253Y-12107436D01*
X13396253Y-12107436D02*
X13386729Y-12088388D01*
X13386729Y-12088388D02*
X13377206Y-12050293D01*
X13377206Y-12050293D02*
X13377206Y-12002674D01*
X13377206Y-12002674D02*
X13386729Y-11964579D01*
X13386729Y-11964579D02*
X13396253Y-11945531D01*
X13396253Y-11945531D02*
X13405777Y-11936008D01*
X13405777Y-11936008D02*
X13424825Y-11926484D01*
X13558158Y-11926484D02*
X13691491Y-11926484D01*
X13691491Y-11926484D02*
X13605777Y-12126484D01*
X13777206Y-12126484D02*
X13815301Y-12126484D01*
X13815301Y-12126484D02*
X13834348Y-12116960D01*
X13834348Y-12116960D02*
X13843872Y-12107436D01*
X13843872Y-12107436D02*
X13862920Y-12078865D01*
X13862920Y-12078865D02*
X13872444Y-12040769D01*
X13872444Y-12040769D02*
X13872444Y-11964579D01*
X13872444Y-11964579D02*
X13862920Y-11945531D01*
X13862920Y-11945531D02*
X13853396Y-11936008D01*
X13853396Y-11936008D02*
X13834348Y-11926484D01*
X13834348Y-11926484D02*
X13796253Y-11926484D01*
X13796253Y-11926484D02*
X13777206Y-11936008D01*
X13777206Y-11936008D02*
X13767682Y-11945531D01*
X13767682Y-11945531D02*
X13758158Y-11964579D01*
X13758158Y-11964579D02*
X13758158Y-12012198D01*
X13758158Y-12012198D02*
X13767682Y-12031246D01*
X13767682Y-12031246D02*
X13777206Y-12040769D01*
X13777206Y-12040769D02*
X13796253Y-12050293D01*
X13796253Y-12050293D02*
X13834348Y-12050293D01*
X13834348Y-12050293D02*
X13853396Y-12040769D01*
X13853396Y-12040769D02*
X13862920Y-12031246D01*
X13862920Y-12031246D02*
X13872444Y-12012198D01*
X13948634Y-11926484D02*
X13948634Y-11964579D01*
X14024825Y-11926484D02*
X14024825Y-11964579D01*
X14320063Y-12202674D02*
X14310539Y-12193150D01*
X14310539Y-12193150D02*
X14291491Y-12164579D01*
X14291491Y-12164579D02*
X14281968Y-12145531D01*
X14281968Y-12145531D02*
X14272444Y-12116960D01*
X14272444Y-12116960D02*
X14262920Y-12069341D01*
X14262920Y-12069341D02*
X14262920Y-12031246D01*
X14262920Y-12031246D02*
X14272444Y-11983627D01*
X14272444Y-11983627D02*
X14281968Y-11955055D01*
X14281968Y-11955055D02*
X14291491Y-11936008D01*
X14291491Y-11936008D02*
X14310539Y-11907436D01*
X14310539Y-11907436D02*
X14320063Y-11897912D01*
X14424825Y-12012198D02*
X14405777Y-12002674D01*
X14405777Y-12002674D02*
X14396253Y-11993150D01*
X14396253Y-11993150D02*
X14386729Y-11974103D01*
X14386729Y-11974103D02*
X14386729Y-11964579D01*
X14386729Y-11964579D02*
X14396253Y-11945531D01*
X14396253Y-11945531D02*
X14405777Y-11936008D01*
X14405777Y-11936008D02*
X14424825Y-11926484D01*
X14424825Y-11926484D02*
X14462920Y-11926484D01*
X14462920Y-11926484D02*
X14481968Y-11936008D01*
X14481968Y-11936008D02*
X14491491Y-11945531D01*
X14491491Y-11945531D02*
X14501015Y-11964579D01*
X14501015Y-11964579D02*
X14501015Y-11974103D01*
X14501015Y-11974103D02*
X14491491Y-11993150D01*
X14491491Y-11993150D02*
X14481968Y-12002674D01*
X14481968Y-12002674D02*
X14462920Y-12012198D01*
X14462920Y-12012198D02*
X14424825Y-12012198D01*
X14424825Y-12012198D02*
X14405777Y-12021722D01*
X14405777Y-12021722D02*
X14396253Y-12031246D01*
X14396253Y-12031246D02*
X14386729Y-12050293D01*
X14386729Y-12050293D02*
X14386729Y-12088388D01*
X14386729Y-12088388D02*
X14396253Y-12107436D01*
X14396253Y-12107436D02*
X14405777Y-12116960D01*
X14405777Y-12116960D02*
X14424825Y-12126484D01*
X14424825Y-12126484D02*
X14462920Y-12126484D01*
X14462920Y-12126484D02*
X14481968Y-12116960D01*
X14481968Y-12116960D02*
X14491491Y-12107436D01*
X14491491Y-12107436D02*
X14501015Y-12088388D01*
X14501015Y-12088388D02*
X14501015Y-12050293D01*
X14501015Y-12050293D02*
X14491491Y-12031246D01*
X14491491Y-12031246D02*
X14481968Y-12021722D01*
X14481968Y-12021722D02*
X14462920Y-12012198D01*
X14739110Y-12126484D02*
X14739110Y-11926484D01*
X14824825Y-12126484D02*
X14824825Y-12021722D01*
X14824825Y-12021722D02*
X14815301Y-12002674D01*
X14815301Y-12002674D02*
X14796253Y-11993150D01*
X14796253Y-11993150D02*
X14767682Y-11993150D01*
X14767682Y-11993150D02*
X14748634Y-12002674D01*
X14748634Y-12002674D02*
X14739110Y-12012198D01*
X14948634Y-12126484D02*
X14929587Y-12116960D01*
X14929587Y-12116960D02*
X14920063Y-12107436D01*
X14920063Y-12107436D02*
X14910539Y-12088388D01*
X14910539Y-12088388D02*
X14910539Y-12031246D01*
X14910539Y-12031246D02*
X14920063Y-12012198D01*
X14920063Y-12012198D02*
X14929587Y-12002674D01*
X14929587Y-12002674D02*
X14948634Y-11993150D01*
X14948634Y-11993150D02*
X14977206Y-11993150D01*
X14977206Y-11993150D02*
X14996253Y-12002674D01*
X14996253Y-12002674D02*
X15005777Y-12012198D01*
X15005777Y-12012198D02*
X15015301Y-12031246D01*
X15015301Y-12031246D02*
X15015301Y-12088388D01*
X15015301Y-12088388D02*
X15005777Y-12107436D01*
X15005777Y-12107436D02*
X14996253Y-12116960D01*
X14996253Y-12116960D02*
X14977206Y-12126484D01*
X14977206Y-12126484D02*
X14948634Y-12126484D01*
X15129587Y-12126484D02*
X15110539Y-12116960D01*
X15110539Y-12116960D02*
X15101015Y-12097912D01*
X15101015Y-12097912D02*
X15101015Y-11926484D01*
X15281968Y-12116960D02*
X15262920Y-12126484D01*
X15262920Y-12126484D02*
X15224825Y-12126484D01*
X15224825Y-12126484D02*
X15205777Y-12116960D01*
X15205777Y-12116960D02*
X15196253Y-12097912D01*
X15196253Y-12097912D02*
X15196253Y-12021722D01*
X15196253Y-12021722D02*
X15205777Y-12002674D01*
X15205777Y-12002674D02*
X15224825Y-11993150D01*
X15224825Y-11993150D02*
X15262920Y-11993150D01*
X15262920Y-11993150D02*
X15281968Y-12002674D01*
X15281968Y-12002674D02*
X15291491Y-12021722D01*
X15291491Y-12021722D02*
X15291491Y-12040769D01*
X15291491Y-12040769D02*
X15196253Y-12059817D01*
X15367682Y-12116960D02*
X15386730Y-12126484D01*
X15386730Y-12126484D02*
X15424825Y-12126484D01*
X15424825Y-12126484D02*
X15443872Y-12116960D01*
X15443872Y-12116960D02*
X15453396Y-12097912D01*
X15453396Y-12097912D02*
X15453396Y-12088388D01*
X15453396Y-12088388D02*
X15443872Y-12069341D01*
X15443872Y-12069341D02*
X15424825Y-12059817D01*
X15424825Y-12059817D02*
X15396253Y-12059817D01*
X15396253Y-12059817D02*
X15377206Y-12050293D01*
X15377206Y-12050293D02*
X15367682Y-12031246D01*
X15367682Y-12031246D02*
X15367682Y-12021722D01*
X15367682Y-12021722D02*
X15377206Y-12002674D01*
X15377206Y-12002674D02*
X15396253Y-11993150D01*
X15396253Y-11993150D02*
X15424825Y-11993150D01*
X15424825Y-11993150D02*
X15443872Y-12002674D01*
X15520063Y-12202674D02*
X15529587Y-12193150D01*
X15529587Y-12193150D02*
X15548634Y-12164579D01*
X15548634Y-12164579D02*
X15558158Y-12145531D01*
X15558158Y-12145531D02*
X15567682Y-12116960D01*
X15567682Y-12116960D02*
X15577206Y-12069341D01*
X15577206Y-12069341D02*
X15577206Y-12031246D01*
X15577206Y-12031246D02*
X15567682Y-11983627D01*
X15567682Y-11983627D02*
X15558158Y-11955055D01*
X15558158Y-11955055D02*
X15548634Y-11936008D01*
X15548634Y-11936008D02*
X15529587Y-11907436D01*
X15529587Y-11907436D02*
X15520063Y-11897912D01*
D13*
X10745000Y-12299000D02*
G75*
G03*
X10745000Y-12299000I-15000J0D01*
G01*
D11*
X11043872Y-12190484D02*
X11062920Y-12190484D01*
X11062920Y-12190484D02*
X11081967Y-12200008D01*
X11081967Y-12200008D02*
X11091491Y-12209531D01*
X11091491Y-12209531D02*
X11101015Y-12228579D01*
X11101015Y-12228579D02*
X11110539Y-12266674D01*
X11110539Y-12266674D02*
X11110539Y-12314293D01*
X11110539Y-12314293D02*
X11101015Y-12352388D01*
X11101015Y-12352388D02*
X11091491Y-12371436D01*
X11091491Y-12371436D02*
X11081967Y-12380960D01*
X11081967Y-12380960D02*
X11062920Y-12390484D01*
X11062920Y-12390484D02*
X11043872Y-12390484D01*
X11043872Y-12390484D02*
X11024824Y-12380960D01*
X11024824Y-12380960D02*
X11015301Y-12371436D01*
X11015301Y-12371436D02*
X11005777Y-12352388D01*
X11005777Y-12352388D02*
X10996253Y-12314293D01*
X10996253Y-12314293D02*
X10996253Y-12266674D01*
X10996253Y-12266674D02*
X11005777Y-12228579D01*
X11005777Y-12228579D02*
X11015301Y-12209531D01*
X11015301Y-12209531D02*
X11024824Y-12200008D01*
X11024824Y-12200008D02*
X11043872Y-12190484D01*
X11196253Y-12371436D02*
X11205777Y-12380960D01*
X11205777Y-12380960D02*
X11196253Y-12390484D01*
X11196253Y-12390484D02*
X11186729Y-12380960D01*
X11186729Y-12380960D02*
X11196253Y-12371436D01*
X11196253Y-12371436D02*
X11196253Y-12390484D01*
X11272443Y-12190484D02*
X11396253Y-12190484D01*
X11396253Y-12190484D02*
X11329586Y-12266674D01*
X11329586Y-12266674D02*
X11358158Y-12266674D01*
X11358158Y-12266674D02*
X11377205Y-12276198D01*
X11377205Y-12276198D02*
X11386729Y-12285722D01*
X11386729Y-12285722D02*
X11396253Y-12304769D01*
X11396253Y-12304769D02*
X11396253Y-12352388D01*
X11396253Y-12352388D02*
X11386729Y-12371436D01*
X11386729Y-12371436D02*
X11377205Y-12380960D01*
X11377205Y-12380960D02*
X11358158Y-12390484D01*
X11358158Y-12390484D02*
X11301015Y-12390484D01*
X11301015Y-12390484D02*
X11281967Y-12380960D01*
X11281967Y-12380960D02*
X11272443Y-12371436D01*
X11520062Y-12190484D02*
X11539110Y-12190484D01*
X11539110Y-12190484D02*
X11558158Y-12200008D01*
X11558158Y-12200008D02*
X11567682Y-12209531D01*
X11567682Y-12209531D02*
X11577205Y-12228579D01*
X11577205Y-12228579D02*
X11586729Y-12266674D01*
X11586729Y-12266674D02*
X11586729Y-12314293D01*
X11586729Y-12314293D02*
X11577205Y-12352388D01*
X11577205Y-12352388D02*
X11567682Y-12371436D01*
X11567682Y-12371436D02*
X11558158Y-12380960D01*
X11558158Y-12380960D02*
X11539110Y-12390484D01*
X11539110Y-12390484D02*
X11520062Y-12390484D01*
X11520062Y-12390484D02*
X11501015Y-12380960D01*
X11501015Y-12380960D02*
X11491491Y-12371436D01*
X11491491Y-12371436D02*
X11481967Y-12352388D01*
X11481967Y-12352388D02*
X11472443Y-12314293D01*
X11472443Y-12314293D02*
X11472443Y-12266674D01*
X11472443Y-12266674D02*
X11481967Y-12228579D01*
X11481967Y-12228579D02*
X11491491Y-12209531D01*
X11491491Y-12209531D02*
X11501015Y-12200008D01*
X11501015Y-12200008D02*
X11520062Y-12190484D01*
X11710539Y-12190484D02*
X11729586Y-12190484D01*
X11729586Y-12190484D02*
X11748634Y-12200008D01*
X11748634Y-12200008D02*
X11758158Y-12209531D01*
X11758158Y-12209531D02*
X11767682Y-12228579D01*
X11767682Y-12228579D02*
X11777205Y-12266674D01*
X11777205Y-12266674D02*
X11777205Y-12314293D01*
X11777205Y-12314293D02*
X11767682Y-12352388D01*
X11767682Y-12352388D02*
X11758158Y-12371436D01*
X11758158Y-12371436D02*
X11748634Y-12380960D01*
X11748634Y-12380960D02*
X11729586Y-12390484D01*
X11729586Y-12390484D02*
X11710539Y-12390484D01*
X11710539Y-12390484D02*
X11691491Y-12380960D01*
X11691491Y-12380960D02*
X11681967Y-12371436D01*
X11681967Y-12371436D02*
X11672443Y-12352388D01*
X11672443Y-12352388D02*
X11662920Y-12314293D01*
X11662920Y-12314293D02*
X11662920Y-12266674D01*
X11662920Y-12266674D02*
X11672443Y-12228579D01*
X11672443Y-12228579D02*
X11681967Y-12209531D01*
X11681967Y-12209531D02*
X11691491Y-12200008D01*
X11691491Y-12200008D02*
X11710539Y-12190484D01*
X11862920Y-12390484D02*
X11862920Y-12257150D01*
X11862920Y-12276198D02*
X11872443Y-12266674D01*
X11872443Y-12266674D02*
X11891491Y-12257150D01*
X11891491Y-12257150D02*
X11920063Y-12257150D01*
X11920063Y-12257150D02*
X11939110Y-12266674D01*
X11939110Y-12266674D02*
X11948634Y-12285722D01*
X11948634Y-12285722D02*
X11948634Y-12390484D01*
X11948634Y-12285722D02*
X11958158Y-12266674D01*
X11958158Y-12266674D02*
X11977205Y-12257150D01*
X11977205Y-12257150D02*
X12005777Y-12257150D01*
X12005777Y-12257150D02*
X12024824Y-12266674D01*
X12024824Y-12266674D02*
X12034348Y-12285722D01*
X12034348Y-12285722D02*
X12034348Y-12390484D01*
X12129586Y-12390484D02*
X12129586Y-12257150D01*
X12129586Y-12276198D02*
X12139110Y-12266674D01*
X12139110Y-12266674D02*
X12158158Y-12257150D01*
X12158158Y-12257150D02*
X12186729Y-12257150D01*
X12186729Y-12257150D02*
X12205777Y-12266674D01*
X12205777Y-12266674D02*
X12215301Y-12285722D01*
X12215301Y-12285722D02*
X12215301Y-12390484D01*
X12215301Y-12285722D02*
X12224824Y-12266674D01*
X12224824Y-12266674D02*
X12243872Y-12257150D01*
X12243872Y-12257150D02*
X12272443Y-12257150D01*
X12272443Y-12257150D02*
X12291491Y-12266674D01*
X12291491Y-12266674D02*
X12301015Y-12285722D01*
X12301015Y-12285722D02*
X12301015Y-12390484D01*
X12691491Y-12180960D02*
X12520063Y-12438103D01*
X12948634Y-12190484D02*
X12967682Y-12190484D01*
X12967682Y-12190484D02*
X12986729Y-12200008D01*
X12986729Y-12200008D02*
X12996253Y-12209531D01*
X12996253Y-12209531D02*
X13005777Y-12228579D01*
X13005777Y-12228579D02*
X13015301Y-12266674D01*
X13015301Y-12266674D02*
X13015301Y-12314293D01*
X13015301Y-12314293D02*
X13005777Y-12352388D01*
X13005777Y-12352388D02*
X12996253Y-12371436D01*
X12996253Y-12371436D02*
X12986729Y-12380960D01*
X12986729Y-12380960D02*
X12967682Y-12390484D01*
X12967682Y-12390484D02*
X12948634Y-12390484D01*
X12948634Y-12390484D02*
X12929586Y-12380960D01*
X12929586Y-12380960D02*
X12920063Y-12371436D01*
X12920063Y-12371436D02*
X12910539Y-12352388D01*
X12910539Y-12352388D02*
X12901015Y-12314293D01*
X12901015Y-12314293D02*
X12901015Y-12266674D01*
X12901015Y-12266674D02*
X12910539Y-12228579D01*
X12910539Y-12228579D02*
X12920063Y-12209531D01*
X12920063Y-12209531D02*
X12929586Y-12200008D01*
X12929586Y-12200008D02*
X12948634Y-12190484D01*
X13101015Y-12371436D02*
X13110539Y-12380960D01*
X13110539Y-12380960D02*
X13101015Y-12390484D01*
X13101015Y-12390484D02*
X13091491Y-12380960D01*
X13091491Y-12380960D02*
X13101015Y-12371436D01*
X13101015Y-12371436D02*
X13101015Y-12390484D01*
X13234348Y-12190484D02*
X13253396Y-12190484D01*
X13253396Y-12190484D02*
X13272444Y-12200008D01*
X13272444Y-12200008D02*
X13281967Y-12209531D01*
X13281967Y-12209531D02*
X13291491Y-12228579D01*
X13291491Y-12228579D02*
X13301015Y-12266674D01*
X13301015Y-12266674D02*
X13301015Y-12314293D01*
X13301015Y-12314293D02*
X13291491Y-12352388D01*
X13291491Y-12352388D02*
X13281967Y-12371436D01*
X13281967Y-12371436D02*
X13272444Y-12380960D01*
X13272444Y-12380960D02*
X13253396Y-12390484D01*
X13253396Y-12390484D02*
X13234348Y-12390484D01*
X13234348Y-12390484D02*
X13215301Y-12380960D01*
X13215301Y-12380960D02*
X13205777Y-12371436D01*
X13205777Y-12371436D02*
X13196253Y-12352388D01*
X13196253Y-12352388D02*
X13186729Y-12314293D01*
X13186729Y-12314293D02*
X13186729Y-12266674D01*
X13186729Y-12266674D02*
X13196253Y-12228579D01*
X13196253Y-12228579D02*
X13205777Y-12209531D01*
X13205777Y-12209531D02*
X13215301Y-12200008D01*
X13215301Y-12200008D02*
X13234348Y-12190484D01*
X13491491Y-12390484D02*
X13377206Y-12390484D01*
X13434348Y-12390484D02*
X13434348Y-12190484D01*
X13434348Y-12190484D02*
X13415301Y-12219055D01*
X13415301Y-12219055D02*
X13396253Y-12238103D01*
X13396253Y-12238103D02*
X13377206Y-12247627D01*
X13681967Y-12390484D02*
X13567682Y-12390484D01*
X13624825Y-12390484D02*
X13624825Y-12190484D01*
X13624825Y-12190484D02*
X13605777Y-12219055D01*
X13605777Y-12219055D02*
X13586729Y-12238103D01*
X13586729Y-12238103D02*
X13567682Y-12247627D01*
X13796253Y-12276198D02*
X13777206Y-12266674D01*
X13777206Y-12266674D02*
X13767682Y-12257150D01*
X13767682Y-12257150D02*
X13758158Y-12238103D01*
X13758158Y-12238103D02*
X13758158Y-12228579D01*
X13758158Y-12228579D02*
X13767682Y-12209531D01*
X13767682Y-12209531D02*
X13777206Y-12200008D01*
X13777206Y-12200008D02*
X13796253Y-12190484D01*
X13796253Y-12190484D02*
X13834348Y-12190484D01*
X13834348Y-12190484D02*
X13853396Y-12200008D01*
X13853396Y-12200008D02*
X13862920Y-12209531D01*
X13862920Y-12209531D02*
X13872444Y-12228579D01*
X13872444Y-12228579D02*
X13872444Y-12238103D01*
X13872444Y-12238103D02*
X13862920Y-12257150D01*
X13862920Y-12257150D02*
X13853396Y-12266674D01*
X13853396Y-12266674D02*
X13834348Y-12276198D01*
X13834348Y-12276198D02*
X13796253Y-12276198D01*
X13796253Y-12276198D02*
X13777206Y-12285722D01*
X13777206Y-12285722D02*
X13767682Y-12295246D01*
X13767682Y-12295246D02*
X13758158Y-12314293D01*
X13758158Y-12314293D02*
X13758158Y-12352388D01*
X13758158Y-12352388D02*
X13767682Y-12371436D01*
X13767682Y-12371436D02*
X13777206Y-12380960D01*
X13777206Y-12380960D02*
X13796253Y-12390484D01*
X13796253Y-12390484D02*
X13834348Y-12390484D01*
X13834348Y-12390484D02*
X13853396Y-12380960D01*
X13853396Y-12380960D02*
X13862920Y-12371436D01*
X13862920Y-12371436D02*
X13872444Y-12352388D01*
X13872444Y-12352388D02*
X13872444Y-12314293D01*
X13872444Y-12314293D02*
X13862920Y-12295246D01*
X13862920Y-12295246D02*
X13853396Y-12285722D01*
X13853396Y-12285722D02*
X13834348Y-12276198D01*
X13948634Y-12190484D02*
X13948634Y-12228579D01*
X14024825Y-12190484D02*
X14024825Y-12228579D01*
X14320063Y-12466674D02*
X14310539Y-12457150D01*
X14310539Y-12457150D02*
X14291491Y-12428579D01*
X14291491Y-12428579D02*
X14281968Y-12409531D01*
X14281968Y-12409531D02*
X14272444Y-12380960D01*
X14272444Y-12380960D02*
X14262920Y-12333341D01*
X14262920Y-12333341D02*
X14262920Y-12295246D01*
X14262920Y-12295246D02*
X14272444Y-12247627D01*
X14272444Y-12247627D02*
X14281968Y-12219055D01*
X14281968Y-12219055D02*
X14291491Y-12200008D01*
X14291491Y-12200008D02*
X14310539Y-12171436D01*
X14310539Y-12171436D02*
X14320063Y-12161912D01*
X14377206Y-12190484D02*
X14501015Y-12190484D01*
X14501015Y-12190484D02*
X14434348Y-12266674D01*
X14434348Y-12266674D02*
X14462920Y-12266674D01*
X14462920Y-12266674D02*
X14481968Y-12276198D01*
X14481968Y-12276198D02*
X14491491Y-12285722D01*
X14491491Y-12285722D02*
X14501015Y-12304769D01*
X14501015Y-12304769D02*
X14501015Y-12352388D01*
X14501015Y-12352388D02*
X14491491Y-12371436D01*
X14491491Y-12371436D02*
X14481968Y-12380960D01*
X14481968Y-12380960D02*
X14462920Y-12390484D01*
X14462920Y-12390484D02*
X14405777Y-12390484D01*
X14405777Y-12390484D02*
X14386729Y-12380960D01*
X14386729Y-12380960D02*
X14377206Y-12371436D01*
X14691491Y-12390484D02*
X14577206Y-12390484D01*
X14634348Y-12390484D02*
X14634348Y-12190484D01*
X14634348Y-12190484D02*
X14615301Y-12219055D01*
X14615301Y-12219055D02*
X14596253Y-12238103D01*
X14596253Y-12238103D02*
X14577206Y-12247627D01*
X14862920Y-12190484D02*
X14824825Y-12190484D01*
X14824825Y-12190484D02*
X14805777Y-12200008D01*
X14805777Y-12200008D02*
X14796253Y-12209531D01*
X14796253Y-12209531D02*
X14777206Y-12238103D01*
X14777206Y-12238103D02*
X14767682Y-12276198D01*
X14767682Y-12276198D02*
X14767682Y-12352388D01*
X14767682Y-12352388D02*
X14777206Y-12371436D01*
X14777206Y-12371436D02*
X14786729Y-12380960D01*
X14786729Y-12380960D02*
X14805777Y-12390484D01*
X14805777Y-12390484D02*
X14843872Y-12390484D01*
X14843872Y-12390484D02*
X14862920Y-12380960D01*
X14862920Y-12380960D02*
X14872444Y-12371436D01*
X14872444Y-12371436D02*
X14881968Y-12352388D01*
X14881968Y-12352388D02*
X14881968Y-12304769D01*
X14881968Y-12304769D02*
X14872444Y-12285722D01*
X14872444Y-12285722D02*
X14862920Y-12276198D01*
X14862920Y-12276198D02*
X14843872Y-12266674D01*
X14843872Y-12266674D02*
X14805777Y-12266674D01*
X14805777Y-12266674D02*
X14786729Y-12276198D01*
X14786729Y-12276198D02*
X14777206Y-12285722D01*
X14777206Y-12285722D02*
X14767682Y-12304769D01*
X15120063Y-12390484D02*
X15120063Y-12190484D01*
X15205777Y-12390484D02*
X15205777Y-12285722D01*
X15205777Y-12285722D02*
X15196253Y-12266674D01*
X15196253Y-12266674D02*
X15177206Y-12257150D01*
X15177206Y-12257150D02*
X15148634Y-12257150D01*
X15148634Y-12257150D02*
X15129587Y-12266674D01*
X15129587Y-12266674D02*
X15120063Y-12276198D01*
X15329587Y-12390484D02*
X15310539Y-12380960D01*
X15310539Y-12380960D02*
X15301015Y-12371436D01*
X15301015Y-12371436D02*
X15291491Y-12352388D01*
X15291491Y-12352388D02*
X15291491Y-12295246D01*
X15291491Y-12295246D02*
X15301015Y-12276198D01*
X15301015Y-12276198D02*
X15310539Y-12266674D01*
X15310539Y-12266674D02*
X15329587Y-12257150D01*
X15329587Y-12257150D02*
X15358158Y-12257150D01*
X15358158Y-12257150D02*
X15377206Y-12266674D01*
X15377206Y-12266674D02*
X15386730Y-12276198D01*
X15386730Y-12276198D02*
X15396253Y-12295246D01*
X15396253Y-12295246D02*
X15396253Y-12352388D01*
X15396253Y-12352388D02*
X15386730Y-12371436D01*
X15386730Y-12371436D02*
X15377206Y-12380960D01*
X15377206Y-12380960D02*
X15358158Y-12390484D01*
X15358158Y-12390484D02*
X15329587Y-12390484D01*
X15510539Y-12390484D02*
X15491491Y-12380960D01*
X15491491Y-12380960D02*
X15481968Y-12361912D01*
X15481968Y-12361912D02*
X15481968Y-12190484D01*
X15662920Y-12380960D02*
X15643872Y-12390484D01*
X15643872Y-12390484D02*
X15605777Y-12390484D01*
X15605777Y-12390484D02*
X15586730Y-12380960D01*
X15586730Y-12380960D02*
X15577206Y-12361912D01*
X15577206Y-12361912D02*
X15577206Y-12285722D01*
X15577206Y-12285722D02*
X15586730Y-12266674D01*
X15586730Y-12266674D02*
X15605777Y-12257150D01*
X15605777Y-12257150D02*
X15643872Y-12257150D01*
X15643872Y-12257150D02*
X15662920Y-12266674D01*
X15662920Y-12266674D02*
X15672444Y-12285722D01*
X15672444Y-12285722D02*
X15672444Y-12304769D01*
X15672444Y-12304769D02*
X15577206Y-12323817D01*
X15748634Y-12380960D02*
X15767682Y-12390484D01*
X15767682Y-12390484D02*
X15805777Y-12390484D01*
X15805777Y-12390484D02*
X15824825Y-12380960D01*
X15824825Y-12380960D02*
X15834349Y-12361912D01*
X15834349Y-12361912D02*
X15834349Y-12352388D01*
X15834349Y-12352388D02*
X15824825Y-12333341D01*
X15824825Y-12333341D02*
X15805777Y-12323817D01*
X15805777Y-12323817D02*
X15777206Y-12323817D01*
X15777206Y-12323817D02*
X15758158Y-12314293D01*
X15758158Y-12314293D02*
X15748634Y-12295246D01*
X15748634Y-12295246D02*
X15748634Y-12285722D01*
X15748634Y-12285722D02*
X15758158Y-12266674D01*
X15758158Y-12266674D02*
X15777206Y-12257150D01*
X15777206Y-12257150D02*
X15805777Y-12257150D01*
X15805777Y-12257150D02*
X15824825Y-12266674D01*
X15901015Y-12466674D02*
X15910539Y-12457150D01*
X15910539Y-12457150D02*
X15929587Y-12428579D01*
X15929587Y-12428579D02*
X15939111Y-12409531D01*
X15939111Y-12409531D02*
X15948634Y-12380960D01*
X15948634Y-12380960D02*
X15958158Y-12333341D01*
X15958158Y-12333341D02*
X15958158Y-12295246D01*
X15958158Y-12295246D02*
X15948634Y-12247627D01*
X15948634Y-12247627D02*
X15939111Y-12219055D01*
X15939111Y-12219055D02*
X15929587Y-12200008D01*
X15929587Y-12200008D02*
X15910539Y-12171436D01*
X15910539Y-12171436D02*
X15901015Y-12161912D01*
D14*
X10707000Y-12525000D02*
X10707000Y-12601000D01*
X10669000Y-12563000D02*
X10745000Y-12563000D01*
D11*
X11043872Y-12454484D02*
X11062920Y-12454484D01*
X11062920Y-12454484D02*
X11081967Y-12464008D01*
X11081967Y-12464008D02*
X11091491Y-12473531D01*
X11091491Y-12473531D02*
X11101015Y-12492579D01*
X11101015Y-12492579D02*
X11110539Y-12530674D01*
X11110539Y-12530674D02*
X11110539Y-12578293D01*
X11110539Y-12578293D02*
X11101015Y-12616388D01*
X11101015Y-12616388D02*
X11091491Y-12635436D01*
X11091491Y-12635436D02*
X11081967Y-12644960D01*
X11081967Y-12644960D02*
X11062920Y-12654484D01*
X11062920Y-12654484D02*
X11043872Y-12654484D01*
X11043872Y-12654484D02*
X11024824Y-12644960D01*
X11024824Y-12644960D02*
X11015301Y-12635436D01*
X11015301Y-12635436D02*
X11005777Y-12616388D01*
X11005777Y-12616388D02*
X10996253Y-12578293D01*
X10996253Y-12578293D02*
X10996253Y-12530674D01*
X10996253Y-12530674D02*
X11005777Y-12492579D01*
X11005777Y-12492579D02*
X11015301Y-12473531D01*
X11015301Y-12473531D02*
X11024824Y-12464008D01*
X11024824Y-12464008D02*
X11043872Y-12454484D01*
X11196253Y-12635436D02*
X11205777Y-12644960D01*
X11205777Y-12644960D02*
X11196253Y-12654484D01*
X11196253Y-12654484D02*
X11186729Y-12644960D01*
X11186729Y-12644960D02*
X11196253Y-12635436D01*
X11196253Y-12635436D02*
X11196253Y-12654484D01*
X11272443Y-12454484D02*
X11405777Y-12454484D01*
X11405777Y-12454484D02*
X11320062Y-12654484D01*
X11567682Y-12454484D02*
X11529586Y-12454484D01*
X11529586Y-12454484D02*
X11510539Y-12464008D01*
X11510539Y-12464008D02*
X11501015Y-12473531D01*
X11501015Y-12473531D02*
X11481967Y-12502103D01*
X11481967Y-12502103D02*
X11472443Y-12540198D01*
X11472443Y-12540198D02*
X11472443Y-12616388D01*
X11472443Y-12616388D02*
X11481967Y-12635436D01*
X11481967Y-12635436D02*
X11491491Y-12644960D01*
X11491491Y-12644960D02*
X11510539Y-12654484D01*
X11510539Y-12654484D02*
X11548634Y-12654484D01*
X11548634Y-12654484D02*
X11567682Y-12644960D01*
X11567682Y-12644960D02*
X11577205Y-12635436D01*
X11577205Y-12635436D02*
X11586729Y-12616388D01*
X11586729Y-12616388D02*
X11586729Y-12568769D01*
X11586729Y-12568769D02*
X11577205Y-12549722D01*
X11577205Y-12549722D02*
X11567682Y-12540198D01*
X11567682Y-12540198D02*
X11548634Y-12530674D01*
X11548634Y-12530674D02*
X11510539Y-12530674D01*
X11510539Y-12530674D02*
X11491491Y-12540198D01*
X11491491Y-12540198D02*
X11481967Y-12549722D01*
X11481967Y-12549722D02*
X11472443Y-12568769D01*
X11710539Y-12454484D02*
X11729586Y-12454484D01*
X11729586Y-12454484D02*
X11748634Y-12464008D01*
X11748634Y-12464008D02*
X11758158Y-12473531D01*
X11758158Y-12473531D02*
X11767682Y-12492579D01*
X11767682Y-12492579D02*
X11777205Y-12530674D01*
X11777205Y-12530674D02*
X11777205Y-12578293D01*
X11777205Y-12578293D02*
X11767682Y-12616388D01*
X11767682Y-12616388D02*
X11758158Y-12635436D01*
X11758158Y-12635436D02*
X11748634Y-12644960D01*
X11748634Y-12644960D02*
X11729586Y-12654484D01*
X11729586Y-12654484D02*
X11710539Y-12654484D01*
X11710539Y-12654484D02*
X11691491Y-12644960D01*
X11691491Y-12644960D02*
X11681967Y-12635436D01*
X11681967Y-12635436D02*
X11672443Y-12616388D01*
X11672443Y-12616388D02*
X11662920Y-12578293D01*
X11662920Y-12578293D02*
X11662920Y-12530674D01*
X11662920Y-12530674D02*
X11672443Y-12492579D01*
X11672443Y-12492579D02*
X11681967Y-12473531D01*
X11681967Y-12473531D02*
X11691491Y-12464008D01*
X11691491Y-12464008D02*
X11710539Y-12454484D01*
X11862920Y-12654484D02*
X11862920Y-12521150D01*
X11862920Y-12540198D02*
X11872443Y-12530674D01*
X11872443Y-12530674D02*
X11891491Y-12521150D01*
X11891491Y-12521150D02*
X11920063Y-12521150D01*
X11920063Y-12521150D02*
X11939110Y-12530674D01*
X11939110Y-12530674D02*
X11948634Y-12549722D01*
X11948634Y-12549722D02*
X11948634Y-12654484D01*
X11948634Y-12549722D02*
X11958158Y-12530674D01*
X11958158Y-12530674D02*
X11977205Y-12521150D01*
X11977205Y-12521150D02*
X12005777Y-12521150D01*
X12005777Y-12521150D02*
X12024824Y-12530674D01*
X12024824Y-12530674D02*
X12034348Y-12549722D01*
X12034348Y-12549722D02*
X12034348Y-12654484D01*
X12129586Y-12654484D02*
X12129586Y-12521150D01*
X12129586Y-12540198D02*
X12139110Y-12530674D01*
X12139110Y-12530674D02*
X12158158Y-12521150D01*
X12158158Y-12521150D02*
X12186729Y-12521150D01*
X12186729Y-12521150D02*
X12205777Y-12530674D01*
X12205777Y-12530674D02*
X12215301Y-12549722D01*
X12215301Y-12549722D02*
X12215301Y-12654484D01*
X12215301Y-12549722D02*
X12224824Y-12530674D01*
X12224824Y-12530674D02*
X12243872Y-12521150D01*
X12243872Y-12521150D02*
X12272443Y-12521150D01*
X12272443Y-12521150D02*
X12291491Y-12530674D01*
X12291491Y-12530674D02*
X12301015Y-12549722D01*
X12301015Y-12549722D02*
X12301015Y-12654484D01*
X12691491Y-12444960D02*
X12520063Y-12702103D01*
X12948634Y-12454484D02*
X12967682Y-12454484D01*
X12967682Y-12454484D02*
X12986729Y-12464008D01*
X12986729Y-12464008D02*
X12996253Y-12473531D01*
X12996253Y-12473531D02*
X13005777Y-12492579D01*
X13005777Y-12492579D02*
X13015301Y-12530674D01*
X13015301Y-12530674D02*
X13015301Y-12578293D01*
X13015301Y-12578293D02*
X13005777Y-12616388D01*
X13005777Y-12616388D02*
X12996253Y-12635436D01*
X12996253Y-12635436D02*
X12986729Y-12644960D01*
X12986729Y-12644960D02*
X12967682Y-12654484D01*
X12967682Y-12654484D02*
X12948634Y-12654484D01*
X12948634Y-12654484D02*
X12929586Y-12644960D01*
X12929586Y-12644960D02*
X12920063Y-12635436D01*
X12920063Y-12635436D02*
X12910539Y-12616388D01*
X12910539Y-12616388D02*
X12901015Y-12578293D01*
X12901015Y-12578293D02*
X12901015Y-12530674D01*
X12901015Y-12530674D02*
X12910539Y-12492579D01*
X12910539Y-12492579D02*
X12920063Y-12473531D01*
X12920063Y-12473531D02*
X12929586Y-12464008D01*
X12929586Y-12464008D02*
X12948634Y-12454484D01*
X13101015Y-12635436D02*
X13110539Y-12644960D01*
X13110539Y-12644960D02*
X13101015Y-12654484D01*
X13101015Y-12654484D02*
X13091491Y-12644960D01*
X13091491Y-12644960D02*
X13101015Y-12635436D01*
X13101015Y-12635436D02*
X13101015Y-12654484D01*
X13234348Y-12454484D02*
X13253396Y-12454484D01*
X13253396Y-12454484D02*
X13272444Y-12464008D01*
X13272444Y-12464008D02*
X13281967Y-12473531D01*
X13281967Y-12473531D02*
X13291491Y-12492579D01*
X13291491Y-12492579D02*
X13301015Y-12530674D01*
X13301015Y-12530674D02*
X13301015Y-12578293D01*
X13301015Y-12578293D02*
X13291491Y-12616388D01*
X13291491Y-12616388D02*
X13281967Y-12635436D01*
X13281967Y-12635436D02*
X13272444Y-12644960D01*
X13272444Y-12644960D02*
X13253396Y-12654484D01*
X13253396Y-12654484D02*
X13234348Y-12654484D01*
X13234348Y-12654484D02*
X13215301Y-12644960D01*
X13215301Y-12644960D02*
X13205777Y-12635436D01*
X13205777Y-12635436D02*
X13196253Y-12616388D01*
X13196253Y-12616388D02*
X13186729Y-12578293D01*
X13186729Y-12578293D02*
X13186729Y-12530674D01*
X13186729Y-12530674D02*
X13196253Y-12492579D01*
X13196253Y-12492579D02*
X13205777Y-12473531D01*
X13205777Y-12473531D02*
X13215301Y-12464008D01*
X13215301Y-12464008D02*
X13234348Y-12454484D01*
X13377206Y-12473531D02*
X13386729Y-12464008D01*
X13386729Y-12464008D02*
X13405777Y-12454484D01*
X13405777Y-12454484D02*
X13453396Y-12454484D01*
X13453396Y-12454484D02*
X13472444Y-12464008D01*
X13472444Y-12464008D02*
X13481967Y-12473531D01*
X13481967Y-12473531D02*
X13491491Y-12492579D01*
X13491491Y-12492579D02*
X13491491Y-12511627D01*
X13491491Y-12511627D02*
X13481967Y-12540198D01*
X13481967Y-12540198D02*
X13367682Y-12654484D01*
X13367682Y-12654484D02*
X13491491Y-12654484D01*
X13586729Y-12654484D02*
X13624825Y-12654484D01*
X13624825Y-12654484D02*
X13643872Y-12644960D01*
X13643872Y-12644960D02*
X13653396Y-12635436D01*
X13653396Y-12635436D02*
X13672444Y-12606865D01*
X13672444Y-12606865D02*
X13681967Y-12568769D01*
X13681967Y-12568769D02*
X13681967Y-12492579D01*
X13681967Y-12492579D02*
X13672444Y-12473531D01*
X13672444Y-12473531D02*
X13662920Y-12464008D01*
X13662920Y-12464008D02*
X13643872Y-12454484D01*
X13643872Y-12454484D02*
X13605777Y-12454484D01*
X13605777Y-12454484D02*
X13586729Y-12464008D01*
X13586729Y-12464008D02*
X13577206Y-12473531D01*
X13577206Y-12473531D02*
X13567682Y-12492579D01*
X13567682Y-12492579D02*
X13567682Y-12540198D01*
X13567682Y-12540198D02*
X13577206Y-12559246D01*
X13577206Y-12559246D02*
X13586729Y-12568769D01*
X13586729Y-12568769D02*
X13605777Y-12578293D01*
X13605777Y-12578293D02*
X13643872Y-12578293D01*
X13643872Y-12578293D02*
X13662920Y-12568769D01*
X13662920Y-12568769D02*
X13672444Y-12559246D01*
X13672444Y-12559246D02*
X13681967Y-12540198D01*
X13777206Y-12654484D02*
X13815301Y-12654484D01*
X13815301Y-12654484D02*
X13834348Y-12644960D01*
X13834348Y-12644960D02*
X13843872Y-12635436D01*
X13843872Y-12635436D02*
X13862920Y-12606865D01*
X13862920Y-12606865D02*
X13872444Y-12568769D01*
X13872444Y-12568769D02*
X13872444Y-12492579D01*
X13872444Y-12492579D02*
X13862920Y-12473531D01*
X13862920Y-12473531D02*
X13853396Y-12464008D01*
X13853396Y-12464008D02*
X13834348Y-12454484D01*
X13834348Y-12454484D02*
X13796253Y-12454484D01*
X13796253Y-12454484D02*
X13777206Y-12464008D01*
X13777206Y-12464008D02*
X13767682Y-12473531D01*
X13767682Y-12473531D02*
X13758158Y-12492579D01*
X13758158Y-12492579D02*
X13758158Y-12540198D01*
X13758158Y-12540198D02*
X13767682Y-12559246D01*
X13767682Y-12559246D02*
X13777206Y-12568769D01*
X13777206Y-12568769D02*
X13796253Y-12578293D01*
X13796253Y-12578293D02*
X13834348Y-12578293D01*
X13834348Y-12578293D02*
X13853396Y-12568769D01*
X13853396Y-12568769D02*
X13862920Y-12559246D01*
X13862920Y-12559246D02*
X13872444Y-12540198D01*
X13948634Y-12454484D02*
X13948634Y-12492579D01*
X14024825Y-12454484D02*
X14024825Y-12492579D01*
X14320063Y-12730674D02*
X14310539Y-12721150D01*
X14310539Y-12721150D02*
X14291491Y-12692579D01*
X14291491Y-12692579D02*
X14281968Y-12673531D01*
X14281968Y-12673531D02*
X14272444Y-12644960D01*
X14272444Y-12644960D02*
X14262920Y-12597341D01*
X14262920Y-12597341D02*
X14262920Y-12559246D01*
X14262920Y-12559246D02*
X14272444Y-12511627D01*
X14272444Y-12511627D02*
X14281968Y-12483055D01*
X14281968Y-12483055D02*
X14291491Y-12464008D01*
X14291491Y-12464008D02*
X14310539Y-12435436D01*
X14310539Y-12435436D02*
X14320063Y-12425912D01*
X14424825Y-12540198D02*
X14405777Y-12530674D01*
X14405777Y-12530674D02*
X14396253Y-12521150D01*
X14396253Y-12521150D02*
X14386729Y-12502103D01*
X14386729Y-12502103D02*
X14386729Y-12492579D01*
X14386729Y-12492579D02*
X14396253Y-12473531D01*
X14396253Y-12473531D02*
X14405777Y-12464008D01*
X14405777Y-12464008D02*
X14424825Y-12454484D01*
X14424825Y-12454484D02*
X14462920Y-12454484D01*
X14462920Y-12454484D02*
X14481968Y-12464008D01*
X14481968Y-12464008D02*
X14491491Y-12473531D01*
X14491491Y-12473531D02*
X14501015Y-12492579D01*
X14501015Y-12492579D02*
X14501015Y-12502103D01*
X14501015Y-12502103D02*
X14491491Y-12521150D01*
X14491491Y-12521150D02*
X14481968Y-12530674D01*
X14481968Y-12530674D02*
X14462920Y-12540198D01*
X14462920Y-12540198D02*
X14424825Y-12540198D01*
X14424825Y-12540198D02*
X14405777Y-12549722D01*
X14405777Y-12549722D02*
X14396253Y-12559246D01*
X14396253Y-12559246D02*
X14386729Y-12578293D01*
X14386729Y-12578293D02*
X14386729Y-12616388D01*
X14386729Y-12616388D02*
X14396253Y-12635436D01*
X14396253Y-12635436D02*
X14405777Y-12644960D01*
X14405777Y-12644960D02*
X14424825Y-12654484D01*
X14424825Y-12654484D02*
X14462920Y-12654484D01*
X14462920Y-12654484D02*
X14481968Y-12644960D01*
X14481968Y-12644960D02*
X14491491Y-12635436D01*
X14491491Y-12635436D02*
X14501015Y-12616388D01*
X14501015Y-12616388D02*
X14501015Y-12578293D01*
X14501015Y-12578293D02*
X14491491Y-12559246D01*
X14491491Y-12559246D02*
X14481968Y-12549722D01*
X14481968Y-12549722D02*
X14462920Y-12540198D01*
X14739110Y-12654484D02*
X14739110Y-12454484D01*
X14824825Y-12654484D02*
X14824825Y-12549722D01*
X14824825Y-12549722D02*
X14815301Y-12530674D01*
X14815301Y-12530674D02*
X14796253Y-12521150D01*
X14796253Y-12521150D02*
X14767682Y-12521150D01*
X14767682Y-12521150D02*
X14748634Y-12530674D01*
X14748634Y-12530674D02*
X14739110Y-12540198D01*
X14948634Y-12654484D02*
X14929587Y-12644960D01*
X14929587Y-12644960D02*
X14920063Y-12635436D01*
X14920063Y-12635436D02*
X14910539Y-12616388D01*
X14910539Y-12616388D02*
X14910539Y-12559246D01*
X14910539Y-12559246D02*
X14920063Y-12540198D01*
X14920063Y-12540198D02*
X14929587Y-12530674D01*
X14929587Y-12530674D02*
X14948634Y-12521150D01*
X14948634Y-12521150D02*
X14977206Y-12521150D01*
X14977206Y-12521150D02*
X14996253Y-12530674D01*
X14996253Y-12530674D02*
X15005777Y-12540198D01*
X15005777Y-12540198D02*
X15015301Y-12559246D01*
X15015301Y-12559246D02*
X15015301Y-12616388D01*
X15015301Y-12616388D02*
X15005777Y-12635436D01*
X15005777Y-12635436D02*
X14996253Y-12644960D01*
X14996253Y-12644960D02*
X14977206Y-12654484D01*
X14977206Y-12654484D02*
X14948634Y-12654484D01*
X15129587Y-12654484D02*
X15110539Y-12644960D01*
X15110539Y-12644960D02*
X15101015Y-12625912D01*
X15101015Y-12625912D02*
X15101015Y-12454484D01*
X15281968Y-12644960D02*
X15262920Y-12654484D01*
X15262920Y-12654484D02*
X15224825Y-12654484D01*
X15224825Y-12654484D02*
X15205777Y-12644960D01*
X15205777Y-12644960D02*
X15196253Y-12625912D01*
X15196253Y-12625912D02*
X15196253Y-12549722D01*
X15196253Y-12549722D02*
X15205777Y-12530674D01*
X15205777Y-12530674D02*
X15224825Y-12521150D01*
X15224825Y-12521150D02*
X15262920Y-12521150D01*
X15262920Y-12521150D02*
X15281968Y-12530674D01*
X15281968Y-12530674D02*
X15291491Y-12549722D01*
X15291491Y-12549722D02*
X15291491Y-12568769D01*
X15291491Y-12568769D02*
X15196253Y-12587817D01*
X15367682Y-12644960D02*
X15386730Y-12654484D01*
X15386730Y-12654484D02*
X15424825Y-12654484D01*
X15424825Y-12654484D02*
X15443872Y-12644960D01*
X15443872Y-12644960D02*
X15453396Y-12625912D01*
X15453396Y-12625912D02*
X15453396Y-12616388D01*
X15453396Y-12616388D02*
X15443872Y-12597341D01*
X15443872Y-12597341D02*
X15424825Y-12587817D01*
X15424825Y-12587817D02*
X15396253Y-12587817D01*
X15396253Y-12587817D02*
X15377206Y-12578293D01*
X15377206Y-12578293D02*
X15367682Y-12559246D01*
X15367682Y-12559246D02*
X15367682Y-12549722D01*
X15367682Y-12549722D02*
X15377206Y-12530674D01*
X15377206Y-12530674D02*
X15396253Y-12521150D01*
X15396253Y-12521150D02*
X15424825Y-12521150D01*
X15424825Y-12521150D02*
X15443872Y-12530674D01*
X15520063Y-12730674D02*
X15529587Y-12721150D01*
X15529587Y-12721150D02*
X15548634Y-12692579D01*
X15548634Y-12692579D02*
X15558158Y-12673531D01*
X15558158Y-12673531D02*
X15567682Y-12644960D01*
X15567682Y-12644960D02*
X15577206Y-12597341D01*
X15577206Y-12597341D02*
X15577206Y-12559246D01*
X15577206Y-12559246D02*
X15567682Y-12511627D01*
X15567682Y-12511627D02*
X15558158Y-12483055D01*
X15558158Y-12483055D02*
X15548634Y-12464008D01*
X15548634Y-12464008D02*
X15529587Y-12435436D01*
X15529587Y-12435436D02*
X15520063Y-12425912D01*
D10*
X10730356Y-12862356D02*
X10730356Y-12791644D01*
X10659644Y-12791644D01*
X10659644Y-12862356D01*
X10730356Y-12862356D01*
D11*
X11110539Y-12918484D02*
X10996253Y-12918484D01*
X11053396Y-12918484D02*
X11053396Y-12718484D01*
X11053396Y-12718484D02*
X11034348Y-12747055D01*
X11034348Y-12747055D02*
X11015301Y-12766103D01*
X11015301Y-12766103D02*
X10996253Y-12775627D01*
X11196253Y-12899436D02*
X11205777Y-12908960D01*
X11205777Y-12908960D02*
X11196253Y-12918484D01*
X11196253Y-12918484D02*
X11186729Y-12908960D01*
X11186729Y-12908960D02*
X11196253Y-12899436D01*
X11196253Y-12899436D02*
X11196253Y-12918484D01*
X11329586Y-12718484D02*
X11348634Y-12718484D01*
X11348634Y-12718484D02*
X11367682Y-12728008D01*
X11367682Y-12728008D02*
X11377205Y-12737531D01*
X11377205Y-12737531D02*
X11386729Y-12756579D01*
X11386729Y-12756579D02*
X11396253Y-12794674D01*
X11396253Y-12794674D02*
X11396253Y-12842293D01*
X11396253Y-12842293D02*
X11386729Y-12880388D01*
X11386729Y-12880388D02*
X11377205Y-12899436D01*
X11377205Y-12899436D02*
X11367682Y-12908960D01*
X11367682Y-12908960D02*
X11348634Y-12918484D01*
X11348634Y-12918484D02*
X11329586Y-12918484D01*
X11329586Y-12918484D02*
X11310539Y-12908960D01*
X11310539Y-12908960D02*
X11301015Y-12899436D01*
X11301015Y-12899436D02*
X11291491Y-12880388D01*
X11291491Y-12880388D02*
X11281967Y-12842293D01*
X11281967Y-12842293D02*
X11281967Y-12794674D01*
X11281967Y-12794674D02*
X11291491Y-12756579D01*
X11291491Y-12756579D02*
X11301015Y-12737531D01*
X11301015Y-12737531D02*
X11310539Y-12728008D01*
X11310539Y-12728008D02*
X11329586Y-12718484D01*
X11520062Y-12718484D02*
X11539110Y-12718484D01*
X11539110Y-12718484D02*
X11558158Y-12728008D01*
X11558158Y-12728008D02*
X11567682Y-12737531D01*
X11567682Y-12737531D02*
X11577205Y-12756579D01*
X11577205Y-12756579D02*
X11586729Y-12794674D01*
X11586729Y-12794674D02*
X11586729Y-12842293D01*
X11586729Y-12842293D02*
X11577205Y-12880388D01*
X11577205Y-12880388D02*
X11567682Y-12899436D01*
X11567682Y-12899436D02*
X11558158Y-12908960D01*
X11558158Y-12908960D02*
X11539110Y-12918484D01*
X11539110Y-12918484D02*
X11520062Y-12918484D01*
X11520062Y-12918484D02*
X11501015Y-12908960D01*
X11501015Y-12908960D02*
X11491491Y-12899436D01*
X11491491Y-12899436D02*
X11481967Y-12880388D01*
X11481967Y-12880388D02*
X11472443Y-12842293D01*
X11472443Y-12842293D02*
X11472443Y-12794674D01*
X11472443Y-12794674D02*
X11481967Y-12756579D01*
X11481967Y-12756579D02*
X11491491Y-12737531D01*
X11491491Y-12737531D02*
X11501015Y-12728008D01*
X11501015Y-12728008D02*
X11520062Y-12718484D01*
X11710539Y-12718484D02*
X11729586Y-12718484D01*
X11729586Y-12718484D02*
X11748634Y-12728008D01*
X11748634Y-12728008D02*
X11758158Y-12737531D01*
X11758158Y-12737531D02*
X11767682Y-12756579D01*
X11767682Y-12756579D02*
X11777205Y-12794674D01*
X11777205Y-12794674D02*
X11777205Y-12842293D01*
X11777205Y-12842293D02*
X11767682Y-12880388D01*
X11767682Y-12880388D02*
X11758158Y-12899436D01*
X11758158Y-12899436D02*
X11748634Y-12908960D01*
X11748634Y-12908960D02*
X11729586Y-12918484D01*
X11729586Y-12918484D02*
X11710539Y-12918484D01*
X11710539Y-12918484D02*
X11691491Y-12908960D01*
X11691491Y-12908960D02*
X11681967Y-12899436D01*
X11681967Y-12899436D02*
X11672443Y-12880388D01*
X11672443Y-12880388D02*
X11662920Y-12842293D01*
X11662920Y-12842293D02*
X11662920Y-12794674D01*
X11662920Y-12794674D02*
X11672443Y-12756579D01*
X11672443Y-12756579D02*
X11681967Y-12737531D01*
X11681967Y-12737531D02*
X11691491Y-12728008D01*
X11691491Y-12728008D02*
X11710539Y-12718484D01*
X11862920Y-12918484D02*
X11862920Y-12785150D01*
X11862920Y-12804198D02*
X11872443Y-12794674D01*
X11872443Y-12794674D02*
X11891491Y-12785150D01*
X11891491Y-12785150D02*
X11920063Y-12785150D01*
X11920063Y-12785150D02*
X11939110Y-12794674D01*
X11939110Y-12794674D02*
X11948634Y-12813722D01*
X11948634Y-12813722D02*
X11948634Y-12918484D01*
X11948634Y-12813722D02*
X11958158Y-12794674D01*
X11958158Y-12794674D02*
X11977205Y-12785150D01*
X11977205Y-12785150D02*
X12005777Y-12785150D01*
X12005777Y-12785150D02*
X12024824Y-12794674D01*
X12024824Y-12794674D02*
X12034348Y-12813722D01*
X12034348Y-12813722D02*
X12034348Y-12918484D01*
X12129586Y-12918484D02*
X12129586Y-12785150D01*
X12129586Y-12804198D02*
X12139110Y-12794674D01*
X12139110Y-12794674D02*
X12158158Y-12785150D01*
X12158158Y-12785150D02*
X12186729Y-12785150D01*
X12186729Y-12785150D02*
X12205777Y-12794674D01*
X12205777Y-12794674D02*
X12215301Y-12813722D01*
X12215301Y-12813722D02*
X12215301Y-12918484D01*
X12215301Y-12813722D02*
X12224824Y-12794674D01*
X12224824Y-12794674D02*
X12243872Y-12785150D01*
X12243872Y-12785150D02*
X12272443Y-12785150D01*
X12272443Y-12785150D02*
X12291491Y-12794674D01*
X12291491Y-12794674D02*
X12301015Y-12813722D01*
X12301015Y-12813722D02*
X12301015Y-12918484D01*
X12691491Y-12708960D02*
X12520063Y-12966103D01*
X12948634Y-12718484D02*
X12967682Y-12718484D01*
X12967682Y-12718484D02*
X12986729Y-12728008D01*
X12986729Y-12728008D02*
X12996253Y-12737531D01*
X12996253Y-12737531D02*
X13005777Y-12756579D01*
X13005777Y-12756579D02*
X13015301Y-12794674D01*
X13015301Y-12794674D02*
X13015301Y-12842293D01*
X13015301Y-12842293D02*
X13005777Y-12880388D01*
X13005777Y-12880388D02*
X12996253Y-12899436D01*
X12996253Y-12899436D02*
X12986729Y-12908960D01*
X12986729Y-12908960D02*
X12967682Y-12918484D01*
X12967682Y-12918484D02*
X12948634Y-12918484D01*
X12948634Y-12918484D02*
X12929586Y-12908960D01*
X12929586Y-12908960D02*
X12920063Y-12899436D01*
X12920063Y-12899436D02*
X12910539Y-12880388D01*
X12910539Y-12880388D02*
X12901015Y-12842293D01*
X12901015Y-12842293D02*
X12901015Y-12794674D01*
X12901015Y-12794674D02*
X12910539Y-12756579D01*
X12910539Y-12756579D02*
X12920063Y-12737531D01*
X12920063Y-12737531D02*
X12929586Y-12728008D01*
X12929586Y-12728008D02*
X12948634Y-12718484D01*
X13101015Y-12899436D02*
X13110539Y-12908960D01*
X13110539Y-12908960D02*
X13101015Y-12918484D01*
X13101015Y-12918484D02*
X13091491Y-12908960D01*
X13091491Y-12908960D02*
X13101015Y-12899436D01*
X13101015Y-12899436D02*
X13101015Y-12918484D01*
X13234348Y-12718484D02*
X13253396Y-12718484D01*
X13253396Y-12718484D02*
X13272444Y-12728008D01*
X13272444Y-12728008D02*
X13281967Y-12737531D01*
X13281967Y-12737531D02*
X13291491Y-12756579D01*
X13291491Y-12756579D02*
X13301015Y-12794674D01*
X13301015Y-12794674D02*
X13301015Y-12842293D01*
X13301015Y-12842293D02*
X13291491Y-12880388D01*
X13291491Y-12880388D02*
X13281967Y-12899436D01*
X13281967Y-12899436D02*
X13272444Y-12908960D01*
X13272444Y-12908960D02*
X13253396Y-12918484D01*
X13253396Y-12918484D02*
X13234348Y-12918484D01*
X13234348Y-12918484D02*
X13215301Y-12908960D01*
X13215301Y-12908960D02*
X13205777Y-12899436D01*
X13205777Y-12899436D02*
X13196253Y-12880388D01*
X13196253Y-12880388D02*
X13186729Y-12842293D01*
X13186729Y-12842293D02*
X13186729Y-12794674D01*
X13186729Y-12794674D02*
X13196253Y-12756579D01*
X13196253Y-12756579D02*
X13205777Y-12737531D01*
X13205777Y-12737531D02*
X13215301Y-12728008D01*
X13215301Y-12728008D02*
X13234348Y-12718484D01*
X13367682Y-12718484D02*
X13491491Y-12718484D01*
X13491491Y-12718484D02*
X13424825Y-12794674D01*
X13424825Y-12794674D02*
X13453396Y-12794674D01*
X13453396Y-12794674D02*
X13472444Y-12804198D01*
X13472444Y-12804198D02*
X13481967Y-12813722D01*
X13481967Y-12813722D02*
X13491491Y-12832769D01*
X13491491Y-12832769D02*
X13491491Y-12880388D01*
X13491491Y-12880388D02*
X13481967Y-12899436D01*
X13481967Y-12899436D02*
X13472444Y-12908960D01*
X13472444Y-12908960D02*
X13453396Y-12918484D01*
X13453396Y-12918484D02*
X13396253Y-12918484D01*
X13396253Y-12918484D02*
X13377206Y-12908960D01*
X13377206Y-12908960D02*
X13367682Y-12899436D01*
X13586729Y-12918484D02*
X13624825Y-12918484D01*
X13624825Y-12918484D02*
X13643872Y-12908960D01*
X13643872Y-12908960D02*
X13653396Y-12899436D01*
X13653396Y-12899436D02*
X13672444Y-12870865D01*
X13672444Y-12870865D02*
X13681967Y-12832769D01*
X13681967Y-12832769D02*
X13681967Y-12756579D01*
X13681967Y-12756579D02*
X13672444Y-12737531D01*
X13672444Y-12737531D02*
X13662920Y-12728008D01*
X13662920Y-12728008D02*
X13643872Y-12718484D01*
X13643872Y-12718484D02*
X13605777Y-12718484D01*
X13605777Y-12718484D02*
X13586729Y-12728008D01*
X13586729Y-12728008D02*
X13577206Y-12737531D01*
X13577206Y-12737531D02*
X13567682Y-12756579D01*
X13567682Y-12756579D02*
X13567682Y-12804198D01*
X13567682Y-12804198D02*
X13577206Y-12823246D01*
X13577206Y-12823246D02*
X13586729Y-12832769D01*
X13586729Y-12832769D02*
X13605777Y-12842293D01*
X13605777Y-12842293D02*
X13643872Y-12842293D01*
X13643872Y-12842293D02*
X13662920Y-12832769D01*
X13662920Y-12832769D02*
X13672444Y-12823246D01*
X13672444Y-12823246D02*
X13681967Y-12804198D01*
X13853396Y-12785150D02*
X13853396Y-12918484D01*
X13805777Y-12708960D02*
X13758158Y-12851817D01*
X13758158Y-12851817D02*
X13881967Y-12851817D01*
X13948634Y-12718484D02*
X13948634Y-12756579D01*
X14024825Y-12718484D02*
X14024825Y-12756579D01*
X14320063Y-12994674D02*
X14310539Y-12985150D01*
X14310539Y-12985150D02*
X14291491Y-12956579D01*
X14291491Y-12956579D02*
X14281968Y-12937531D01*
X14281968Y-12937531D02*
X14272444Y-12908960D01*
X14272444Y-12908960D02*
X14262920Y-12861341D01*
X14262920Y-12861341D02*
X14262920Y-12823246D01*
X14262920Y-12823246D02*
X14272444Y-12775627D01*
X14272444Y-12775627D02*
X14281968Y-12747055D01*
X14281968Y-12747055D02*
X14291491Y-12728008D01*
X14291491Y-12728008D02*
X14310539Y-12699436D01*
X14310539Y-12699436D02*
X14320063Y-12689912D01*
X14491491Y-12718484D02*
X14396253Y-12718484D01*
X14396253Y-12718484D02*
X14386729Y-12813722D01*
X14386729Y-12813722D02*
X14396253Y-12804198D01*
X14396253Y-12804198D02*
X14415301Y-12794674D01*
X14415301Y-12794674D02*
X14462920Y-12794674D01*
X14462920Y-12794674D02*
X14481968Y-12804198D01*
X14481968Y-12804198D02*
X14491491Y-12813722D01*
X14491491Y-12813722D02*
X14501015Y-12832769D01*
X14501015Y-12832769D02*
X14501015Y-12880388D01*
X14501015Y-12880388D02*
X14491491Y-12899436D01*
X14491491Y-12899436D02*
X14481968Y-12908960D01*
X14481968Y-12908960D02*
X14462920Y-12918484D01*
X14462920Y-12918484D02*
X14415301Y-12918484D01*
X14415301Y-12918484D02*
X14396253Y-12908960D01*
X14396253Y-12908960D02*
X14386729Y-12899436D01*
X14739110Y-12918484D02*
X14739110Y-12718484D01*
X14824825Y-12918484D02*
X14824825Y-12813722D01*
X14824825Y-12813722D02*
X14815301Y-12794674D01*
X14815301Y-12794674D02*
X14796253Y-12785150D01*
X14796253Y-12785150D02*
X14767682Y-12785150D01*
X14767682Y-12785150D02*
X14748634Y-12794674D01*
X14748634Y-12794674D02*
X14739110Y-12804198D01*
X14948634Y-12918484D02*
X14929587Y-12908960D01*
X14929587Y-12908960D02*
X14920063Y-12899436D01*
X14920063Y-12899436D02*
X14910539Y-12880388D01*
X14910539Y-12880388D02*
X14910539Y-12823246D01*
X14910539Y-12823246D02*
X14920063Y-12804198D01*
X14920063Y-12804198D02*
X14929587Y-12794674D01*
X14929587Y-12794674D02*
X14948634Y-12785150D01*
X14948634Y-12785150D02*
X14977206Y-12785150D01*
X14977206Y-12785150D02*
X14996253Y-12794674D01*
X14996253Y-12794674D02*
X15005777Y-12804198D01*
X15005777Y-12804198D02*
X15015301Y-12823246D01*
X15015301Y-12823246D02*
X15015301Y-12880388D01*
X15015301Y-12880388D02*
X15005777Y-12899436D01*
X15005777Y-12899436D02*
X14996253Y-12908960D01*
X14996253Y-12908960D02*
X14977206Y-12918484D01*
X14977206Y-12918484D02*
X14948634Y-12918484D01*
X15129587Y-12918484D02*
X15110539Y-12908960D01*
X15110539Y-12908960D02*
X15101015Y-12889912D01*
X15101015Y-12889912D02*
X15101015Y-12718484D01*
X15281968Y-12908960D02*
X15262920Y-12918484D01*
X15262920Y-12918484D02*
X15224825Y-12918484D01*
X15224825Y-12918484D02*
X15205777Y-12908960D01*
X15205777Y-12908960D02*
X15196253Y-12889912D01*
X15196253Y-12889912D02*
X15196253Y-12813722D01*
X15196253Y-12813722D02*
X15205777Y-12794674D01*
X15205777Y-12794674D02*
X15224825Y-12785150D01*
X15224825Y-12785150D02*
X15262920Y-12785150D01*
X15262920Y-12785150D02*
X15281968Y-12794674D01*
X15281968Y-12794674D02*
X15291491Y-12813722D01*
X15291491Y-12813722D02*
X15291491Y-12832769D01*
X15291491Y-12832769D02*
X15196253Y-12851817D01*
X15367682Y-12908960D02*
X15386730Y-12918484D01*
X15386730Y-12918484D02*
X15424825Y-12918484D01*
X15424825Y-12918484D02*
X15443872Y-12908960D01*
X15443872Y-12908960D02*
X15453396Y-12889912D01*
X15453396Y-12889912D02*
X15453396Y-12880388D01*
X15453396Y-12880388D02*
X15443872Y-12861341D01*
X15443872Y-12861341D02*
X15424825Y-12851817D01*
X15424825Y-12851817D02*
X15396253Y-12851817D01*
X15396253Y-12851817D02*
X15377206Y-12842293D01*
X15377206Y-12842293D02*
X15367682Y-12823246D01*
X15367682Y-12823246D02*
X15367682Y-12813722D01*
X15367682Y-12813722D02*
X15377206Y-12794674D01*
X15377206Y-12794674D02*
X15396253Y-12785150D01*
X15396253Y-12785150D02*
X15424825Y-12785150D01*
X15424825Y-12785150D02*
X15443872Y-12794674D01*
X15520063Y-12994674D02*
X15529587Y-12985150D01*
X15529587Y-12985150D02*
X15548634Y-12956579D01*
X15548634Y-12956579D02*
X15558158Y-12937531D01*
X15558158Y-12937531D02*
X15567682Y-12908960D01*
X15567682Y-12908960D02*
X15577206Y-12861341D01*
X15577206Y-12861341D02*
X15577206Y-12823246D01*
X15577206Y-12823246D02*
X15567682Y-12775627D01*
X15567682Y-12775627D02*
X15558158Y-12747055D01*
X15558158Y-12747055D02*
X15548634Y-12728008D01*
X15548634Y-12728008D02*
X15529587Y-12699436D01*
X15529587Y-12699436D02*
X15520063Y-12689912D01*
M02*
