%TF.GenerationSoftware,KiCad,Pcbnew,7.0.5-0*%
%TF.CreationDate,2024-02-03T13:41:08-08:00*%
%TF.ProjectId,transponder-11.9.1,7472616e-7370-46f6-9e64-65722d31312e,rev?*%
%TF.SameCoordinates,Original*%
%TF.FileFunction,Drillmap*%
%TF.FilePolarity,Positive*%
%FSLAX45Y45*%
G04 Gerber Fmt 4.5, Leading zero omitted, Abs format (unit mm)*
G04 Created by KiCad (PCBNEW 7.0.5-0) date 2024-02-03 13:41:08*
%MOMM*%
%LPD*%
G01*
G04 APERTURE LIST*
%ADD10C,0.100000*%
%ADD11C,0.200000*%
%ADD12C,0.320000*%
G04 APERTURE END LIST*
D10*
X10750000Y-8890000D02*
X19150000Y-8890000D01*
X19150000Y-11390000D01*
X10750000Y-11390000D01*
X10750000Y-8890000D01*
X19010312Y-9120000D02*
G75*
G03*
X19010312Y-9120000I-160312J0D01*
G01*
X11251245Y-11100000D02*
G75*
G03*
X11251245Y-11100000I-161245J0D01*
G01*
D11*
D12*
X10890000Y-9378000D02*
X11210000Y-9698000D01*
X11210000Y-9378000D02*
X10890000Y-9698000D01*
X10890000Y-10521000D02*
X11210000Y-10841000D01*
X11210000Y-10521000D02*
X10890000Y-10841000D01*
D11*
X11005777Y-11706484D02*
X11005777Y-11506484D01*
X11005777Y-11506484D02*
X11053396Y-11506484D01*
X11053396Y-11506484D02*
X11081967Y-11516008D01*
X11081967Y-11516008D02*
X11101015Y-11535055D01*
X11101015Y-11535055D02*
X11110539Y-11554103D01*
X11110539Y-11554103D02*
X11120063Y-11592198D01*
X11120063Y-11592198D02*
X11120063Y-11620769D01*
X11120063Y-11620769D02*
X11110539Y-11658865D01*
X11110539Y-11658865D02*
X11101015Y-11677912D01*
X11101015Y-11677912D02*
X11081967Y-11696960D01*
X11081967Y-11696960D02*
X11053396Y-11706484D01*
X11053396Y-11706484D02*
X11005777Y-11706484D01*
X11205777Y-11706484D02*
X11205777Y-11573150D01*
X11205777Y-11611246D02*
X11215301Y-11592198D01*
X11215301Y-11592198D02*
X11224824Y-11582674D01*
X11224824Y-11582674D02*
X11243872Y-11573150D01*
X11243872Y-11573150D02*
X11262920Y-11573150D01*
X11329586Y-11706484D02*
X11329586Y-11573150D01*
X11329586Y-11506484D02*
X11320062Y-11516008D01*
X11320062Y-11516008D02*
X11329586Y-11525531D01*
X11329586Y-11525531D02*
X11339110Y-11516008D01*
X11339110Y-11516008D02*
X11329586Y-11506484D01*
X11329586Y-11506484D02*
X11329586Y-11525531D01*
X11453396Y-11706484D02*
X11434348Y-11696960D01*
X11434348Y-11696960D02*
X11424824Y-11677912D01*
X11424824Y-11677912D02*
X11424824Y-11506484D01*
X11558158Y-11706484D02*
X11539110Y-11696960D01*
X11539110Y-11696960D02*
X11529586Y-11677912D01*
X11529586Y-11677912D02*
X11529586Y-11506484D01*
X11786729Y-11706484D02*
X11786729Y-11506484D01*
X11786729Y-11506484D02*
X11853396Y-11649341D01*
X11853396Y-11649341D02*
X11920062Y-11506484D01*
X11920062Y-11506484D02*
X11920062Y-11706484D01*
X12101015Y-11706484D02*
X12101015Y-11601722D01*
X12101015Y-11601722D02*
X12091491Y-11582674D01*
X12091491Y-11582674D02*
X12072443Y-11573150D01*
X12072443Y-11573150D02*
X12034348Y-11573150D01*
X12034348Y-11573150D02*
X12015301Y-11582674D01*
X12101015Y-11696960D02*
X12081967Y-11706484D01*
X12081967Y-11706484D02*
X12034348Y-11706484D01*
X12034348Y-11706484D02*
X12015301Y-11696960D01*
X12015301Y-11696960D02*
X12005777Y-11677912D01*
X12005777Y-11677912D02*
X12005777Y-11658865D01*
X12005777Y-11658865D02*
X12015301Y-11639817D01*
X12015301Y-11639817D02*
X12034348Y-11630293D01*
X12034348Y-11630293D02*
X12081967Y-11630293D01*
X12081967Y-11630293D02*
X12101015Y-11620769D01*
X12196253Y-11573150D02*
X12196253Y-11773150D01*
X12196253Y-11582674D02*
X12215301Y-11573150D01*
X12215301Y-11573150D02*
X12253396Y-11573150D01*
X12253396Y-11573150D02*
X12272443Y-11582674D01*
X12272443Y-11582674D02*
X12281967Y-11592198D01*
X12281967Y-11592198D02*
X12291491Y-11611246D01*
X12291491Y-11611246D02*
X12291491Y-11668388D01*
X12291491Y-11668388D02*
X12281967Y-11687436D01*
X12281967Y-11687436D02*
X12272443Y-11696960D01*
X12272443Y-11696960D02*
X12253396Y-11706484D01*
X12253396Y-11706484D02*
X12215301Y-11706484D01*
X12215301Y-11706484D02*
X12196253Y-11696960D01*
X12377205Y-11687436D02*
X12386729Y-11696960D01*
X12386729Y-11696960D02*
X12377205Y-11706484D01*
X12377205Y-11706484D02*
X12367682Y-11696960D01*
X12367682Y-11696960D02*
X12377205Y-11687436D01*
X12377205Y-11687436D02*
X12377205Y-11706484D01*
X12377205Y-11582674D02*
X12386729Y-11592198D01*
X12386729Y-11592198D02*
X12377205Y-11601722D01*
X12377205Y-11601722D02*
X12367682Y-11592198D01*
X12367682Y-11592198D02*
X12377205Y-11582674D01*
X12377205Y-11582674D02*
X12377205Y-11601722D01*
X10545000Y-11935000D02*
X10745000Y-12135000D01*
X10745000Y-11935000D02*
X10545000Y-12135000D01*
X10986729Y-11926484D02*
X11110539Y-11926484D01*
X11110539Y-11926484D02*
X11043872Y-12002674D01*
X11043872Y-12002674D02*
X11072444Y-12002674D01*
X11072444Y-12002674D02*
X11091491Y-12012198D01*
X11091491Y-12012198D02*
X11101015Y-12021722D01*
X11101015Y-12021722D02*
X11110539Y-12040769D01*
X11110539Y-12040769D02*
X11110539Y-12088388D01*
X11110539Y-12088388D02*
X11101015Y-12107436D01*
X11101015Y-12107436D02*
X11091491Y-12116960D01*
X11091491Y-12116960D02*
X11072444Y-12126484D01*
X11072444Y-12126484D02*
X11015301Y-12126484D01*
X11015301Y-12126484D02*
X10996253Y-12116960D01*
X10996253Y-12116960D02*
X10986729Y-12107436D01*
X11196253Y-12107436D02*
X11205777Y-12116960D01*
X11205777Y-12116960D02*
X11196253Y-12126484D01*
X11196253Y-12126484D02*
X11186729Y-12116960D01*
X11186729Y-12116960D02*
X11196253Y-12107436D01*
X11196253Y-12107436D02*
X11196253Y-12126484D01*
X11281967Y-11945531D02*
X11291491Y-11936008D01*
X11291491Y-11936008D02*
X11310539Y-11926484D01*
X11310539Y-11926484D02*
X11358158Y-11926484D01*
X11358158Y-11926484D02*
X11377205Y-11936008D01*
X11377205Y-11936008D02*
X11386729Y-11945531D01*
X11386729Y-11945531D02*
X11396253Y-11964579D01*
X11396253Y-11964579D02*
X11396253Y-11983627D01*
X11396253Y-11983627D02*
X11386729Y-12012198D01*
X11386729Y-12012198D02*
X11272443Y-12126484D01*
X11272443Y-12126484D02*
X11396253Y-12126484D01*
X11520062Y-11926484D02*
X11539110Y-11926484D01*
X11539110Y-11926484D02*
X11558158Y-11936008D01*
X11558158Y-11936008D02*
X11567682Y-11945531D01*
X11567682Y-11945531D02*
X11577205Y-11964579D01*
X11577205Y-11964579D02*
X11586729Y-12002674D01*
X11586729Y-12002674D02*
X11586729Y-12050293D01*
X11586729Y-12050293D02*
X11577205Y-12088388D01*
X11577205Y-12088388D02*
X11567682Y-12107436D01*
X11567682Y-12107436D02*
X11558158Y-12116960D01*
X11558158Y-12116960D02*
X11539110Y-12126484D01*
X11539110Y-12126484D02*
X11520062Y-12126484D01*
X11520062Y-12126484D02*
X11501015Y-12116960D01*
X11501015Y-12116960D02*
X11491491Y-12107436D01*
X11491491Y-12107436D02*
X11481967Y-12088388D01*
X11481967Y-12088388D02*
X11472443Y-12050293D01*
X11472443Y-12050293D02*
X11472443Y-12002674D01*
X11472443Y-12002674D02*
X11481967Y-11964579D01*
X11481967Y-11964579D02*
X11491491Y-11945531D01*
X11491491Y-11945531D02*
X11501015Y-11936008D01*
X11501015Y-11936008D02*
X11520062Y-11926484D01*
X11710539Y-11926484D02*
X11729586Y-11926484D01*
X11729586Y-11926484D02*
X11748634Y-11936008D01*
X11748634Y-11936008D02*
X11758158Y-11945531D01*
X11758158Y-11945531D02*
X11767682Y-11964579D01*
X11767682Y-11964579D02*
X11777205Y-12002674D01*
X11777205Y-12002674D02*
X11777205Y-12050293D01*
X11777205Y-12050293D02*
X11767682Y-12088388D01*
X11767682Y-12088388D02*
X11758158Y-12107436D01*
X11758158Y-12107436D02*
X11748634Y-12116960D01*
X11748634Y-12116960D02*
X11729586Y-12126484D01*
X11729586Y-12126484D02*
X11710539Y-12126484D01*
X11710539Y-12126484D02*
X11691491Y-12116960D01*
X11691491Y-12116960D02*
X11681967Y-12107436D01*
X11681967Y-12107436D02*
X11672443Y-12088388D01*
X11672443Y-12088388D02*
X11662920Y-12050293D01*
X11662920Y-12050293D02*
X11662920Y-12002674D01*
X11662920Y-12002674D02*
X11672443Y-11964579D01*
X11672443Y-11964579D02*
X11681967Y-11945531D01*
X11681967Y-11945531D02*
X11691491Y-11936008D01*
X11691491Y-11936008D02*
X11710539Y-11926484D01*
X11862920Y-12126484D02*
X11862920Y-11993150D01*
X11862920Y-12012198D02*
X11872443Y-12002674D01*
X11872443Y-12002674D02*
X11891491Y-11993150D01*
X11891491Y-11993150D02*
X11920063Y-11993150D01*
X11920063Y-11993150D02*
X11939110Y-12002674D01*
X11939110Y-12002674D02*
X11948634Y-12021722D01*
X11948634Y-12021722D02*
X11948634Y-12126484D01*
X11948634Y-12021722D02*
X11958158Y-12002674D01*
X11958158Y-12002674D02*
X11977205Y-11993150D01*
X11977205Y-11993150D02*
X12005777Y-11993150D01*
X12005777Y-11993150D02*
X12024824Y-12002674D01*
X12024824Y-12002674D02*
X12034348Y-12021722D01*
X12034348Y-12021722D02*
X12034348Y-12126484D01*
X12129586Y-12126484D02*
X12129586Y-11993150D01*
X12129586Y-12012198D02*
X12139110Y-12002674D01*
X12139110Y-12002674D02*
X12158158Y-11993150D01*
X12158158Y-11993150D02*
X12186729Y-11993150D01*
X12186729Y-11993150D02*
X12205777Y-12002674D01*
X12205777Y-12002674D02*
X12215301Y-12021722D01*
X12215301Y-12021722D02*
X12215301Y-12126484D01*
X12215301Y-12021722D02*
X12224824Y-12002674D01*
X12224824Y-12002674D02*
X12243872Y-11993150D01*
X12243872Y-11993150D02*
X12272443Y-11993150D01*
X12272443Y-11993150D02*
X12291491Y-12002674D01*
X12291491Y-12002674D02*
X12301015Y-12021722D01*
X12301015Y-12021722D02*
X12301015Y-12126484D01*
X12691491Y-11916960D02*
X12520063Y-12174103D01*
X12948634Y-11926484D02*
X12967682Y-11926484D01*
X12967682Y-11926484D02*
X12986729Y-11936008D01*
X12986729Y-11936008D02*
X12996253Y-11945531D01*
X12996253Y-11945531D02*
X13005777Y-11964579D01*
X13005777Y-11964579D02*
X13015301Y-12002674D01*
X13015301Y-12002674D02*
X13015301Y-12050293D01*
X13015301Y-12050293D02*
X13005777Y-12088388D01*
X13005777Y-12088388D02*
X12996253Y-12107436D01*
X12996253Y-12107436D02*
X12986729Y-12116960D01*
X12986729Y-12116960D02*
X12967682Y-12126484D01*
X12967682Y-12126484D02*
X12948634Y-12126484D01*
X12948634Y-12126484D02*
X12929586Y-12116960D01*
X12929586Y-12116960D02*
X12920063Y-12107436D01*
X12920063Y-12107436D02*
X12910539Y-12088388D01*
X12910539Y-12088388D02*
X12901015Y-12050293D01*
X12901015Y-12050293D02*
X12901015Y-12002674D01*
X12901015Y-12002674D02*
X12910539Y-11964579D01*
X12910539Y-11964579D02*
X12920063Y-11945531D01*
X12920063Y-11945531D02*
X12929586Y-11936008D01*
X12929586Y-11936008D02*
X12948634Y-11926484D01*
X13101015Y-12107436D02*
X13110539Y-12116960D01*
X13110539Y-12116960D02*
X13101015Y-12126484D01*
X13101015Y-12126484D02*
X13091491Y-12116960D01*
X13091491Y-12116960D02*
X13101015Y-12107436D01*
X13101015Y-12107436D02*
X13101015Y-12126484D01*
X13301015Y-12126484D02*
X13186729Y-12126484D01*
X13243872Y-12126484D02*
X13243872Y-11926484D01*
X13243872Y-11926484D02*
X13224825Y-11955055D01*
X13224825Y-11955055D02*
X13205777Y-11974103D01*
X13205777Y-11974103D02*
X13186729Y-11983627D01*
X13377206Y-11945531D02*
X13386729Y-11936008D01*
X13386729Y-11936008D02*
X13405777Y-11926484D01*
X13405777Y-11926484D02*
X13453396Y-11926484D01*
X13453396Y-11926484D02*
X13472444Y-11936008D01*
X13472444Y-11936008D02*
X13481967Y-11945531D01*
X13481967Y-11945531D02*
X13491491Y-11964579D01*
X13491491Y-11964579D02*
X13491491Y-11983627D01*
X13491491Y-11983627D02*
X13481967Y-12012198D01*
X13481967Y-12012198D02*
X13367682Y-12126484D01*
X13367682Y-12126484D02*
X13491491Y-12126484D01*
X13662920Y-11926484D02*
X13624825Y-11926484D01*
X13624825Y-11926484D02*
X13605777Y-11936008D01*
X13605777Y-11936008D02*
X13596253Y-11945531D01*
X13596253Y-11945531D02*
X13577206Y-11974103D01*
X13577206Y-11974103D02*
X13567682Y-12012198D01*
X13567682Y-12012198D02*
X13567682Y-12088388D01*
X13567682Y-12088388D02*
X13577206Y-12107436D01*
X13577206Y-12107436D02*
X13586729Y-12116960D01*
X13586729Y-12116960D02*
X13605777Y-12126484D01*
X13605777Y-12126484D02*
X13643872Y-12126484D01*
X13643872Y-12126484D02*
X13662920Y-12116960D01*
X13662920Y-12116960D02*
X13672444Y-12107436D01*
X13672444Y-12107436D02*
X13681967Y-12088388D01*
X13681967Y-12088388D02*
X13681967Y-12040769D01*
X13681967Y-12040769D02*
X13672444Y-12021722D01*
X13672444Y-12021722D02*
X13662920Y-12012198D01*
X13662920Y-12012198D02*
X13643872Y-12002674D01*
X13643872Y-12002674D02*
X13605777Y-12002674D01*
X13605777Y-12002674D02*
X13586729Y-12012198D01*
X13586729Y-12012198D02*
X13577206Y-12021722D01*
X13577206Y-12021722D02*
X13567682Y-12040769D01*
X13805777Y-11926484D02*
X13824825Y-11926484D01*
X13824825Y-11926484D02*
X13843872Y-11936008D01*
X13843872Y-11936008D02*
X13853396Y-11945531D01*
X13853396Y-11945531D02*
X13862920Y-11964579D01*
X13862920Y-11964579D02*
X13872444Y-12002674D01*
X13872444Y-12002674D02*
X13872444Y-12050293D01*
X13872444Y-12050293D02*
X13862920Y-12088388D01*
X13862920Y-12088388D02*
X13853396Y-12107436D01*
X13853396Y-12107436D02*
X13843872Y-12116960D01*
X13843872Y-12116960D02*
X13824825Y-12126484D01*
X13824825Y-12126484D02*
X13805777Y-12126484D01*
X13805777Y-12126484D02*
X13786729Y-12116960D01*
X13786729Y-12116960D02*
X13777206Y-12107436D01*
X13777206Y-12107436D02*
X13767682Y-12088388D01*
X13767682Y-12088388D02*
X13758158Y-12050293D01*
X13758158Y-12050293D02*
X13758158Y-12002674D01*
X13758158Y-12002674D02*
X13767682Y-11964579D01*
X13767682Y-11964579D02*
X13777206Y-11945531D01*
X13777206Y-11945531D02*
X13786729Y-11936008D01*
X13786729Y-11936008D02*
X13805777Y-11926484D01*
X13948634Y-11926484D02*
X13948634Y-11964579D01*
X14024825Y-11926484D02*
X14024825Y-11964579D01*
X14320063Y-12202674D02*
X14310539Y-12193150D01*
X14310539Y-12193150D02*
X14291491Y-12164579D01*
X14291491Y-12164579D02*
X14281968Y-12145531D01*
X14281968Y-12145531D02*
X14272444Y-12116960D01*
X14272444Y-12116960D02*
X14262920Y-12069341D01*
X14262920Y-12069341D02*
X14262920Y-12031246D01*
X14262920Y-12031246D02*
X14272444Y-11983627D01*
X14272444Y-11983627D02*
X14281968Y-11955055D01*
X14281968Y-11955055D02*
X14291491Y-11936008D01*
X14291491Y-11936008D02*
X14310539Y-11907436D01*
X14310539Y-11907436D02*
X14320063Y-11897912D01*
X14386729Y-11945531D02*
X14396253Y-11936008D01*
X14396253Y-11936008D02*
X14415301Y-11926484D01*
X14415301Y-11926484D02*
X14462920Y-11926484D01*
X14462920Y-11926484D02*
X14481968Y-11936008D01*
X14481968Y-11936008D02*
X14491491Y-11945531D01*
X14491491Y-11945531D02*
X14501015Y-11964579D01*
X14501015Y-11964579D02*
X14501015Y-11983627D01*
X14501015Y-11983627D02*
X14491491Y-12012198D01*
X14491491Y-12012198D02*
X14377206Y-12126484D01*
X14377206Y-12126484D02*
X14501015Y-12126484D01*
X14739110Y-12126484D02*
X14739110Y-11926484D01*
X14824825Y-12126484D02*
X14824825Y-12021722D01*
X14824825Y-12021722D02*
X14815301Y-12002674D01*
X14815301Y-12002674D02*
X14796253Y-11993150D01*
X14796253Y-11993150D02*
X14767682Y-11993150D01*
X14767682Y-11993150D02*
X14748634Y-12002674D01*
X14748634Y-12002674D02*
X14739110Y-12012198D01*
X14948634Y-12126484D02*
X14929587Y-12116960D01*
X14929587Y-12116960D02*
X14920063Y-12107436D01*
X14920063Y-12107436D02*
X14910539Y-12088388D01*
X14910539Y-12088388D02*
X14910539Y-12031246D01*
X14910539Y-12031246D02*
X14920063Y-12012198D01*
X14920063Y-12012198D02*
X14929587Y-12002674D01*
X14929587Y-12002674D02*
X14948634Y-11993150D01*
X14948634Y-11993150D02*
X14977206Y-11993150D01*
X14977206Y-11993150D02*
X14996253Y-12002674D01*
X14996253Y-12002674D02*
X15005777Y-12012198D01*
X15005777Y-12012198D02*
X15015301Y-12031246D01*
X15015301Y-12031246D02*
X15015301Y-12088388D01*
X15015301Y-12088388D02*
X15005777Y-12107436D01*
X15005777Y-12107436D02*
X14996253Y-12116960D01*
X14996253Y-12116960D02*
X14977206Y-12126484D01*
X14977206Y-12126484D02*
X14948634Y-12126484D01*
X15129587Y-12126484D02*
X15110539Y-12116960D01*
X15110539Y-12116960D02*
X15101015Y-12097912D01*
X15101015Y-12097912D02*
X15101015Y-11926484D01*
X15281968Y-12116960D02*
X15262920Y-12126484D01*
X15262920Y-12126484D02*
X15224825Y-12126484D01*
X15224825Y-12126484D02*
X15205777Y-12116960D01*
X15205777Y-12116960D02*
X15196253Y-12097912D01*
X15196253Y-12097912D02*
X15196253Y-12021722D01*
X15196253Y-12021722D02*
X15205777Y-12002674D01*
X15205777Y-12002674D02*
X15224825Y-11993150D01*
X15224825Y-11993150D02*
X15262920Y-11993150D01*
X15262920Y-11993150D02*
X15281968Y-12002674D01*
X15281968Y-12002674D02*
X15291491Y-12021722D01*
X15291491Y-12021722D02*
X15291491Y-12040769D01*
X15291491Y-12040769D02*
X15196253Y-12059817D01*
X15367682Y-12116960D02*
X15386730Y-12126484D01*
X15386730Y-12126484D02*
X15424825Y-12126484D01*
X15424825Y-12126484D02*
X15443872Y-12116960D01*
X15443872Y-12116960D02*
X15453396Y-12097912D01*
X15453396Y-12097912D02*
X15453396Y-12088388D01*
X15453396Y-12088388D02*
X15443872Y-12069341D01*
X15443872Y-12069341D02*
X15424825Y-12059817D01*
X15424825Y-12059817D02*
X15396253Y-12059817D01*
X15396253Y-12059817D02*
X15377206Y-12050293D01*
X15377206Y-12050293D02*
X15367682Y-12031246D01*
X15367682Y-12031246D02*
X15367682Y-12021722D01*
X15367682Y-12021722D02*
X15377206Y-12002674D01*
X15377206Y-12002674D02*
X15396253Y-11993150D01*
X15396253Y-11993150D02*
X15424825Y-11993150D01*
X15424825Y-11993150D02*
X15443872Y-12002674D01*
X15520063Y-12202674D02*
X15529587Y-12193150D01*
X15529587Y-12193150D02*
X15548634Y-12164579D01*
X15548634Y-12164579D02*
X15558158Y-12145531D01*
X15558158Y-12145531D02*
X15567682Y-12116960D01*
X15567682Y-12116960D02*
X15577206Y-12069341D01*
X15577206Y-12069341D02*
X15577206Y-12031246D01*
X15577206Y-12031246D02*
X15567682Y-11983627D01*
X15567682Y-11983627D02*
X15558158Y-11955055D01*
X15558158Y-11955055D02*
X15548634Y-11936008D01*
X15548634Y-11936008D02*
X15529587Y-11907436D01*
X15529587Y-11907436D02*
X15520063Y-11897912D01*
X15881968Y-12202674D02*
X15872444Y-12193150D01*
X15872444Y-12193150D02*
X15853396Y-12164579D01*
X15853396Y-12164579D02*
X15843872Y-12145531D01*
X15843872Y-12145531D02*
X15834349Y-12116960D01*
X15834349Y-12116960D02*
X15824825Y-12069341D01*
X15824825Y-12069341D02*
X15824825Y-12031246D01*
X15824825Y-12031246D02*
X15834349Y-11983627D01*
X15834349Y-11983627D02*
X15843872Y-11955055D01*
X15843872Y-11955055D02*
X15853396Y-11936008D01*
X15853396Y-11936008D02*
X15872444Y-11907436D01*
X15872444Y-11907436D02*
X15881968Y-11897912D01*
X15958158Y-11993150D02*
X15958158Y-12126484D01*
X15958158Y-12012198D02*
X15967682Y-12002674D01*
X15967682Y-12002674D02*
X15986730Y-11993150D01*
X15986730Y-11993150D02*
X16015301Y-11993150D01*
X16015301Y-11993150D02*
X16034349Y-12002674D01*
X16034349Y-12002674D02*
X16043872Y-12021722D01*
X16043872Y-12021722D02*
X16043872Y-12126484D01*
X16167682Y-12126484D02*
X16148634Y-12116960D01*
X16148634Y-12116960D02*
X16139111Y-12107436D01*
X16139111Y-12107436D02*
X16129587Y-12088388D01*
X16129587Y-12088388D02*
X16129587Y-12031246D01*
X16129587Y-12031246D02*
X16139111Y-12012198D01*
X16139111Y-12012198D02*
X16148634Y-12002674D01*
X16148634Y-12002674D02*
X16167682Y-11993150D01*
X16167682Y-11993150D02*
X16196253Y-11993150D01*
X16196253Y-11993150D02*
X16215301Y-12002674D01*
X16215301Y-12002674D02*
X16224825Y-12012198D01*
X16224825Y-12012198D02*
X16234349Y-12031246D01*
X16234349Y-12031246D02*
X16234349Y-12088388D01*
X16234349Y-12088388D02*
X16224825Y-12107436D01*
X16224825Y-12107436D02*
X16215301Y-12116960D01*
X16215301Y-12116960D02*
X16196253Y-12126484D01*
X16196253Y-12126484D02*
X16167682Y-12126484D01*
X16291492Y-11993150D02*
X16367682Y-11993150D01*
X16320063Y-11926484D02*
X16320063Y-12097912D01*
X16320063Y-12097912D02*
X16329587Y-12116960D01*
X16329587Y-12116960D02*
X16348634Y-12126484D01*
X16348634Y-12126484D02*
X16367682Y-12126484D01*
X16586730Y-11993150D02*
X16586730Y-12193150D01*
X16586730Y-12002674D02*
X16605777Y-11993150D01*
X16605777Y-11993150D02*
X16643873Y-11993150D01*
X16643873Y-11993150D02*
X16662920Y-12002674D01*
X16662920Y-12002674D02*
X16672444Y-12012198D01*
X16672444Y-12012198D02*
X16681968Y-12031246D01*
X16681968Y-12031246D02*
X16681968Y-12088388D01*
X16681968Y-12088388D02*
X16672444Y-12107436D01*
X16672444Y-12107436D02*
X16662920Y-12116960D01*
X16662920Y-12116960D02*
X16643873Y-12126484D01*
X16643873Y-12126484D02*
X16605777Y-12126484D01*
X16605777Y-12126484D02*
X16586730Y-12116960D01*
X16796254Y-12126484D02*
X16777206Y-12116960D01*
X16777206Y-12116960D02*
X16767682Y-12097912D01*
X16767682Y-12097912D02*
X16767682Y-11926484D01*
X16958158Y-12126484D02*
X16958158Y-12021722D01*
X16958158Y-12021722D02*
X16948635Y-12002674D01*
X16948635Y-12002674D02*
X16929587Y-11993150D01*
X16929587Y-11993150D02*
X16891492Y-11993150D01*
X16891492Y-11993150D02*
X16872444Y-12002674D01*
X16958158Y-12116960D02*
X16939111Y-12126484D01*
X16939111Y-12126484D02*
X16891492Y-12126484D01*
X16891492Y-12126484D02*
X16872444Y-12116960D01*
X16872444Y-12116960D02*
X16862920Y-12097912D01*
X16862920Y-12097912D02*
X16862920Y-12078865D01*
X16862920Y-12078865D02*
X16872444Y-12059817D01*
X16872444Y-12059817D02*
X16891492Y-12050293D01*
X16891492Y-12050293D02*
X16939111Y-12050293D01*
X16939111Y-12050293D02*
X16958158Y-12040769D01*
X17024825Y-11993150D02*
X17101015Y-11993150D01*
X17053396Y-11926484D02*
X17053396Y-12097912D01*
X17053396Y-12097912D02*
X17062920Y-12116960D01*
X17062920Y-12116960D02*
X17081968Y-12126484D01*
X17081968Y-12126484D02*
X17101015Y-12126484D01*
X17243873Y-12116960D02*
X17224825Y-12126484D01*
X17224825Y-12126484D02*
X17186730Y-12126484D01*
X17186730Y-12126484D02*
X17167682Y-12116960D01*
X17167682Y-12116960D02*
X17158158Y-12097912D01*
X17158158Y-12097912D02*
X17158158Y-12021722D01*
X17158158Y-12021722D02*
X17167682Y-12002674D01*
X17167682Y-12002674D02*
X17186730Y-11993150D01*
X17186730Y-11993150D02*
X17224825Y-11993150D01*
X17224825Y-11993150D02*
X17243873Y-12002674D01*
X17243873Y-12002674D02*
X17253396Y-12021722D01*
X17253396Y-12021722D02*
X17253396Y-12040769D01*
X17253396Y-12040769D02*
X17158158Y-12059817D01*
X17424825Y-12126484D02*
X17424825Y-11926484D01*
X17424825Y-12116960D02*
X17405777Y-12126484D01*
X17405777Y-12126484D02*
X17367682Y-12126484D01*
X17367682Y-12126484D02*
X17348635Y-12116960D01*
X17348635Y-12116960D02*
X17339111Y-12107436D01*
X17339111Y-12107436D02*
X17329587Y-12088388D01*
X17329587Y-12088388D02*
X17329587Y-12031246D01*
X17329587Y-12031246D02*
X17339111Y-12012198D01*
X17339111Y-12012198D02*
X17348635Y-12002674D01*
X17348635Y-12002674D02*
X17367682Y-11993150D01*
X17367682Y-11993150D02*
X17405777Y-11993150D01*
X17405777Y-11993150D02*
X17424825Y-12002674D01*
X17501016Y-12202674D02*
X17510539Y-12193150D01*
X17510539Y-12193150D02*
X17529587Y-12164579D01*
X17529587Y-12164579D02*
X17539111Y-12145531D01*
X17539111Y-12145531D02*
X17548635Y-12116960D01*
X17548635Y-12116960D02*
X17558158Y-12069341D01*
X17558158Y-12069341D02*
X17558158Y-12031246D01*
X17558158Y-12031246D02*
X17548635Y-11983627D01*
X17548635Y-11983627D02*
X17539111Y-11955055D01*
X17539111Y-11955055D02*
X17529587Y-11936008D01*
X17529587Y-11936008D02*
X17510539Y-11907436D01*
X17510539Y-11907436D02*
X17501016Y-11897912D01*
M02*
